<svg xmlns="http://www.w3.org/2000/svg" xmlns:xlink="http://www.w3.org/1999/xlink" version="1.1" id="Layer_1" x="0px" y="0px" width="100px" height="100px" viewBox="0 0 100 100" enable-background="new 0 0 100 100" xml:space="preserve">
<path d="M48.707,54.67c0,0-0.296,8.027-2.659,8.529s-5.005-2.502-5.899-6.711c-0.894-4.209,0.488-8.003,2.659-8.531  c1.179-0.287,3.432,1.472,4.226,2.39C47.791,51.223,48.707,54.67,48.707,54.67z"/>
<path d="M67.941,85.93c0.464,0.846,1.898,3.562,1.8,4.521c-0.19,1.852-3.61,4.678-5.45,4.959c-1.328,0.205-5.487-1.396-5.487-1.396  s-1.417-4.561-1.703-5.779c-0.198-0.848,0.285-2.598,0.304-3.467c0.037-1.723-0.304-6.879-0.304-6.879s0.006-5.193,1.391-5.539  c1.405-0.35,2.917,3.23,3.75,4.414c0.93,1.32,2.353,4.24,3.221,5.604C66.045,83.281,67.42,84.979,67.941,85.93z"/>
<path d="M32.986,49.98c-0.607,0-1.157-0.416-1.303-1.032c-0.54-2.285-1.33-6.347-0.567-7.881c0.833-1.676,5.042-3.883,6.812-4.754  c0.664-0.327,1.467-0.054,1.793,0.611c0.327,0.664,0.054,1.467-0.61,1.794c-2.606,1.283-5.197,2.923-5.589,3.534  c-0.201,0.656,0.154,3.475,0.769,6.081c0.17,0.72-0.276,1.442-0.997,1.612C33.192,49.968,33.088,49.98,32.986,49.98z"/>
<path d="M66.674,43.961c-0.576,0-1.094-0.4-1.221-0.985c-0.575-2.646-1.477-5.359-1.941-5.851c-0.549-0.33-3.185-0.646-5.686-0.679  c-0.69-0.009-1.242-0.576-1.233-1.267c0.01-0.69,0.577-1.254,1.267-1.233c2.19,0.029,6.048,0.231,7.266,1.268  c1.33,1.131,2.381,5.434,2.771,7.231c0.146,0.675-0.282,1.34-0.957,1.487C66.851,43.952,66.762,43.961,66.674,43.961z"/>
<path d="M63.716,51.426c0,0,1.286,7.773-0.097,8.223c-0.74,0.24-2.092-1.66-3.191-3.482c-0.957-1.586-1.723-3.113-1.723-3.113  s-1.039-2.318-1.135-3.15c-0.066-0.568-0.561-1.799-0.371-2.765c0.243-1.238,1.228-2.188,1.604-2.31  c0.759-0.247,3.336,2.306,3.971,3.459C63.168,49.005,63.716,51.426,63.716,51.426z"/>
<path d="M60.323,96.741L60.323,96.741c-1.738,0-3.299-0.57-4.637-1.693c-0.838-0.703-1.359-1.699-1.65-2.412  c-0.467-1.137-0.859-2.303-1.242-3.43c-0.146-0.438-0.295-0.875-0.447-1.312c-0.016-0.045-0.033-0.09-0.051-0.137  c-0.094-0.232-0.219-0.553-0.23-0.947c-0.016-0.521-0.182-1.043-1.271-1.32c-2.052-0.523-3.298-1.939-4.396-3.188l-0.117-0.131  c-2.23-2.529-3.656-5.59-4.235-9.096c-0.202-1.221-0.553-2.416-0.925-3.684l-0.075-0.254c-0.233-0.799-0.648-1.32-1.343-1.691  c-1.968-1.047-3.253-2.658-3.821-4.787c-0.539-2.021-1.131-3.955-1.761-5.748c-0.094-0.268-0.315-0.576-0.55-0.902  c-0.194-0.271-0.415-0.578-0.602-0.918c-0.274-0.498-0.495-1.004-0.709-1.492c-0.088-0.203-0.176-0.404-0.268-0.604l-0.103-0.225  l-0.01-0.248c-0.007-0.189-0.016-0.381-0.024-0.57c-0.02-0.455-0.04-0.91-0.049-1.364c-0.008-0.389-0.007-0.779-0.005-1.164  c-1.258-0.633-3.666-1.147-4.534-1.334c-0.424-0.09-0.601-0.129-0.738-0.173c-0.706-0.229-1.415-0.448-2.125-0.669  c-1.658-0.512-3.373-1.042-5.031-1.703c-2.576-1.025-4.618-2.962-5.905-5.6c-0.615-1.26-1.164-2.674-1.631-4.201  c-0.207-0.678-0.194-1.352-0.184-1.947c0.004-0.199,0.008-0.397,0.001-0.592c-0.01-0.318-0.008-0.635-0.005-1.002  c0.001-0.186,0.002-0.389,0.002-0.621l0.007-0.135c0.237-2.188,1.974-7.42,2.089-7.723c0.386-1.02,0.744-2.082,1.09-3.108  c0.161-0.479,0.322-0.956,0.487-1.433c0.037-0.107,0.068-0.172,0.344-0.732c0.604-1.225,2.44-4.951,2.822-6.477l0.044-0.176  l0.092-0.156c0.62-1.051,3.221-3.891,4.418-4.805l1.09-1.25l0.703,0.133c0.748,0.141,2.304,0.436,2.281,2.478  c-0.01,0.874-0.059,1.901-0.346,2.905c-0.298,1.043-0.67,2.053-1.031,3.029c-0.026,0.096-0.077,0.379-0.119,0.609  c-0.23,1.269-0.462,2.387-0.92,3.107c-0.019,0.242-0.01,0.719-0.004,1.051c0.018,0.971,0.017,1.623-0.136,2.133  c-0.12,0.696-0.241,1.393-0.363,2.088c-0.317,1.814-0.645,3.689-0.934,5.535c-0.074,0.473-0.083,0.986-0.092,1.529  c-0.003,0.182-0.006,0.363-0.012,0.545l0.718,1.791l0.445,0.256l4.775,0.944c0.485,0.058,0.97,0.113,1.455,0.169  c1.202,0.141,2.444,0.285,3.667,0.439c0.666,0.084,1.45,0.197,2.22,0.391c0.427,0.107,0.774,0.311,1.053,0.473  c0.087,0.051,0.173,0.102,0.262,0.146l0.26,0.133l0.476,0.639c0.479-0.112,1.119-0.31,1.329-0.426  c2.562-1.625,5.362-2.668,8.312-3.09c0.697-0.1,1.444-0.192,2.21-0.192c0.879,0,1.662,0.122,2.393,0.373l2.893,0.702l2.311,0.282  l1.777-0.05c1.078-1.188,2.527-1.637,3.658-1.962c1.525-0.841,3.141-1.256,4.705-1.657c0.441-0.113,0.881-0.227,1.318-0.35  c0.666-0.186,1.332-0.367,2-0.549l0.846-0.23l1.889-0.654l1.986-0.937l0.479-0.475c0.686-0.681,1.369-1.362,2.061-2.038  c0.316-0.637,1.402-3.113,1.559-3.596c0.484-2.57,0.693-5.357,0.641-8.518c-0.004-0.186,0.014-0.35,0.027-0.482L80.39,9.053  c-0.053-0.836-0.486-1.588-1.123-2.459L79.2,6.504c-0.996-1.332-0.52-2.273,0.057-2.83l0.434-0.416l0.596,0.077  c1.264,0.165,2.535,0.813,3.582,1.827c1.164,1.127,2.537,4.682,2.699,5.162l0,0c0.092,0.281,0.189,0.562,0.287,0.842  c0.254,0.73,0.516,1.484,0.709,2.271c0.045,0.178,0.078,0.403,0.133,0.787c0.047,0.335,0.145,1.018,0.223,1.253l0.107,0.175  l0.033,0.266c0.207,1.624,0.467,3.645,0.141,5.649c-0.08,0.487-0.482,2.655-0.602,3.216l-0.027,0.129l-0.053,0.119  c-0.123,0.276-0.344,1.105-0.506,1.711c-0.301,1.131-0.432,1.588-0.607,1.9c-0.275,0.494-0.57,0.971-0.855,1.432  c-0.084,0.135-0.166,0.269-0.248,0.402c-0.164,0.617-0.576,1.662-1.072,2.281c-0.855,1.588-4.49,4.053-4.527,4.076l-0.139,0.084  c-0.443,0.268-0.861,0.522-1.357,0.522c-0.109,0-0.217-0.013-0.318-0.036c-0.086,0.088-0.189,0.184-0.32,0.268l-0.135,0.087  l-0.154,0.05c-0.432,0.139-0.91,0.334-1.303,0.507c-0.238,0.673-0.945,1.147-1.332,1.362c-0.439,0.424-1.119,0.78-1.646,0.888  c-0.359,0.134-0.723,0.263-1.088,0.39c-1.443,0.508-2.809,0.988-3.93,1.864l0.039,0.062l-0.832,0.697  c-0.518,0.434-1.105,0.656-1.625,0.854c-0.322,0.121-0.539,0.213-0.689,0.293c0.004,0.004,0.008,0.008,0.014,0.013  c0.533,0.532,1.039,1.034,1.553,1.489c0.053,0.044,0.252,0.13,0.396,0.193c0.16,0.068,0.33,0.143,0.506,0.23l0.518,0.261  l0.207,0.854c0.066,0.271,0.145,0.589,0.219,0.909c0.189,0.836-0.068,1.46-0.516,1.851l-0.078,0.354l0.957,0.737l0.064,1.539  c0.033,0.744,0.064,1.514,0.096,2.281c0.01,0.242,0.014,0.484,0.018,0.727c0.008,0.408,0.014,0.793,0.047,1.164  c0.166,1.846-0.283,3.518-0.744,4.91c-0.475,1.428-0.523,2.934-0.158,4.736c0.146,0.719,0.258,1.416,0.33,2.074  c0.018,0.17,0.033,0.34,0.047,0.51c0.055,0.645,0.1,1.154,0.371,1.566c0.494,0.748,0.41,1.826,0.08,2.459  c-0.312,0.602-0.166,1.225,0.102,2.191c0.041,0.148,0.08,0.295,0.119,0.441c0.334,1.297,0.75,2.615,1.152,3.889  c0.283,0.895,0.576,1.82,0.842,2.744c0.699,2.424,0.984,4.941,0.85,7.484c-0.125,2.318-1.693,4.145-4.092,4.764  c-0.582,0.15-1.162,0.305-1.744,0.459c-1.238,0.33-2.518,0.672-3.799,0.965C61.581,96.667,60.94,96.741,60.323,96.741z   M54.562,86.685c0.014,0.037,0.039,0.104,0.059,0.154c0.031,0.078,0.061,0.156,0.088,0.232c0.154,0.443,0.305,0.889,0.455,1.334  c0.369,1.092,0.75,2.221,1.186,3.283c0.258,0.629,0.602,1.156,0.945,1.445c1.209,1.014,2.693,1.332,4.377,0.949  c1.236-0.283,2.496-0.617,3.713-0.943c0.586-0.156,1.174-0.312,1.762-0.465c1.324-0.342,2.154-1.268,2.219-2.477  c0.121-2.262-0.131-4.502-0.754-6.656c-0.258-0.895-0.545-1.805-0.822-2.686c-0.412-1.305-0.838-2.654-1.191-4.016  c-0.033-0.133-0.07-0.268-0.107-0.402c-0.307-1.107-0.686-2.482,0.07-3.971c0.004-0.02,0.006-0.047,0.006-0.07  c-0.562-0.91-0.645-1.859-0.709-2.627c-0.014-0.15-0.025-0.301-0.043-0.451c-0.062-0.582-0.162-1.203-0.293-1.848  c-0.451-2.217-0.373-4.186,0.234-6.021c0.379-1.148,0.752-2.51,0.627-3.9c-0.041-0.461-0.049-0.91-0.057-1.344  c-0.004-0.225-0.008-0.447-0.016-0.67c-0.031-0.766-0.062-1.531-0.096-2.273l-0.016-0.379l-0.883-0.686l-0.262-0.973L65.61,48.7  l0.104-0.025c-0.002-0.006-0.002-0.012-0.004-0.018c-0.303-0.133-0.631-0.293-0.93-0.559c-0.568-0.504-1.098-1.03-1.658-1.588  c-0.225-0.223-0.455-0.451-0.695-0.688l-0.467-0.457l0.109-0.645c0.295-1.752,1.686-2.278,2.605-2.627  c0.219-0.082,0.43-0.162,0.605-0.248c0.012-0.023,0.023-0.047,0.037-0.07c0.227-0.408,0.68-0.818,1.215-0.997  c1.42-1.081,3.01-1.64,4.549-2.181c0.389-0.137,0.777-0.273,1.162-0.419l0.26-0.099l0.08,0.007c0.076-0.038,0.172-0.093,0.248-0.144  l0.094-0.219l0.24-0.107c0.053-0.788,0.887-1.17,1.574-1.486c0.486-0.223,1.014-0.438,1.469-0.6  c0.266-0.289,0.781-0.777,1.621-0.777c0.137,0,0.275,0.014,0.412,0.041c0.01-0.005,0.018-0.01,0.025-0.016l0.143-0.085  c0.967-0.589,3.174-2.429,3.58-3.036l0.113-0.42l0.25-0.138c0.188-0.319,0.494-1.007,0.535-1.251l0.031-0.277l0.143-0.224  c0.119-0.196,0.24-0.392,0.361-0.588c0.277-0.45,0.541-0.876,0.787-1.313c0.08-0.195,0.264-0.887,0.387-1.348  c0.234-0.883,0.408-1.518,0.578-1.945c0.135-0.662,0.486-2.559,0.557-2.988c0.258-1.579,0.062-3.248-0.127-4.74  c-0.172-0.432-0.266-1.021-0.383-1.848c-0.029-0.196-0.066-0.465-0.084-0.541c-0.168-0.675-0.4-1.344-0.645-2.051  c-0.102-0.293-0.203-0.584-0.301-0.877l-0.012-0.038c-0.123-0.409-0.859-2.151-1.479-3.263c0.09,0.326,0.152,0.668,0.178,1.029  l0.521,3.343l-0.012,0.146c-0.006,0.063-0.012,0.128-0.02,0.192c-0.008,0.069-0.016,0.148-0.016,0.184  c0.059,3.352-0.168,6.318-0.691,9.072c-0.041,0.225-1.662,4.29-2.129,4.746c-0.73,0.711-1.453,1.43-2.174,2.148l-0.785,0.779  l-2.562,1.199l-2.07,0.715l-0.889,0.242c-0.66,0.18-1.32,0.359-1.98,0.545c-0.455,0.127-0.914,0.245-1.373,0.363  c-1.516,0.389-2.949,0.757-4.223,1.482l-0.131,0.076l-0.145,0.041c-1.299,0.369-2.262,0.697-2.842,1.541l-0.361,0.522l-3.178,0.089  l-2.709-0.34l-3.154-0.771c-0.473-0.169-1.002-0.251-1.615-0.251c-0.607,0-1.252,0.081-1.855,0.167  c-2.598,0.372-5.068,1.293-7.342,2.734c-0.618,0.393-2.379,0.893-3.141,0.893c-0.085,0-0.161-0.005-0.228-0.013l-0.534-0.063  l-0.896-1.203c-0.037-0.021-0.074-0.043-0.111-0.064c-0.143-0.084-0.321-0.188-0.405-0.209c-0.639-0.16-1.302-0.256-1.923-0.334  c-1.21-0.153-2.447-0.297-3.642-0.436c-0.502-0.059-1.005-0.117-1.507-0.176l-0.096-0.016l-5.225-1.033l-1.556-0.891l-1.24-3.098  l0.012-0.271c0.011-0.248,0.015-0.497,0.02-0.747c0.01-0.605,0.021-1.23,0.122-1.877c0.293-1.865,0.622-3.752,0.941-5.576  c0.126-0.725,0.253-1.447,0.377-2.172l0.02-0.117l0.034-0.09c0.052-0.225,0.038-0.938,0.03-1.366  c-0.021-1.19-0.035-1.909,0.402-2.447c0.221-0.319,0.469-1.688,0.562-2.204c0.096-0.527,0.146-0.791,0.226-1.008  c0.347-0.939,0.707-1.911,0.98-2.871c0.145-0.508,0.206-1.066,0.232-1.602l-0.105,0.041c-0.594,0.479-2.924,2.852-3.633,3.926  c-0.458,1.623-1.809,4.457-2.952,6.775c-0.116,0.236-0.201,0.406-0.24,0.49c-0.157,0.455-0.311,0.911-0.464,1.367  c-0.353,1.049-0.719,2.133-1.121,3.195c-0.154,0.406-1.711,5.211-1.935,7.044c0,0.21-0.001,0.396-0.002,0.567  c-0.002,0.354-0.004,0.635,0.004,0.904c0.008,0.246,0.003,0.486-0.001,0.717c-0.008,0.449-0.016,0.874,0.075,1.172  c0.43,1.402,0.93,2.692,1.487,3.834c1.024,2.1,2.567,3.572,4.583,4.375c1.566,0.624,3.232,1.139,4.844,1.638  c0.721,0.223,1.442,0.446,2.159,0.679c0.042,0.012,0.279,0.062,0.488,0.107c2.276,0.486,4.772,1.117,6.032,2.102l0.298,0.458  l0.183,0.526c0,0.184-0.001,0.368-0.002,0.555c-0.002,0.412-0.004,0.832,0.004,1.251c0.009,0.434,0.028,0.868,0.047,1.302  c0.005,0.113,0.01,0.225,0.015,0.338c0.062,0.139,0.123,0.279,0.184,0.418c0.2,0.457,0.389,0.891,0.609,1.289  c0.115,0.207,0.274,0.43,0.442,0.664c0.312,0.436,0.666,0.928,0.878,1.533c0.65,1.854,1.262,3.85,1.817,5.932  c0.387,1.451,1.231,2.508,2.579,3.225c1.283,0.684,2.147,1.758,2.568,3.195l0.074,0.254c0.377,1.281,0.767,2.609,0.992,3.979  c0.51,3.078,1.701,5.646,3.645,7.85l0.118,0.133c0.986,1.119,1.835,2.084,3.138,2.416C53.341,83.56,54.487,84.876,54.562,86.685z"/>
</svg>