<?xml version="1.0" encoding="utf-8"?>
<!-- Generator: Adobe Illustrator 14.0.0, SVG Export Plug-In . SVG Version: 6.00 Build 43363)  -->
<!DOCTYPE svg PUBLIC "-//W3C//DTD SVG 1.0//EN" "http://www.w3.org/TR/2001/REC-SVG-20010904/DTD/svg10.dtd">
<svg version="1.0" id="Layer_1" xmlns="http://www.w3.org/2000/svg" xmlns:xlink="http://www.w3.org/1999/xlink" x="0px" y="0px"
	 width="100px" height="99.099px" viewBox="0 0 100 99.099" enable-background="new 0 0 100 99.099" xml:space="preserve">
<path d="M28.212,30.225c5.377-2.407,7.789-8.72,5.377-14.095c-2.407-5.378-8.73-7.786-14.107-5.378
	c-5.385,2.407-7.796,8.72-5.382,14.098C16.512,30.231,22.834,32.635,28.212,30.225z"/>
<path d="M43.494,18.484c0.595-1.024,0.253-2.333-0.778-2.939c-1.027-0.595-2.343-0.246-2.938,0.778
	c-0.603,1.02-0.25,2.339,0.767,2.935C41.579,19.853,42.898,19.507,43.494,18.484z"/>
<path d="M63.308,7.042c0.596-1.023,0.253-2.339-0.777-2.938c-1.027-0.596-2.347-0.246-2.942,0.777
	c-0.6,1.023-0.246,2.339,0.771,2.935C61.399,8.419,62.708,8.073,63.308,7.042z"/>
<path d="M56.703,10.855c0.599-1.027,0.249-2.333-0.781-2.932c-1.027-0.599-2.34-0.253-2.936,0.767
	c-0.599,1.032-0.246,2.344,0.774,2.947C54.791,12.232,56.1,11.886,56.703,10.855z"/>
<path d="M69.912,3.23c0.596-1.023,0.249-2.335-0.774-2.942c-1.03-0.592-2.347-0.243-2.945,0.781c-0.596,1.027-0.25,2.34,0.777,2.935
	C67.997,4.603,69.312,4.257,69.912,3.23z"/>
<path d="M49.688,15.174c0.874-0.802,0.938-2.154,0.135-3.031c-0.799-0.874-2.161-0.938-3.035-0.139
	c-0.881,0.802-0.938,2.161-0.139,3.031C47.456,15.913,48.814,15.977,49.688,15.174z"/>
<path d="M43.494,22.463c0.595,1.027,0.253,2.34-0.778,2.942c-1.027,0.596-2.343,0.25-2.938-0.774
	c-0.603-1.023-0.25-2.339,0.767-2.942C41.579,21.098,42.898,21.444,43.494,22.463z"/>
<path d="M56.703,30.096c0.599,1.027,0.249,2.336-0.781,2.935c-1.027,0.596-2.34,0.253-2.936-0.774
	c-0.599-1.027-0.246-2.339,0.774-2.938C54.791,28.72,56.1,29.065,56.703,30.096z"/>
<g>
	<path d="M86.234,34.312c-3.748,0-23.797,0-27.449,0c-7.563,0-14.311,6.134-14.311,13.695c0,3.855,0,30.564,0,33.146
		c0,2.59,2.029,4.697,4.611,4.697c2.589,0,4.682-2.107,4.682-4.697c0-3.003,0-29.883,0-29.883h3.873v47.829h12.571v-12.96h3.997
		v12.96h12.578V51.27h3.912c0,0,0,26.88,0,29.883c0,2.59,2.094,4.697,4.668,4.697c2.589,0,4.633-2.107,4.633-4.697
		c0-2.582,0-29.291,0-33.146C100,40.445,93.795,34.312,86.234,34.312z M63.731,39.29c-1.027,0.599-2.347,0.253-2.945-0.774
		c-0.596-1.027-0.242-2.339,0.771-2.935c1.041-0.603,2.354-0.257,2.952,0.774C65.101,37.378,64.759,38.698,63.731,39.29z
		 M70.336,43.106c-1.026,0.596-2.343,0.246-2.941-0.774c-0.596-1.031-0.25-2.347,0.777-2.943c1.026-0.596,2.343-0.25,2.941,0.777
		C71.709,41.19,71.363,42.504,70.336,43.106z"/>
</g>
<path d="M49.688,25.776c0.874,0.803,0.938,2.155,0.135,3.036c-0.799,0.87-2.161,0.934-3.035,0.139
	c-0.881-0.802-0.938-2.168-0.139-3.039C47.456,25.039,48.814,24.974,49.688,25.776z"/>
<path d="M52.045,18.74c1.031,0.589,1.381,1.897,0.796,2.935c-0.593,1.027-1.908,1.387-2.936,0.799
	c-1.034-0.584-1.383-1.9-0.802-2.928C49.699,18.512,51.015,18.156,52.045,18.74z"/>
<g>
	<path d="M72.13,9.818c-5.905,0-10.691,4.79-10.691,10.691c0,5.902,4.786,10.689,10.691,10.689c5.902,0,10.691-4.787,10.691-10.689
		C82.821,14.607,78.032,9.818,72.13,9.818z M66.812,13.459c0.596-1.031,1.904-1.391,2.938-0.799
		c1.027,0.592,1.384,1.897,0.796,2.935c-0.592,1.027-1.904,1.387-2.936,0.799C66.581,15.802,66.225,14.49,66.812,13.459z
		 M63.956,22.478c-1.03-0.592-1.384-1.908-0.802-2.935c0.595-1.034,1.907-1.391,2.941-0.799c1.031,0.588,1.384,1.894,0.788,2.931
		C66.3,22.706,64.983,23.066,63.956,22.478z M70.65,27.6c-0.593,1.031-1.904,1.388-2.936,0.803c-1.03-0.592-1.387-1.905-0.799-2.936
		c0.596-1.031,1.904-1.391,2.938-0.799C70.882,25.256,71.238,26.565,70.65,27.6z M74.516,21.675
		c-0.592,1.031-1.904,1.391-2.935,0.803c-1.034-0.592-1.384-1.908-0.799-2.932c0.596-1.038,1.908-1.395,2.938-0.802
		C74.744,19.333,75.111,20.645,74.516,21.675z"/>
</g>
<path d="M58.461,18.512c1.159,0.257,1.89,1.395,1.637,2.561c-0.257,1.152-1.405,1.89-2.564,1.637
	c-1.158-0.256-1.89-1.409-1.637-2.561C56.164,18.986,57.306,18.252,58.461,18.512z"/>
<path d="M61.485,27.168c1.155,0.26,1.89,1.398,1.637,2.561c-0.261,1.152-1.409,1.894-2.564,1.637
	c-1.162-0.253-1.89-1.409-1.633-2.561C59.182,27.643,60.329,26.912,61.485,27.168z"/>
<path d="M60.903,10.278c1.159,0.26,1.894,1.398,1.638,2.561c-0.257,1.155-1.405,1.894-2.564,1.637
	c-1.159-0.253-1.887-1.405-1.637-2.557C58.604,10.752,59.748,10.021,60.903,10.278z"/>
<path d="M26.868,60.525c0.767,1.419,2.257,2.368,4.005,2.368c1.976,0,3.677-1.178,4.358-2.914l8.135-23.874
	c0.831-2.436-0.475-5.079-2.907-5.91c-2.443-0.831-5.082,0.478-5.909,2.91l-4.661,13.706l-5.049-9.045
	c-1.195-1.879-3.017-3.381-5.292-4.144c-5.264-1.758-10.952,1.081-12.71,6.341l-6.102,18.26C0.289,59.333,0,61.303,0,62.337v36.762
	h18.259V69.013l5.021-14.93L26.868,60.525z"/>
</svg>
