<svg xmlns="http://www.w3.org/2000/svg" xmlns:xlink="http://www.w3.org/1999/xlink" version="1.1" x="0px" y="0px" width="100px" height="100px" viewBox="0 0 100 100" enable-background="new 0 0 100 100" xml:space="preserve">
<g id="Captions">
</g>
<g id="Layer_7" display="none">
</g>
<g id="Your_Icon">
	<polygon points="85.982,15.043 14.018,15.043 41.006,42.031 41.006,84.957 58.996,72.963 58.996,42.031  "/>
</g>
<g id="Layer_6" display="none">
	<path display="inline" d="M76.592,85.935l-11.32-17.052l7.006-6.496V15.922c0-1.024-0.832-1.856-1.859-1.856H29.314   c-1.027,0-1.861,0.832-1.861,1.856v46.465l7.17,6.644L23.408,85.935h6.404l8.775-13.227l0.07,0.064h22.414l0.238-0.221   l8.875,13.383H76.592z M62.004,64.233c-2.355,0-4.266-1.907-4.266-4.27c0-2.356,1.91-4.266,4.266-4.266   c2.357,0,4.27,1.909,4.27,4.266C66.273,62.326,64.361,64.233,62.004,64.233z M43.463,17.634h12.805v4.406H43.463V17.634z    M33.859,26.169h32.012V45.38H33.859V26.169z M38.525,64.233c-2.357,0-4.268-1.907-4.268-4.27c0-2.356,1.91-4.266,4.268-4.266   c2.359,0,4.271,1.909,4.271,4.266C42.797,62.326,40.885,64.233,38.525,64.233z"/>
</g>
<g id="Layer_5" display="none">
	<path display="inline" d="M77.845,26.948c-6.625-7.896-16.55-12.932-27.689-12.932c-19.975,0-36.138,16.107-36.138,35.984h14.395   c0-11.961,9.765-21.691,21.786-21.691c7.191,0,13.567,3.501,17.538,8.867l-8.464,8.088l26.71-0.012V18.667L77.845,26.948z"/>
	<path display="inline" d="M49.799,71.687c-7.193,0-13.565-3.5-17.539-8.867l8.464-8.086l-26.706,0.012V81.33l8.134-8.281   c6.625,7.896,16.551,12.935,27.69,12.935c19.978,0,36.141-16.11,36.141-35.986H71.584C71.584,61.956,61.819,71.687,49.799,71.687z"/>
</g>
<g id="Layer_4" display="none">
	<polygon display="inline" points="32.01,14.02 67.99,50.002 32.01,85.98  "/>
</g>
</svg>