<svg xmlns="http://www.w3.org/2000/svg" xmlns:xlink="http://www.w3.org/1999/xlink" version="1.1" x="0px" y="0px" width="100px" height="100px" viewBox="0 0 100 100" enable-background="new 0 0 100 100" xml:space="preserve">
<g id="&#1057;&#1083;&#1086;&#1081;_1">
</g>
<g id="&#1057;&#1083;&#1086;&#1081;_2">
	<g>
		<path d="M81.967,73.9h-9.92l1.821-1.821c2.156,0.28,4.389,0.421,6.699,0.421v-2.8c-11.535,0-21.008-3.712-28.157-11.032    c-9.556-9.786-13.126-24.137-14.458-33.974l0.204-0.204l-0.268-0.268c-0.796-6.115-0.726-10.379-0.723-10.488l-2.799-0.068    c-0.011,0.434-0.078,4.393,0.59,10.064l-1.99,1.99V10.9h-2.8v63h-12.8v2.8h12.8v11.4h2.8V76.7h49V73.9z M68.087,73.9h-4.441    l3.295-3.295c1.155,0.346,2.338,0.643,3.547,0.894L68.087,73.9z M61.372,68.474c0.854,0.405,1.723,0.784,2.613,1.128l-4.009,4.009    l0.29,0.29h-4.32L61.372,68.474z M51.987,73.9h-4.441l8.506-8.506c0.883,0.613,1.789,1.187,2.72,1.721L51.987,73.9z     M53.789,63.698l-9.912,9.912l0.29,0.29h-5.02l12.282-12.282C52.193,62.348,52.979,63.041,53.789,63.698z M39.923,43.964    l-6.956,6.956V45.9l0.29,0.29l5.465-5.465C39.089,41.802,39.491,42.884,39.923,43.964z M32.967,42.52V38.08l3.866-3.866    c0.28,1.15,0.593,2.319,0.94,3.501L32.967,42.52z M32.967,54.3l0.29,0.29l7.853-7.853c0.457,0.999,0.944,1.993,1.464,2.976    l-9.607,9.607V54.3z M32.967,63.28l11.035-11.035c0.549,0.913,1.133,1.811,1.746,2.695L32.967,67.72V63.28z M35.436,27.211    c0.19,1.21,0.412,2.467,0.674,3.767l-3.143,3.143V29.68L35.436,27.211z M32.967,71.68l14.458-14.458    c0.647,0.82,1.335,1.614,2.047,2.394L35.187,73.9h-2.22V71.68z"/>
		<path d="M52.567,51.376c0.392-0.196,0.794-0.496,1.207-0.901c0.413-0.405,0.801-0.935,1.166-1.591    c0.364-0.656,0.622-1.479,0.777-2.471l1.344-8.52h2.331c0.211-0.364,0.28-0.729,0.211-1.092h-2.331l0.209-1.05    c0.154-0.727,0.316-1.302,0.484-1.723c0.167-0.42,0.346-0.745,0.535-0.976c0.189-0.231,0.388-0.388,0.599-0.472    c0.211-0.085,0.442-0.161,0.693-0.231l1.596,1.302c0.28-0.238,0.48-0.521,0.599-0.85c0.119-0.329,0.193-0.648,0.22-0.956    c-0.224-0.112-0.5-0.196-0.829-0.252c-0.329-0.056-0.614-0.085-0.852-0.085c-0.574,0-1.113,0.063-1.616,0.19    c-0.504,0.126-0.967,0.353-1.386,0.682c-0.42,0.328-0.787,0.777-1.102,1.344c-0.316,0.566-0.565,1.284-0.746,2.152l-0.146,0.736    c-0.28,0.072-0.578,0.17-0.893,0.293s-0.612,0.265-0.893,0.424v0.565h1.533l-1.364,8.918c-0.112,0.699-0.269,1.308-0.473,1.832    c-0.202,0.524-0.42,0.967-0.651,1.33c-0.231,0.362-0.465,0.652-0.703,0.868s-0.442,0.366-0.61,0.45l0.19,0.461    C51.874,51.697,52.174,51.571,52.567,51.376z"/>
		<path d="M60.085,44.843c0,1.288,0.256,2.495,0.767,3.622c0.51,1.128,1.367,2.209,2.572,3.246l0.61-0.421    c-0.827-1.008-1.393-2.062-1.702-3.16c-0.308-1.099-0.454-2.279-0.44-3.538c-0.014-1.317,0.164-2.555,0.536-3.717    c0.371-1.162,0.85-2.23,1.438-3.203c0.588-0.972,1.239-1.858,1.952-2.656c0.714-0.797,1.414-1.49,2.1-2.078l-0.357-0.379    c-0.839,0.533-1.701,1.18-2.583,1.943c-0.882,0.763-1.684,1.649-2.405,2.656c-0.721,1.008-1.317,2.149-1.784,3.423    C60.319,41.854,60.085,43.275,60.085,44.843z"/>
		<path d="M67.204,37.451v0.525l1.344,0.168l1.427,3.864c-0.224,0.197-0.561,0.494-1.008,0.893    c-0.448,0.399-0.911,0.844-1.386,1.333c-0.476,0.491-0.911,0.995-1.302,1.512c-0.392,0.518-0.651,0.987-0.778,1.407    c0.309,0.182,0.693,0.273,1.155,0.273c0.224,0,0.458-0.021,0.704-0.063c0.245-0.042,0.485-0.112,0.725-0.211    c-0.015-0.083-0.022-0.213-0.022-0.388c0-0.175,0.004-0.364,0.011-0.566c0.007-0.204,0.014-0.396,0.021-0.578    c0.007-0.182,0.025-0.321,0.053-0.42c0.097-0.182,0.231-0.377,0.399-0.588c0.167-0.211,0.349-0.42,0.546-0.63    c0.196-0.209,0.395-0.413,0.599-0.608c0.202-0.197,0.381-0.379,0.535-0.547l1.155,3.801c0.071,0.224,0.185,0.414,0.34,0.567    c0.156,0.154,0.383,0.231,0.682,0.231c0.183,0,0.386-0.027,0.606-0.083c0.22-0.056,0.425-0.126,0.617-0.211    c0.193-0.083,0.369-0.168,0.533-0.252c0.163-0.085,0.287-0.154,0.372-0.211v-0.525l-1.364-0.168l-1.512-4.095    c0.139-0.126,0.332-0.297,0.577-0.514c0.245-0.217,0.507-0.462,0.787-0.736c0.28-0.272,0.57-0.567,0.872-0.882    c0.301-0.314,0.584-0.633,0.85-0.956c0.265-0.321,0.496-0.644,0.693-0.965c0.196-0.323,0.335-0.623,0.42-0.904    c-0.338-0.182-0.73-0.273-1.179-0.273c-0.239,0-0.474,0.025-0.705,0.074c-0.232,0.049-0.468,0.116-0.705,0.2    c0.014,0.085,0.029,0.213,0.042,0.388c0.014,0.175,0.027,0.365,0.042,0.567c0.014,0.204,0.021,0.395,0.021,0.577    c0,0.183-0.007,0.323-0.021,0.421c-0.197,0.364-0.487,0.749-0.872,1.154c-0.386,0.407-0.738,0.771-1.06,1.092l-1.029-3.653    c-0.085-0.211-0.198-0.396-0.34-0.558c-0.141-0.16-0.368-0.241-0.679-0.241c-0.198,0-0.403,0.027-0.615,0.083    c-0.213,0.056-0.421,0.126-0.628,0.211c-0.205,0.083-0.39,0.171-0.552,0.263C67.412,37.322,67.287,37.395,67.204,37.451z"/>
		<path d="M79.458,36.127c0.16,0.504,0.272,1.016,0.335,1.534c0.063,0.518,0.096,1.077,0.096,1.68c0,1.4-0.2,2.715-0.599,3.947    c-0.399,1.232-0.897,2.356-1.492,3.371c-0.595,1.014-1.246,1.914-1.952,2.697c-0.707,0.785-1.369,1.429-1.985,1.932l0.42,0.421    c0.897-0.518,1.781-1.173,2.656-1.965c0.875-0.79,1.662-1.697,2.363-2.719c0.7-1.021,1.267-2.159,1.702-3.412    c0.433-1.252,0.651-2.607,0.651-4.063c0-1.315-0.262-2.537-0.787-3.664s-1.39-2.237-2.594-3.329l-0.547,0.379    c0.435,0.588,0.792,1.14,1.072,1.658S79.297,35.624,79.458,36.127z"/>
	</g>
</g>
</svg>