<svg xmlns="http://www.w3.org/2000/svg" xmlns:xlink="http://www.w3.org/1999/xlink" version="1.1" id="Your_Icon" x="0px" y="0px" width="100px" height="100px" viewBox="0 0 100 100" enable-background="new 0 0 100 100" xml:space="preserve">
<g>
	<line fill="none" x1="-3319.667" y1="1861.604" x2="-3319.667" y2="1844.477"/>
	<path d="M-3319.667,1864.604c-1.657,0-3-1.343-3-3v-17.128c0-1.657,1.343-3,3-3s3,1.343,3,3v17.128   C-3316.667,1863.262-3318.01,1864.604-3319.667,1864.604z"/>
</g>
<g>
	<line fill="none" x1="-3301.486" y1="1861.604" x2="-3301.486" y2="1829.382"/>
	<path d="M-3301.486,1864.604c-1.657,0-3-1.343-3-3v-32.223c0-1.657,1.343-3,3-3s3,1.343,3,3v32.223   C-3298.486,1863.262-3299.829,1864.604-3301.486,1864.604z"/>
</g>
<g>
	<line fill="none" x1="-3283.305" y1="1861.604" x2="-3283.305" y2="1813.125"/>
</g>
<g>
	<g>
		<g>
			<path d="M-3256.098,1846.671c-1.657,0-3-1.343-3-3v-9.441c0-1.657,1.343-3,3-3s3,1.343,3,3v9.441     C-3253.098,1845.328-3254.441,1846.671-3256.098,1846.671z"/>
		</g>
		<g>
			<path d="M-3256.1,1854.95c-0.79,0-1.56-0.32-2.12-0.881c-0.56-0.56-0.88-1.329-0.88-2.119s0.32-1.561,0.88-2.12     c1.11-1.12,3.13-1.12,4.24,0c0.56,0.55,0.88,1.33,0.88,2.12s-0.32,1.56-0.88,2.119     C-3254.54,1854.63-3255.31,1854.95-3256.1,1854.95z"/>
		</g>
	</g>
</g>
<g>
	<line fill="none" x1="-3265.124" y1="1829.382" x2="-3265.124" y2="1797.74"/>
</g>
<g>
	<line fill="none" x1="-3246.943" y1="1830.405" x2="-3246.943" y2="1782.354"/>
	<path fill="#000000" d="M-3227.54,1860.34l-16.4-30.68v-47.31c0-1.65-1.35-3-3-3c-1.66,0-3,1.35-3,3v36.09l-3.51-6.57   c-0.52-0.98-1.54-1.59-2.65-1.59s-2.12,0.61-2.64,1.59l-3.38,6.32v-20.45c0-1.66-1.35-3-3-3c-1.66,0-3,1.34-3,3v31.67l-12.18,22.78   v-39.07c0-1.65-1.35-3-3-3c-1.66,0-3,1.35-3,3v48.48c0,1.66,1.34,3,3,3c0.1,0,0.2-0.01,0.3-0.02c0.31,0.11,0.65,0.17,0.99,0.17   h51.83c1.05,0,2.03-0.55,2.57-1.46C-3227.07,1862.39-3227.04,1861.27-3227.54,1860.34z M-3277.01,1858.75l20.91-39.11l6.5,12.16   c0.01,0.02,0.03,0.05,0.04,0.07l14.37,26.88H-3277.01z"/>
</g>
<g>
	<g>
		<g>
			<path fill="#000000" d="M75.629,84.776c-0.335-0.089-0.648-0.228-0.939-0.417C74.981,84.538,75.294,84.667,75.629,84.776z"/>
		</g>
		<g>
			<path fill="#000000" d="M93.737,71.229L80.142,83.723l-0.097,0.089c-0.097,0.089-0.194,0.179-0.302,0.268h-0.011     c-0.443,0.328-0.939,0.576-1.479,0.725c-0.41,0.119-0.831,0.179-1.263,0.179c-0.292,0-0.583-0.03-0.864-0.079     c-0.173-0.03-0.335-0.079-0.497-0.129c-0.335-0.109-0.648-0.238-0.939-0.417c-0.151-0.079-0.292-0.179-0.432-0.278     c0,0,0,0-0.011,0c-0.108-0.089-0.205-0.179-0.302-0.268l-0.194-0.179L60.253,71.229c-1.684-1.549-1.684-4.072,0-5.622     c1.684-1.549,4.427-1.549,6.112,0l6.306,5.81V38.682c0-2.185,1.944-3.973,4.319-3.973c2.386,0,4.319,1.788,4.319,3.973v32.736     l6.317-5.81c1.684-1.549,4.427-1.549,6.112,0C95.421,67.157,95.421,69.68,93.737,71.229z"/>
		</g>
	</g>
	<g>
		<path fill="#000000" d="M63.308,22.961H9.319C6.934,22.961,5,21.182,5,18.988s1.934-3.973,4.319-3.973h53.989    c2.385,0,4.319,1.779,4.319,3.973S65.693,22.961,63.308,22.961z"/>
	</g>
	<g>
		<path fill="#000000" d="M52.51,42.659H9.319C6.934,42.659,5,40.881,5,38.687s1.934-3.973,4.319-3.973H52.51    c2.385,0,4.319,1.779,4.319,3.973S54.895,42.659,52.51,42.659z"/>
	</g>
	<g>
		<path fill="#000000" d="M41.712,62.358H9.319C6.934,62.358,5,60.579,5,58.385c0-2.194,1.934-3.973,4.319-3.973h32.393    c2.385,0,4.319,1.779,4.319,3.973C46.032,60.579,44.098,62.358,41.712,62.358z"/>
	</g>
	<g>
		<path fill="#000000" d="M30.915,82.056H9.319C6.934,82.056,5,80.277,5,78.083s1.934-3.973,4.319-3.973h21.596    c2.385,0,4.319,1.779,4.319,3.973S33.3,82.056,30.915,82.056z"/>
	</g>
</g>
</svg>