<svg xmlns="http://www.w3.org/2000/svg" xmlns:xlink="http://www.w3.org/1999/xlink" version="1.1" id="Layer_1" x="0px" y="0px" width="100px" height="100px" viewBox="0 0 100 100" enable-background="new 0 0 100 100" xml:space="preserve">
<path d="M83.025,15.207c2.319-6.314,14.131-4.391,14.131-4.391c-6.904-3.476-14.748-2.606-20.979,1.825  c-8.2,5.833-12.682,19.122-17.665,19.305c-2.773,0.101-9.774,0.449-14.028-9.985c-4.253-10.433-13.321-14.3-16.683-15.809  c2.607-1.44-0.754-6.449-4.116-3.361c-1.166-3.156-6.174-2.195-6.379,1.921c-3.019-2.195-6.448,1.852-4.162,5.008  c-1.463-0.366-7.043,1.349-8.872,7.203c0,0,7.449-3.534,10.221-1.715c4.39,2.881,6.281,6.517,5.774,12.146  c-0.367,4.083-4.062,7.13-3.511,15.5c0.686,10.426,3.773,12.622,7.271,16.189c4.078,4.159,10.956,6.203,19.256,7.181  c-1.262,1.819-3.185,5.775-1.896,7.732c0.26,0.395,1.022,0.729,2.021,0.982c0.121,3.763,0.351,18.085-3.36,14.11  c-3.231-3.46-5.733-4.097-7.615-2.858c-2.216,1.459-2.094,5.809-2.094,5.809s1.905-4.16,4.24-4.734  c2.107-0.519,4.622,1.801,4.457,2.365c-0.155,0.529-4.855,0.051-5.983,1.464c-1.106,1.388-1.364,4.413-1.364,4.413  c1.921-2.926,4.083-4.165,5.701-4.67c2.256-0.701,2.543,0.31,3.434,0.851c0.44,0.268-1.113-0.741-3.211,0.428  c-1.576,0.88-2.385,1.886-2.984,4.31c0,0,1.853-2.167,3.962-3.48c1.292-0.805,5.865-0.479,6.961-0.389  c-0.152,1.358-0.009,2.531-0.009,2.531s0.346-0.991,0.952-2.11c0.36,0.265,0.842,0.7,1.416,1.413  c-0.714,1.573-0.691,4.061-0.691,4.061c1.633-3.096,3.667-4.535,5.231-5.19c2.178-0.914,2.561,0.063,3.498,0.518  c0.463,0.226-1.179-0.632-3.156,0.732c-1.484,1.024-2.194,2.104-2.56,4.573c0,0,1.638-2.333,3.612-3.842  c1.377-1.053,7.135-1.053,7.135-1.053s1.148,0.184,3.012,2.41c1.582,1.891-1.801-6.146-4.027-4.326l2.201-15.67  c1.23-0.056,2.254-0.213,2.747-0.478c1.784-0.961,2.47-7.05,1.235-10.479c8.231,0.551,9.878-5.211,7.682-9.277  c5.488,3.243,10.977-4.989,8.781-9.056c8.096-7.184,2.538-17.081,2.538-17.081c0.413-6.86,7.272-8.713,7.272-8.713  C88.17,19.46,83.3,21.656,83.3,21.656c2.126-5.763,11.662-4.254,11.662-4.254C92.424,13.629,88.376,12.943,83.025,15.207z   M48.429,93.628c-0.279-0.669-0.653-1.398-1.083-1.999c0.555-0.749,1.218-1.398,1.967-1.66c2.049-0.717,4.773,1.352,4.662,1.93  C53.879,92.401,49.802,92.415,48.429,93.628z M54.928,91.225c-3.546-3.138-6.098-3.533-7.853-2.12  c-0.441,0.355-0.759,0.835-0.993,1.364c-0.366-0.155-0.743-0.146-1.115,0.103l3.618-15.109c1.541-0.044,2.848-0.284,3.309-0.782  c0.826-0.894,1.434-2.092,1.874-3.355c-0.244,1.42-0.443,2.828-0.104,3.564c0.292,0.634,1.578,1.09,3.187,1.378  C57.172,78.628,59.271,95.066,54.928,91.225z"/>
</svg>