<svg xmlns:dc="http://purl.org/dc/elements/1.1/" xmlns:cc="http://creativecommons.org/ns#" xmlns:rdf="http://www.w3.org/1999/02/22-rdf-syntax-ns#" xmlns:svg="http://www.w3.org/2000/svg" xmlns="http://www.w3.org/2000/svg" xmlns:sodipodi="http://sodipodi.sourceforge.net/DTD/sodipodi-0.dtd" xmlns:inkscape="http://www.inkscape.org/namespaces/inkscape" width="100" height="100" viewBox="0 0 80 80" version="1.1" id="svg2" inkscape:version="0.48.2 r9819" sodipodi:docname="up.svg">
  <metadata id="metadata68">
    <rdf:RDF>
      <cc:Work rdf:about="">
        <dc:format>image/svg+xml</dc:format>
        <dc:type rdf:resource="http://purl.org/dc/dcmitype/StillImage"/>
        <dc:title/>
      </cc:Work>
    </rdf:RDF>
  </metadata>
  <defs id="defs66"/>
  <sodipodi:namedview pagecolor="#ffffff" bordercolor="#666666" borderopacity="1" objecttolerance="10" gridtolerance="10" guidetolerance="10" inkscape:pageopacity="0" inkscape:pageshadow="2" inkscape:window-width="1102" inkscape:window-height="683" id="namedview64" showgrid="false" inkscape:zoom="3.4176451" inkscape:cx="76.961906" inkscape:cy="48.396056" inkscape:window-x="48" inkscape:window-y="57" inkscape:window-maximized="0" inkscape:current-layer="svg2"/>
  <g id="g3045" transform="matrix(0,-0.06085315,0.06085315,0,1.992729,78.25463)">
    <path id="path4" d="m 629.3,1.5 c 6.6,-0.6 13.2,-0.1 19.8,-0.3 5.2,-0.2 10.3,3.3 12.1,8.3 1.4,5.8 -3.5,11.4 -9.2,11.9 -5.1,0.4 -9.9,-2.1 -15,-1.4 -4.3,0.5 -9.3,-0.4 -11.8,-4.3 -3.5,-4.7 -1.3,-12.1 4.1,-14.2 z" inkscape:connector-curvature="0" style="fill:#000000;stroke:#000000;stroke-width:0.09375"/>
    <path id="path6" d="m 589.5,2.9 c 4.9,-0.7 11.1,-1.4 14.5,3 1.6,2.9 3.4,6.5 1.5,9.6 -1,2.2 -2.7,4.1 -5,4.9 -5.3,2.1 -11.1,2.1 -16.6,3.2 -4.2,0 -9.2,1.3 -12.5,-2 -5.1,-4.3 -3,-13.7 3.3,-15.7 4.8,-1.6 9.8,-2 14.8,-3 z" inkscape:connector-curvature="0" style="fill:#000000;stroke:#000000;stroke-width:0.09375"/>
    <path id="path8" d="m 684.7,8.9 c 2.9,-0.6 6,-0.2 8.8,0.6 5.6,1.5 11.2,3.2 16.5,5.5 3.5,1.5 5.3,5.4 5.2,9 0.2,3.9 -3.2,6.7 -6.2,8.4 -6.7,1.3 -12.7,-2.1 -19,-3.6 -3.3,-0.9 -7.1,-1.7 -9.3,-4.6 -4.1,-4.7 -2.1,-13.2 4,-15.3 z" inkscape:connector-curvature="0" style="fill:#000000;stroke:#000000;stroke-width:0.09375"/>
    <path id="path10" d="m 539.4,15.4 c 6,-2.4 12.7,2.5 13.2,8.7 0,3.9 -2.4,7.7 -6.1,9.1 -5.8,2.6 -11.9,4.8 -17.7,7.4 -3.2,1.7 -7,0.4 -9.5,-1.9 -4.1,-3.3 -4.3,-10.4 -0.7,-14.1 6.4,-4.1 13.8,-6.3 20.8,-9.2 z" inkscape:connector-curvature="0" style="fill:#000000;stroke:#000000;stroke-width:0.09375"/>
    <path id="path12" d="m 735.7,28.9 c 7.2,-1.9 13.1,3.2 19,6.5 3.6,2.1 8.1,3.9 9.7,8.1 2.3,5 -1.3,11.5 -6.4,12.8 -6.5,1.2 -11.6,-3.7 -16.9,-6.3 -4.6,-2.5 -10.7,-5.1 -11.2,-11 -1,-4.4 2.4,-8 5.8,-10.1 z" inkscape:connector-curvature="0" style="fill:#000000;stroke:#000000;stroke-width:0.09375"/>
    <path id="path14" d="m 488.5,40.7 c 4.2,-1.7 10.2,-1.2 12.7,3 1.8,2.3 1.5,5.4 1.2,8 -1.2,4.1 -4.9,6.4 -8.3,8.4 -4.2,2.6 -7.7,6.4 -12.3,8.4 -3.5,0.4 -7.7,1 -10.4,-1.9 -3,-2.3 -3.3,-6.4 -2.4,-9.8 1.6,-4.4 5.9,-6.6 9.4,-9.4 3.3,-2.3 6.4,-4.9 10.1,-6.7 z" inkscape:connector-curvature="0" style="fill:#000000;stroke:#000000;stroke-width:0.09375"/>
    <path id="path16" d="m 780.4,60.4 c 3.6,-0.9 8,-1.2 11,1.4 5.1,3.8 9.5,8.4 14,12.8 2,2 3.1,4.7 3.3,7.4 -0.9,5 -5.4,9.2 -10.5,9.4 -5.7,-1.5 -9.7,-5.9 -13.7,-9.9 -2.7,-2.9 -6.5,-5 -8.2,-8.8 -2,-4.3 0.1,-9.8 4.1,-12.3 z" inkscape:connector-curvature="0" style="fill:#000000;stroke:#000000;stroke-width:0.09375"/>
    <path id="path18" d="m 449.3,74.3 c 6.2,-0.6 11.7,5.5 10.7,11.6 -1.9,5.4 -7,8.5 -10.2,13 -2.8,4.1 -6.8,7.9 -11.9,8.7 -3.8,-0.3 -7.2,-2.9 -9,-6.2 -0.4,-2.2 -0.4,-4.6 0,-6.8 1.7,-4.3 5.7,-6.9 8.2,-10.6 3.4,-3.8 6.7,-8.9 12.2,-9.7 z" inkscape:connector-curvature="0" style="fill:#000000;stroke:#000000;stroke-width:0.09375"/>
    <path id="path20" d="m 819.3,100.4 c 4.4,-1.6 9.5,0.4 12,4.2 3.6,5.3 7.9,10.2 10.9,15.8 0.6,3.6 1.1,8.1 -2,10.8 -2.6,3.2 -7.1,2.9 -10.7,2.2 -4.2,-2.5 -6.3,-7 -9.1,-10.8 -2.3,-3.3 -5.2,-6.2 -6.6,-10.1 -2.2,-4.5 0.8,-10.7 5.5,-12.1 z" inkscape:connector-curvature="0" style="fill:#000000;stroke:#000000;stroke-width:0.09375"/>
    <path id="path22" d="m 414.6,117.7 c 5.4,-1.1 10.2,4 11.7,8.8 0.2,3.4 -2.2,6.4 -3.6,9.3 -2.5,4 -4.5,8.1 -6.8,12.1 -2.4,4.7 -9.1,7.1 -13.6,3.7 -2.6,-1.9 -5.2,-5 -4.8,-8.5 1.2,-6.2 5.1,-11.2 8,-16.7 2.1,-3.7 5,-7.2 9.1,-8.7 z" inkscape:connector-curvature="0" style="fill:#000000;stroke:#000000;stroke-width:0.09375"/>
    <path id="path24" d="m 847.5,147.7 c 5.1,-1.5 10.5,1.5 12.5,6.2 2.3,5.6 4.6,11.1 6.4,16.9 2.9,5.8 -3,13.7 -9.4,13 -2.6,0.2 -4.8,-1.5 -6.6,-3.2 -3.6,-5.2 -4.8,-11.5 -7.6,-17.1 -1.7,-3.1 -2.1,-6.7 -1.1,-10.1 1.1,-2.5 3.3,-4.5 5.8,-5.7 z" inkscape:connector-curvature="0" style="fill:#000000;stroke:#000000;stroke-width:0.09375"/>
    <path id="path26" d="m 391.8,167.8 c 6,-0.7 12.6,5.6 10.6,11.9 -2.1,6.3 -3.6,12.8 -5.8,19 -1.6,6.1 -10.6,8.2 -15,3.7 -5.2,-4.2 -2.6,-11.7 -1.3,-17.2 2,-6.6 3.3,-15.9 11.5,-17.4 z" inkscape:connector-curvature="0" style="fill:#000000;stroke:#000000;stroke-width:0.09375"/>
    <path id="path28" d="m 864.4,200.5 c 4.2,-1.4 9.4,0.8 11,5 2.8,6.8 3.4,14.3 3.8,21.5 0,3.2 -0.7,6.7 -3.6,8.4 -5,4.7 -14.6,1.3 -15.3,-5.6 -0.8,-6 -1.8,-11.9 -2.8,-17.9 -1,-4.8 1.9,-10.4 6.9,-11.4 z" inkscape:connector-curvature="0" style="fill:#000000;stroke:#000000;stroke-width:0.09375"/>
    <path id="path30" d="m 381.3,221.8 c 4.6,-0.2 8.3,3.8 9.8,7.9 1.2,5.1 -1.5,10.1 -1.1,15.3 0.4,4.3 0,9.3 -3.5,12.4 -2.6,1.5 -5.8,2.8 -8.7,1.7 -5.3,-1 -7.6,-7 -7.2,-11.8 0.7,-4.1 0.8,-8.2 0.7,-12.3 -0.1,-3.7 0.4,-7.9 3.3,-10.4 1.8,-1.7 4.3,-2.4 6.7,-2.8 z" inkscape:connector-curvature="0" style="fill:#000000;stroke:#000000;stroke-width:0.09375"/>
    <path id="path32" d="m 868.5,255.6 c 5,-1.9 11.1,2.1 12.1,7.2 1.9,4.7 -0.9,9.4 -0.6,14.2 0.2,4.5 -0.1,9.3 -3.1,13 -4.3,4.3 -12.7,3.4 -15.6,-2.1 -2.8,-4.3 -0.5,-9.3 -0.1,-13.9 0.5,-4.7 -1,-9.9 1.8,-14.2 0.9,-2.3 3.3,-3.3 5.5,-4.2 z" inkscape:connector-curvature="0" style="fill:#000000;stroke:#000000;stroke-width:0.09375"/>
    <path id="path34" d="m 380.3,270.5 c 5.4,-0.5 10.6,4.2 10.9,9.6 0.5,6.1 1.8,12 2.5,18 0.4,3.8 -2.5,6.9 -5.3,9.1 -4.2,0.9 -9.7,0.9 -12.3,-3.2 -3.4,-6.3 -2.9,-13.8 -4.2,-20.7 -1.5,-5.6 2.4,-12.2 8.4,-12.8 z" inkscape:connector-curvature="0" style="fill:#000000;stroke:#000000;stroke-width:0.09375"/>
    <path id="path36" d="m 859.4,310.5 c 5.5,-2.4 12.4,1.7 13.1,7.6 0.6,4.2 -1.4,8 -2.4,12 -1.4,4.4 -2.3,9.1 -5,12.9 -4.2,5.8 -14.9,4.1 -16.8,-2.9 -1.7,-3 0.1,-6 1,-8.9 1.7,-4.6 2.7,-9.4 4.3,-14.1 0.8,-2.9 3.1,-5.2 5.8,-6.6 z" inkscape:connector-curvature="0" style="fill:#000000;stroke:#000000;stroke-width:0.09375"/>
    <path id="path38" d="m 389.3,325.3 c 3.3,-0.8 7.4,-1 9.9,1.6 3.3,2.6 3.9,6.9 5.3,10.5 1.6,4.8 4.8,9.3 4.3,14.6 0.4,5.2 -4.9,9 -9.6,9.3 -2.5,-0.7 -5.1,-1.7 -7,-3.5 -2.2,-3 -3.1,-6.8 -4.6,-10.3 -2,-5.3 -5.1,-10.9 -3.7,-16.8 1.2,-2.2 2.8,-4.6 5.4,-5.4 z" inkscape:connector-curvature="0" style="fill:#000000;stroke:#000000;stroke-width:0.09375"/>
    <path id="path40" d="m 839.4,361.5 c 3.2,-0.6 6.8,-0.5 9.4,1.7 2.8,2.4 4.8,6.4 3.3,10 -2.4,5.7 -5.6,11 -8.8,16.2 -1.8,2.5 -3.9,4.8 -6.4,6.4 -6.4,2.8 -14.5,-3.4 -13.2,-10.3 1.2,-4.1 3.8,-7.4 5.8,-11.1 2.7,-4.6 5.1,-10 9.9,-12.9 z" inkscape:connector-curvature="0" style="fill:#000000;stroke:#000000;stroke-width:0.09375"/>
    <path id="path42" d="m 406.6,384 c 0.6,-3.7 2.6,-7.9 6.6,-8.8 3,-0.5 6.8,-1 9.2,1.5 3.1,2.7 4.8,6.5 7.1,9.8 2.1,3.4 5.2,6.2 6.5,10.1 0.6,2.2 0.2,4.5 0.4,6.7 -2.8,2.3 -5.3,5.9 -9.4,5.5 -5.5,0.4 -9,-4.9 -11.8,-8.9 -3.1,-5.2 -7.7,-9.8 -8.6,-15.9 z" inkscape:connector-curvature="0" style="fill:#000000;stroke:#000000;stroke-width:0.09375"/>
    <path id="path44" d="m 809.5,406.7 c 5.9,-1.6 11.7,4.4 11.9,10.1 -1.8,6.9 -7.8,11.2 -12.4,16.2 -2.6,2.4 -4.8,5.8 -8.6,6.3 -6.7,1.7 -13.1,-6.1 -10.5,-12.4 2.3,-5.3 6.8,-9.2 10.8,-13.3 2.6,-2.6 5,-5.9 8.8,-6.9 z" inkscape:connector-curvature="0" style="fill:#000000;stroke:#000000;stroke-width:0.09375"/>
    <path id="path46" d="m 450.3,418 c 6.4,0.4 10.4,5.9 14.7,10 3.2,3.4 7.9,6.1 8.7,11.1 1.2,6.6 -6.2,12.1 -12.3,10.5 -6.9,-3.3 -11.8,-9.5 -17.3,-14.8 -3.2,-2.8 -3.5,-7.4 -2.4,-11.2 1.2,-3.7 5.3,-4.7 8.6,-5.6 z" inkscape:connector-curvature="0" style="fill:#000000;stroke:#000000;stroke-width:0.09375"/>
    <path id="path48" d="m 768.8,443.9 c 5.8,-1.1 12,4 11.4,10.1 0.1,6.6 -6.7,9.5 -11.1,12.9 -4.8,3 -9.6,7.9 -15.8,6.7 -2.9,-1 -5.5,-3.1 -6.7,-6 -0.6,-2.4 -0.6,-4.9 0,-7.2 1.6,-3.6 5.3,-5.5 8.5,-7.5 4.7,-2.7 8.6,-6.9 13.7,-9 z" inkscape:connector-curvature="0" style="fill:#000000;stroke:#000000;stroke-width:0.09375"/>
    <path id="path50" d="m 491.3,453 c 1.2,-0.6 2.3,-0.6 3.5,-0.2 5.7,2.1 10.4,6 15.9,8.7 4,2 8.6,5.4 8.1,10.5 0.1,6.8 -8.3,11.9 -14.3,8.4 -6.2,-3.7 -12.8,-6.8 -18.4,-11.5 -5.1,-4.9 -1.6,-14.7 5.2,-15.9 z" inkscape:connector-curvature="0" style="fill:#000000;stroke:#000000;stroke-width:0.09375"/>
    <path id="path52" d="m 721.5,471.7 c 5.5,-1.1 11.9,4.3 11.1,10.2 0.1,3 -1.5,6.1 -4.3,7.3 -6.2,3.2 -12.9,5.6 -19.5,7.9 -5.8,2.1 -13.1,-2.9 -12.6,-9.2 -0.4,-5 4.2,-8.6 8.5,-10 5.7,-1.9 11.2,-4.2 16.8,-6.2 z" inkscape:connector-curvature="0" style="fill:#000000;stroke:#000000;stroke-width:0.09375"/>
    <path id="path54" d="m 539.6,477.7 c 6.4,-1.5 12.1,2.5 18.2,3.8 4.2,1.4 9.7,2.4 11.5,7 1.1,2.5 1.2,5.5 0.1,8 -1.3,3.5 -5.1,4.9 -8.3,6 -6.7,-1.5 -13.3,-3.5 -19.7,-5.9 -2.5,-0.8 -4.8,-2.4 -6.5,-4.5 -1.8,-1.9 -1.2,-4.7 -1.3,-7.1 -0.1,-3.5 3.2,-5.8 6,-7.3 z" inkscape:connector-curvature="0" style="fill:#000000;stroke:#000000;stroke-width:0.09375"/>
    <path id="path56" d="m 666.5,487.9 c 4.7,-1.5 10.3,0.6 12.2,5.3 3.4,5.2 -0.9,12.3 -6.5,13.5 -6.4,1.7 -12.9,2 -19.4,2.8 -2.5,0 -5,-0.9 -7.2,-2.2 -5.5,-4.2 -3.9,-14.8 3.1,-16.4 5.9,-1.4 11.9,-1.8 17.8,-3 z" inkscape:connector-curvature="0" style="fill:#000000;stroke:#000000;stroke-width:0.09375"/>
    <path id="path58" d="m 593.4,490.6 c 6.1,-2.2 12.4,1 18.6,0.7 3.7,-0.3 7.6,0.7 10.3,3.3 1.5,2.6 3.2,5.7 2,8.8 -1.3,5.8 -8.3,8.6 -13.6,7.1 -6.7,-1.3 -14,0.4 -20.1,-3.3 -3.1,-1.9 -3.4,-5.9 -3.2,-9.2 -0.2,-3.5 3.2,-6 6,-7.4 z" inkscape:connector-curvature="0" style="fill:#000000;stroke:#000000;stroke-width:0.09375"/>
    <path id="path60" d="m 616.3,537.9 c 0.5,-6.8 9.7,-10.2 15,-6.1 4.6,2.7 3.4,8.7 3.6,13.2 0.2,10.3 0,20.7 0.2,31 -0.6,12 0.5,24 -0.2,36 0.3,14.7 0.1,29.3 0,44 0.7,10.7 -0.9,21.5 0.6,32.2 4.2,-3.6 7.4,-8.3 12.2,-11.3 6.3,-3 14.8,2.9 13.6,9.9 -0.3,3.2 -2.8,5.5 -4.9,7.6 -8,8 -15.9,16.1 -24,24 -2.5,2.7 -6.5,3.7 -10,2.5 -4,-1.8 -6.8,-5.4 -9.9,-8.4 -6.6,-6.7 -13.5,-13.2 -19.9,-20.1 -4.8,-4.7 -2.8,-13.7 3.7,-15.9 2.6,-0.4 5.8,-0.7 8,1.2 4.2,3.4 7.6,7.7 11.8,11 0.5,-50.2 0,-100.5 0.2,-150.8 z" inkscape:connector-curvature="0" style="fill:#000000;stroke:#000000;stroke-width:0.09375"/>
    <path id="path62" d="m 489.3,780.3 c 35.5,-22.5 76.7,-36.1 118.7,-39 11.3,0 22.7,0 34,0 3.4,-0.1 6.8,0.3 10.1,0.8 18.4,1.9 36.6,5.6 54,11.7 26,8.6 50.7,21.1 72.3,37.9 5.8,4.1 11.4,8.5 16.4,13.5 7.5,6.1 14.5,12.8 20.6,20.4 10.8,11.4 19.8,24.3 28.4,37.5 21.2,35.2 34.4,75.5 36.6,116.6 1.4,11.7 1.2,23.6 -0.2,35.3 -1.1,20.6 -5.4,41 -11.8,60.6 -5.9,16.9 -12.6,33.6 -22,48.9 -4,6.6 -7.8,13.3 -12.6,19.3 -6.3,8 -11.9,16.6 -19.3,23.7 -3.8,3.6 -6.5,8.2 -10.7,11.3 -5.6,4.2 -9.9,10 -15.6,14.2 -5.4,4 -10.8,8 -16.1,12.1 -25,18.1 -53.7,30.5 -83.4,38.4 -10.7,2.9 -21.8,4.3 -32.6,6.5 l -60.1,0 c -13.3,-2.4 -26.8,-4.3 -39.7,-8.3 -15.7,-4.4 -30.9,-10.5 -45.5,-17.6 -29.2,-14.9 -55.2,-35.6 -77,-59.9 -12.3,-14.7 -23.9,-30 -32.8,-47 -4.1,-8.6 -8.9,-16.8 -12.1,-25.8 -9.2,-23.1 -15.1,-47.6 -17.5,-72.4 -0.2,-5.7 0.1,-11.5 -0.9,-17.2 -1.4,-8.9 1.3,-17.8 0.8,-26.8 3.1,-40.3 16.5,-79.7 37.8,-114 5.3,-8.9 11.9,-16.7 17.9,-25.1 3.9,-5.6 9.5,-9.9 13.6,-15.4 3.2,-4 7,-7.6 11.1,-10.8 4.6,-3.6 8.2,-8.4 13.1,-11.8 8.1,-5.9 16,-12.2 24.5,-17.6 m 122.2,-19.7 c -5.2,1.3 -10.6,0.1 -15.8,1.6 -36.4,4.5 -71.8,17.7 -102.1,38.5 -5.4,4.1 -11,8.1 -16.5,12.2 -4.3,3.1 -7.5,7.3 -11.7,10.5 -4.7,3.6 -8.9,7.9 -12.5,12.6 -3.2,4.1 -7.4,7.3 -10.4,11.6 -5.3,7.4 -11.2,14.4 -15.9,22.1 -16.3,25.3 -27.2,53.9 -32.7,83.4 -0.9,7 -2.7,13.9 -2.6,21 -0.4,4.3 -1.8,8.5 -1.4,12.9 0.6,9.7 -1.2,19.6 1.2,29.2 0.1,6.2 1,12.3 2,18.4 6.3,36.7 20.7,72.3 43.5,101.8 5.2,7.1 10.5,14.1 16.9,20.1 2.5,2.5 4.4,5.6 7.3,7.8 4.1,3.2 7.3,7.2 11.2,10.7 6,4.8 12.1,9.3 18.3,13.9 33.9,24.6 75,38.6 116.7,42.4 12.7,0 25.3,0 38,0 9.9,-1.2 19.8,-2.5 29.5,-4.6 13.5,-2.5 26.5,-7 39.4,-11.8 18,-7.6 35.6,-16.8 51.2,-28.8 5.8,-4.5 12.1,-8.5 17.1,-14 3.8,-4.2 9,-6.9 12.5,-11.5 2.4,-3.1 5,-6.2 8,-8.9 4,-3.7 7,-8.4 10.3,-12.7 25.6,-32.4 41.5,-72.1 46.7,-113 -0.2,-5.4 1.9,-10.6 1.6,-16 -0.1,-9 0,-18 0,-27 -2.1,-32.5 -10.1,-64.9 -25.5,-93.8 -4.4,-9.5 -10,-18.5 -15.9,-27.1 -5.6,-7.1 -10.4,-14.8 -16.9,-21.1 -5.4,-6.8 -11.7,-13 -18.1,-18.9 -4.4,-3.2 -7.9,-7.5 -12.4,-10.6 -6.2,-4.5 -12.2,-9.2 -18.6,-13.5 -31,-20.4 -67.1,-32.5 -103.8,-36.6 -6.8,0.6 -13.3,-2 -20.1,-1.6 -6.2,0.3 -12.4,-0.5 -18.5,0.8 z" inkscape:connector-curvature="0" style="fill:#000000;stroke:#000000;stroke-width:0.09375"/>
  </g>
</svg>