<svg xmlns="http://www.w3.org/2000/svg" xmlns:xlink="http://www.w3.org/1999/xlink" version="1.1" id="Layer_1" x="0px" y="0px" width="100px" height="100.796px" viewBox="0 0 100 100.796" enable-background="new 0 0 100 100.796" xml:space="preserve">
<g>
	<g>
		<g>
			<circle cx="8.287" cy="4.966" r="4.966"/>
			<path d="M16.574,25.99c0,1.76-1.427,3.188-3.187,3.188h-10.2C1.427,29.178,0,27.75,0,25.99V14.473     c0-1.761,1.427-3.188,3.188-3.188h10.2c1.76,0,3.187,1.427,3.187,3.188V25.99z"/>
			<path d="M12.613,45.97c0,1.357-1.1,2.458-2.458,2.458H6.419c-1.358,0-2.458-1.101-2.458-2.458V29.352     c0-1.358,1.101-2.458,2.458-2.458h3.736c1.358,0,2.458,1.101,2.458,2.458V45.97z"/>
		</g>
		<g>
			<circle cx="29.144" cy="4.966" r="4.966"/>
			<path d="M37.431,25.99c0,1.76-1.427,3.188-3.187,3.188h-10.2c-1.76,0-3.188-1.427-3.188-3.188V14.473     c0-1.761,1.427-3.188,3.188-3.188h10.2c1.76,0,3.187,1.427,3.187,3.188V25.99z"/>
			<path d="M33.47,45.97c0,1.357-1.101,2.458-2.458,2.458h-3.737c-1.358,0-2.458-1.101-2.458-2.458V29.352     c0-1.358,1.101-2.458,2.458-2.458h3.737c1.357,0,2.458,1.101,2.458,2.458V45.97z"/>
		</g>
		<g>
			<circle cx="50" cy="4.966" r="4.966"/>
			<path d="M58.287,25.99c0,1.76-1.427,3.188-3.187,3.188H44.9c-1.76,0-3.188-1.427-3.188-3.188V14.473     c0-1.761,1.427-3.188,3.188-3.188h10.2c1.76,0,3.187,1.427,3.187,3.188V25.99z"/>
			<path d="M54.326,45.97c0,1.357-1.1,2.458-2.458,2.458h-3.736c-1.357,0-2.458-1.101-2.458-2.458V29.352     c0-1.358,1.101-2.458,2.458-2.458h3.736c1.358,0,2.458,1.101,2.458,2.458V45.97z"/>
		</g>
		<g>
			<circle cx="70.857" cy="4.966" r="4.965"/>
			<path d="M79.144,25.99c0,1.76-1.427,3.188-3.187,3.188h-10.2c-1.76,0-3.188-1.427-3.188-3.188V14.473     c0-1.761,1.428-3.188,3.188-3.188h10.2c1.76,0,3.187,1.427,3.187,3.188V25.99z"/>
			<path d="M75.184,45.97c0,1.357-1.101,2.458-2.458,2.458h-3.737c-1.357,0-2.458-1.101-2.458-2.458V29.352     c0-1.358,1.101-2.458,2.458-2.458h3.737c1.357,0,2.458,1.101,2.458,2.458V45.97z"/>
		</g>
		<g>
			<circle cx="91.713" cy="4.966" r="4.965"/>
			<path d="M100,25.99c0,1.76-1.427,3.188-3.188,3.188H86.613c-1.76,0-3.188-1.427-3.188-3.188V14.473     c0-1.761,1.428-3.188,3.188-3.188h10.199c1.761,0,3.188,1.427,3.188,3.188V25.99z"/>
			<path d="M96.04,45.97c0,1.357-1.101,2.458-2.458,2.458h-3.737c-1.357,0-2.458-1.101-2.458-2.458V29.352     c0-1.358,1.101-2.458,2.458-2.458h3.737c1.357,0,2.458,1.101,2.458,2.458V45.97z"/>
		</g>
	</g>
	<g>
		<g>
			<circle cx="18.716" cy="57.333" r="4.966"/>
			<path d="M27.002,78.357c0,1.761-1.427,3.188-3.187,3.188h-10.2c-1.76,0-3.188-1.427-3.188-3.188V66.841     c0-1.761,1.427-3.188,3.188-3.188h10.2c1.76,0,3.187,1.427,3.187,3.188V78.357z"/>
			<path d="M23.042,98.338c0,1.357-1.101,2.458-2.458,2.458h-3.737c-1.357,0-2.458-1.101-2.458-2.458V81.72     c0-1.357,1.101-2.458,2.458-2.458h3.737c1.357,0,2.458,1.101,2.458,2.458V98.338z"/>
		</g>
		<g>
			<circle cx="39.572" cy="57.333" r="4.966"/>
			<path d="M47.859,78.357c0,1.761-1.427,3.188-3.187,3.188h-10.2c-1.76,0-3.188-1.427-3.188-3.188V66.841     c0-1.761,1.427-3.188,3.188-3.188h10.2c1.76,0,3.187,1.427,3.187,3.188V78.357z"/>
			<path d="M43.898,98.338c0,1.357-1.1,2.458-2.458,2.458h-3.736c-1.357,0-2.458-1.101-2.458-2.458V81.72     c0-1.357,1.101-2.458,2.458-2.458h3.736c1.358,0,2.458,1.101,2.458,2.458V98.338z"/>
		</g>
		<g>
			<circle cx="60.429" cy="57.333" r="4.966"/>
			<path d="M68.716,78.357c0,1.761-1.427,3.188-3.188,3.188H55.329c-1.761,0-3.188-1.427-3.188-3.188V66.841     c0-1.761,1.427-3.188,3.188-3.188h10.199c1.761,0,3.188,1.427,3.188,3.188V78.357z"/>
			<path d="M64.756,98.338c0,1.357-1.102,2.458-2.459,2.458h-3.736c-1.357,0-2.458-1.101-2.458-2.458V81.72     c0-1.357,1.101-2.458,2.458-2.458h3.736c1.357,0,2.459,1.101,2.459,2.458V98.338z"/>
		</g>
		<g>
			<circle cx="81.285" cy="57.333" r="4.966"/>
			<path d="M89.572,78.357c0,1.761-1.427,3.188-3.188,3.188H76.186c-1.761,0-3.188-1.427-3.188-3.188V66.841     c0-1.761,1.427-3.188,3.188-3.188h10.199c1.761,0,3.188,1.427,3.188,3.188V78.357z"/>
			<path d="M85.611,98.338c0,1.357-1.101,2.458-2.458,2.458h-3.736c-1.357,0-2.458-1.101-2.458-2.458V81.72     c0-1.357,1.101-2.458,2.458-2.458h3.736c1.357,0,2.458,1.101,2.458,2.458V98.338z"/>
		</g>
	</g>
</g>
</svg>