<svg xmlns="http://www.w3.org/2000/svg" xmlns:xlink="http://www.w3.org/1999/xlink" version="1.1" id="Layer_1" x="0px" y="0px" width="100px" height="100px" viewBox="0 0 100 100" enable-background="new 0 0 100 100" xml:space="preserve">
<path d="M97.441,36.994c0.011,0.014,1.084,0.667,1.173,2.568c0.047,1.046-0.846,2.409-3.886,3.551c0,0-12.809,5.261-27.831,14.864  c0,0-1.724,1.08-3.737,0.938c-10.012-1.203-20.854-1.202-21.968-1.161c-6.467,0.236-14.027,0.997-20.849,7.161  c0,0-16.051-3.6-18.959-13.22c-0.001-0.011,19.267-5.537,29.931-14.36c3.517-2.911,7.218-2.218,8.647-2.08  c2.075,0.197,6.145,1.792,11.812,2.51c2.939,0.371,7.156,0.633,11.083,0.959c6.109,0.509,8.078,1.666,8.016,5.148  c-0.021,1.234-1.173,4.335-6.005,4.155c-1.057-0.039-3.586-0.259-5.346-0.359c-1.609-0.092-4.397-0.117-7.942,0  c-2.839,0.095-4.935,1.061-4.935,1.061s2.976,0.395,4.048,0.527c3.301,0.411,7.587,1.028,11.54,1.106  c3.958,0.078,7.007-0.437,8.986-2.168c2.899-2.85,2.098-5.636,1.611-7.16c0,0,17.12-5.045,18.29-5.223  C93.477,35.452,96.406,35.823,97.441,36.994z"/>
</svg>