<svg xmlns="http://www.w3.org/2000/svg" xmlns:xlink="http://www.w3.org/1999/xlink" version="1.1" x="0px" y="0px" width="100px" height="100px" viewBox="0 0 100 100" enable-background="new 0 0 100 100" xml:space="preserve">
<g id="Captions">
</g>
<g id="Your_Icon">
	<path fill="#000000" d="M87.57,43.828l-0.983-7.478l6.209-9.085l-9.147-13.143l-11.434,4.378l-6.537-4.378L64.043,3.891   L49.011,1.955l-5.226,10.061l-7.185,2.107l-9.155-6.338l-12.089,6.338l3.555,10.872l-4.476,7.531L3.274,34.384l-1.64,15.61   l9.64,3.207c0,0,3.754,10.1,2.774,10.1c-0.976,0-6.864,8.772-6.864,8.772l7.844,12.332l13.073-5.198l6.205,5.198l0.979,11.356   l15.359,2.278l4.57-10.061l6.868-1.631l10.45,5.85l11.435-7.793l-3.267-10.716l3.267-6.486l12.417-2.606L99,49.022L87.57,43.828z    M50.326,70.992c-12.188,0-22.061-9.4-22.061-20.998c0-11.603,9.873-21.003,22.061-21.003c12.163,0,22.052,9.4,22.052,21.003   C72.378,61.592,62.489,70.992,50.326,70.992z"/>
</g>
</svg>