<svg xmlns="http://www.w3.org/2000/svg" xmlns:xlink="http://www.w3.org/1999/xlink" version="1.1" id="Layer_1" x="0px" y="0px" width="100px" height="100px" viewBox="0 0 100 100" enable-background="new 0 0 100 100" xml:space="preserve">
<circle fill="#000000" cx="62.163" cy="81.139" r="1.881"/>
<circle fill="#000000" cx="42.019" cy="81.139" r="1.882"/>
<path fill="#000000" d="M80.661,7.977c0,0-6.575,11.232-13.225,10.795c-4.263-3.15-10.034-4.76-16.395-4.76  c-6.356,0-12.125,1.608-16.388,4.755c-0.105,0-0.205-0.005-0.316,0.003C27.665,19.291,21.043,7.977,21.043,7.977  s-0.97,13.399,7.29,18.978c0.039,0.026,0.075,0.044,0.114,0.069c-0.743,2.069-1.149,4.376-1.149,6.924l5.416,34.265  c-0.674,2.736-1.05,5.076-1.172,7.074c-1.082,1.691-1.718,3.695-1.718,5.852c0,6.012,4.873,10.885,10.883,10.885h20.685  c6.011,0,10.883-4.873,10.883-10.885c0-2.246-0.682-4.332-1.846-6.064c-0.133-1.959-0.467-4.221-1.057-6.861l5.413-34.265  c0-2.633-0.436-5.008-1.227-7.13C81.609,21.163,80.661,7.977,80.661,7.977z M33.136,40.375c0-1.275,1.033-2.311,2.312-2.311  s2.312,1.035,2.312,2.311c0,1.277-1.033,2.312-2.312,2.312S33.136,41.653,33.136,40.375z M61.913,87.104H41.269  c-3.293,0-5.964-2.67-5.964-5.965c0-3.293,2.671-5.963,5.964-5.963h20.645c3.295,0,5.964,2.67,5.964,5.963  C67.877,84.434,65.208,87.104,61.913,87.104z M65.815,42.688c-1.275,0-2.312-1.035-2.312-2.312c0-1.275,1.036-2.311,2.312-2.311  c1.279,0,2.313,1.035,2.313,2.311C68.129,41.653,67.095,42.688,65.815,42.688z"/>
<path fill="#000000" d="M75.062,33.75"/>
<path fill="#000000" d="M27.337,32.569"/>
<path fill="#000000" d="M82.213,24.928c-1.229,0-3.506,0.705-6.044,1.668c0.41,1.205,0.709,2.47,0.908,3.784  c1.818-0.644,3.699-1.242,4.414-1.242c1.551,0,2.807,1.257,2.807,2.808c0,1.549-1.256,2.807-2.807,2.807  c-0.682,0-2.422-0.543-4.157-1.15c0.001,0.116,0.014,0.229,0.014,0.346v0.201l-0.032,0.198l-0.503,3.188  c2.274,0.837,4.276,1.429,5.4,1.429c3.876,0,7.018-3.143,7.018-7.018C89.23,28.07,86.089,24.928,82.213,24.928z"/>
<path fill="#000000" d="M24.735,34.149v-0.201c0-0.137,0.014-0.268,0.016-0.404c-1.789,0.631-3.617,1.209-4.32,1.209  c-1.55,0-2.806-1.258-2.806-2.807c0-1.551,1.256-2.808,2.806-2.808c0.736,0,2.703,0.632,4.568,1.296  c0.197-1.322,0.494-2.595,0.904-3.807c-2.609-0.979-4.953-1.699-6.193-1.699c-3.876,0-7.018,3.142-7.018,7.018  c0,3.875,3.142,7.018,7.018,7.018c1.139,0,3.207-0.608,5.555-1.465l-0.498-3.151L24.735,34.149z"/>
</svg>