<svg xmlns="http://www.w3.org/2000/svg" xmlns:xlink="http://www.w3.org/1999/xlink" version="1.1" id="Layer_1" x="0px" y="0px" width="100px" height="100px" viewBox="0 0 100 100" enable-background="new 0 0 100 100" xml:space="preserve">
<g>
	<path d="M94.623,19.528H34.074c-1.334-1.217-2.368-5.61-3.778-5.61H13.812c-1.41,0-2.418,4.393-3.767,5.61H5.878   c-2.002,0-3.628,1.624-3.628,3.627v61.867c0,2.002,1.626,3.625,3.628,3.625h88.745c2.007,0,3.627-1.623,3.627-3.625V23.155   C98.25,21.151,96.63,19.528,94.623,19.528z M90.188,83.41H9.876c-2.091,0-3.785-1.692-3.785-3.786V29.343   c0-2.09,1.693-3.783,3.785-3.783h80.312c2.09,0,3.785,1.693,3.785,3.783v50.281h0.002C93.975,81.718,92.279,83.41,90.188,83.41z"/>
	<path d="M28.192,64.254V48.238H44.21c-0.001-8.847-7.172-16.019-16.018-16.019c-8.846,0-16.018,7.172-16.018,16.021   C12.174,57.083,19.346,64.254,28.192,64.254z"/>
	<path d="M30.977,67.041c8.846,0,16.018-7.173,16.018-16.02H30.977V67.041z"/>
	<rect x="70.441" y="42.706" width="6.902" height="20.712"/>
	<rect x="80.797" y="35.802" width="6.904" height="27.616"/>
	<rect x="60.083" y="49.611" width="6.905" height="13.807"/>
	<rect x="13.25" y="73.666" width="75.25" height="3"/>
</g>
</svg>