<?xml version="1.0" encoding="UTF-8" standalone="no"?>
<!DOCTYPE svg PUBLIC "-//W3C//DTD SVG 1.0//EN" "http://www.w3.org/TR/2001/PR-SVG-20010719/DTD/svg10.dtd">
<svg width="35cm" height="14cm" viewBox="-1 -1 691 261" xmlns="http://www.w3.org/2000/svg" xmlns:xlink="http://www.w3.org/1999/xlink">
  <g>
    <rect style="fill: #ffffff" x="0" y="0" width="310" height="260"/>
    <rect style="fill: none; fill-opacity:0; stroke-width: 0.705556; stroke: #000000" x="0" y="0" width="310" height="260"/>
  </g>
  <g>
    <ellipse style="fill: #ffa500" cx="180" cy="130" rx="70" ry="70"/>
    <ellipse style="fill: none; fill-opacity:0; stroke-width: 0.02; stroke-dasharray: 8; stroke: #000000" cx="180" cy="130" rx="70" ry="70"/>
  </g>
  <g>
    <ellipse style="fill: #ffa500" cx="130" cy="130" rx="70" ry="70"/>
    <ellipse style="fill: none; fill-opacity:0; stroke-width: 0.02; stroke: #ffa500" cx="130" cy="130" rx="70" ry="70"/>
  </g>
  <g>
    <ellipse style="fill: #d83737" cx="130" cy="130" rx="30" ry="30"/>
    <ellipse style="fill: none; fill-opacity:0; stroke-width: 0.02; stroke: #d83737" cx="130" cy="130" rx="30" ry="30"/>
  </g>
  <text font-size="16" style="fill: #000000;text-anchor:middle;font-family:sans-serif;font-style:normal;font-weight:700" x="130" y="150">
    <tspan x="130" y="150">A</tspan>
  </text>
  <g>
    <ellipse style="fill: #000000" cx="130" cy="130" rx="4" ry="4"/>
    <ellipse style="fill: none; fill-opacity:0; stroke-width: 0.02; stroke: #000000" cx="130" cy="130" rx="4" ry="4"/>
  </g>
  <text font-size="16" style="fill: #000000;text-anchor:middle;font-family:sans-serif;font-style:normal;font-weight:700" x="155" y="40">
    <tspan x="155" y="40">Disease-free</tspan>
  </text>
  <text font-size="16" style="fill: #000000;text-anchor:middle;font-family:sans-serif;font-style:normal;font-weight:700" x="80" y="95">
    <tspan x="80" y="95">Low-risk</tspan>
  </text>
  <ellipse style="fill: none; fill-opacity:0; stroke-width: 0.8; stroke-dasharray: 6; stroke: #000000" cx="180" cy="130" rx="70" ry="70"/>
  <g>
    <ellipse style="fill: #d83737" cx="180" cy="130" rx="30" ry="30"/>
    <ellipse style="fill: none; fill-opacity:0; stroke-width: 0.705556; stroke-dasharray: 6; stroke: #000000" cx="180" cy="130" rx="30" ry="30"/>
  </g>
  <text font-size="16" style="fill: #000000;text-anchor:middle;font-family:sans-serif;font-style:normal;font-weight:700" x="210" y="120">
    <tspan x="210" y="120">High-risk</tspan>
  </text>
  <text font-size="16" style="fill: #000000;text-anchor:middle;font-family:sans-serif;font-style:normal;font-weight:700" x="180" y="150">
    <tspan x="180" y="150">B</tspan>
  </text>
  <g>
    <ellipse style="fill: #000000" cx="180" cy="130" rx="4" ry="4"/>
    <ellipse style="fill: none; fill-opacity:0; stroke-width: 0.02; stroke: #000000" cx="180" cy="130" rx="4" ry="4"/>
  </g>
  <g>
    <rect style="fill: #ffffff" x="380" y="0" width="310" height="260"/>
    <rect style="fill: none; fill-opacity:0; stroke-width: 0.705556; stroke: #000000" x="380" y="0" width="310" height="260"/>
  </g>
  <g>
    <ellipse style="fill: #ffa500" cx="560" cy="130" rx="70" ry="70"/>
    <ellipse style="fill: none; fill-opacity:0; stroke-width: 0.02; stroke: #ffa500" cx="560" cy="130" rx="70" ry="70"/>
  </g>
  <g>
    <ellipse style="fill: #ffa500" cx="510" cy="130" rx="70" ry="70"/>
    <ellipse style="fill: none; fill-opacity:0; stroke-width: 0.02; stroke: #ffa500" cx="510" cy="130" rx="70" ry="70"/>
  </g>
  <g>
    <ellipse style="fill: #d83737" cx="510" cy="130" rx="30" ry="30"/>
    <ellipse style="fill: none; fill-opacity:0; stroke-width: 0.02; stroke: #d83737" cx="510" cy="130" rx="30" ry="30"/>
  </g>
  <text font-size="16" style="fill: #000000;text-anchor:middle;font-family:sans-serif;font-style:normal;font-weight:700" x="510" y="150">
    <tspan x="510" y="150">A</tspan>
  </text>
  <g>
    <ellipse style="fill: #000000" cx="510" cy="130" rx="4" ry="4"/>
    <ellipse style="fill: none; fill-opacity:0; stroke-width: 0.02; stroke: #000000" cx="510" cy="130" rx="4" ry="4"/>
  </g>
  <text font-size="16" style="fill: #000000;text-anchor:middle;font-family:sans-serif;font-style:normal;font-weight:700" x="535" y="40">
    <tspan x="535" y="40">Disease-free</tspan>
  </text>
  <text font-size="16" style="fill: #000000;text-anchor:middle;font-family:sans-serif;font-style:normal;font-weight:700" x="535" y="85">
    <tspan x="535" y="85">Low-risk</tspan>
  </text>
  <g>
    <ellipse style="fill: #d83737" cx="560" cy="130" rx="30" ry="30"/>
    <ellipse style="fill: none; fill-opacity:0; stroke-width: 0.02; stroke: #d83737" cx="560" cy="130" rx="30" ry="30"/>
  </g>
  <text font-size="16" style="fill: #000000;text-anchor:middle;font-family:sans-serif;font-style:normal;font-weight:700" x="535" y="120">
    <tspan x="535" y="120">High-risk</tspan>
  </text>
  <text font-size="16" style="fill: #000000;text-anchor:middle;font-family:sans-serif;font-style:normal;font-weight:700" x="560" y="150">
    <tspan x="560" y="150">B</tspan>
  </text>
  <g>
    <ellipse style="fill: #000000" cx="560" cy="130" rx="4" ry="4"/>
    <ellipse style="fill: none; fill-opacity:0; stroke-width: 0.02; stroke: #000000" cx="560" cy="130" rx="4" ry="4"/>
  </g>
  <g>
    <line style="fill: none; fill-opacity:0; stroke-width: 2; stroke: #000000" x1="320" y1="130" x2="360.264" y2="130"/>
    <polygon style="fill: #000000" points="367.764,130 357.764,135 360.264,130 357.764,125 "/>
    <polygon style="fill: none; fill-opacity:0; stroke-width: 2; stroke: #000000" points="367.764,130 357.764,135 360.264,130 357.764,125 "/>
  </g>
  <ellipse style="fill: none; fill-opacity:0; stroke-width: 0.705556; stroke-dasharray: 6; stroke: #000000" cx="130" cy="130" rx="30" ry="30"/>
  <ellipse style="fill: none; fill-opacity:0; stroke-width: 0.705556; stroke-dasharray: 6; stroke: #000000" cx="130" cy="130" rx="70" ry="70"/>
  <text font-size="16" style="fill: #000000;text-anchor:middle;font-family:sans-serif;font-style:normal;font-weight:700" x="250" y="145">
    <tspan x="250" y="145">Low-risk</tspan>
  </text>
  <text font-size="16" style="fill: #000000;text-anchor:middle;font-family:sans-serif;font-style:normal;font-weight:700" x="100" y="120">
    <tspan x="100" y="120">High-risk</tspan>
  </text>
</svg>
