<?xml version="1.0" encoding="UTF-8"?>
<svg xmlns="http://www.w3.org/2000/svg" xmlns:xlink="http://www.w3.org/1999/xlink" width="301pt" height="227pt" viewBox="0 0 301 227" version="1.1">
<g id="surface1">
<rect x="0" y="0" width="301" height="227" style="fill:rgb(100%,100%,100%);fill-opacity:1;stroke:none;"/>
<path style=" stroke:none;fill-rule:nonzero;fill:rgb(58.039856%,6.666565%,0%);fill-opacity:1;" d="M 86.363281 79.636719 C 89.878906 83.152344 89.878906 88.847656 86.363281 92.363281 C 82.847656 95.878906 77.152344 95.878906 73.636719 92.363281 C 70.121094 88.847656 70.121094 83.152344 73.636719 79.636719 C 77.152344 76.121094 82.847656 76.121094 86.363281 79.636719 "/>
<path style=" stroke:none;fill-rule:nonzero;fill:rgb(58.039856%,6.666565%,0%);fill-opacity:1;" d="M 248.363281 7.636719 C 251.878906 11.152344 251.878906 16.847656 248.363281 20.363281 C 244.847656 23.878906 239.152344 23.878906 235.636719 20.363281 C 232.121094 16.847656 232.121094 11.152344 235.636719 7.636719 C 239.152344 4.121094 244.847656 4.121094 248.363281 7.636719 "/>
<path style=" stroke:none;fill-rule:nonzero;fill:rgb(58.039856%,6.666565%,0%);fill-opacity:1;" d="M 194.363281 97.636719 C 197.878906 101.152344 197.878906 106.847656 194.363281 110.363281 C 190.847656 113.878906 185.152344 113.878906 181.636719 110.363281 C 178.121094 106.847656 178.121094 101.152344 181.636719 97.636719 C 185.152344 94.121094 190.847656 94.121094 194.363281 97.636719 "/>
<path style=" stroke:none;fill-rule:nonzero;fill:rgb(58.039856%,6.666565%,0%);fill-opacity:1;" d="M 293.363281 151.636719 C 296.878906 155.152344 296.878906 160.847656 293.363281 164.363281 C 289.847656 167.878906 284.152344 167.878906 280.636719 164.363281 C 277.121094 160.847656 277.121094 155.152344 280.636719 151.636719 C 284.152344 148.121094 289.847656 148.121094 293.363281 151.636719 "/>
<path style=" stroke:none;fill-rule:nonzero;fill:rgb(58.039856%,6.666565%,0%);fill-opacity:1;" d="M 23.363281 205.636719 C 26.878906 209.152344 26.878906 214.847656 23.363281 218.363281 C 19.847656 221.878906 14.152344 221.878906 10.636719 218.363281 C 7.121094 214.847656 7.121094 209.152344 10.636719 205.636719 C 14.152344 202.121094 19.847656 202.121094 23.363281 205.636719 "/>
<path style="fill:none;stroke-width:1.5;stroke-linecap:round;stroke-linejoin:round;stroke:rgb(0%,0%,0%);stroke-opacity:1;stroke-dasharray:6,6;stroke-miterlimit:10;" d="M 93 300 L 163.5 154.5 L 337.5 78 L 389.5 240.5 Z " transform="matrix(1,0,0,1,-90.5,-75.5)"/>
</g>
</svg>
