<svg xmlns="http://www.w3.org/2000/svg" xmlns:xlink="http://www.w3.org/1999/xlink" version="1.1" id="Your_Icon" x="0px" y="0px" width="100px" height="100px" viewBox="0 0 100 100" enable-background="new 0 0 100 100" xml:space="preserve">
<path fill="#000000" d="M10,0v100h80V0H10z M87,94H13V3h74V94z"/>
<rect x="19.837" y="65.697" fill="#000000" width="29.013" height="2.169"/>
<rect x="19.837" y="57.813" fill="#000000" width="29.013" height="2.169"/>
<rect x="19.837" y="73.581" fill="#000000" width="29.013" height="2.169"/>
<rect x="19.837" y="81.464" fill="#000000" width="29.013" height="2.169"/>
<rect x="19.837" y="7.275" fill="#000000" width="47.194" height="3.528"/>
<polygon fill="#000000" points="78,83 78,50 73,50 73,83 70,83 70,23 63,23 63,83 57,83 57,84 84,84 84,83 "/>
<g>
	<path fill="#000000" d="M34.428,37.906l3.523-13.327c-1.127-0.297-2.303-0.471-3.523-0.471c-7.621,0-13.799,6.178-13.799,13.799   c0,7.621,6.178,13.798,13.799,13.798c7.621,0,13.798-6.178,13.798-13.798c0-2.244-0.547-4.356-1.498-6.229L34.428,37.906z"/>
	<path fill="#000000" d="M50.399,27.116c-1.76-3.469-4.939-6.085-8.777-7.098l-3.523,13.327L50.399,27.116z"/>
</g>
</svg>