<svg xmlns="http://www.w3.org/2000/svg" xmlns:xlink="http://www.w3.org/1999/xlink" version="1.1" id="Your_Icon" x="0px" y="0px" width="100px" height="100px" viewBox="0 0 100 100" enable-background="new 0 0 100 100" xml:space="preserve">
<g>
	<path d="M72.1,57.379c-3.149,0-5.83-1.348-7.354-3.699c-1.879-2.896-1.845-6.882,0.094-11.222   c1.563-3.499-0.042-7.815-1.593-11.989c-1.809-4.863-3.677-9.89,0-13.278l-0.002-0.002l0.139-0.121   c0.004-0.004,0.008-0.008,0.012-0.012v0v0l0.381-0.332c0.013-0.011,0.059-0.021,0.07-0.032L64,16.588v0.002   c0-0.033,0.047-0.063,0.088-0.089c2.986-2.425,6.031-3.653,9.096-3.653c6.293,0,12.134,5.477,14.897,13.953   c2.92,8.958,1.972,20.832-6.715,27.169C78.309,56.2,75.102,57.379,72.1,57.379z M64.569,18.437L64.569,18.437   c-2.909,2.566-1.388,6.661,0.374,11.401c1.678,4.515,3.413,9.184,1.55,13.358c-1.68,3.761-1.761,7.134-0.229,9.498   c1.201,1.853,3.273,2.872,5.835,2.872c2.615,0,5.449-1.057,8.194-3.061c7.953-5.802,8.771-16.808,6.056-25.143   C83.834,19.646,78.66,14.66,73.166,14.66c-2.824,0-5.697,1.253-8.539,3.726L64.569,18.437z"/>
</g>
<g>
	<path d="M73.004,54.66c-0.342-0.007-0.684-0.035-1.017-0.084l0.268-1.792c0.255,0.037,0.519,0.06,0.782,0.064L73.004,54.66z    M74.016,54.618l-0.184-1.803c0.263-0.026,0.532-0.068,0.799-0.124l0.371,1.773C74.673,54.533,74.341,54.585,74.016,54.618z    M70.979,54.35c-0.334-0.1-0.66-0.225-0.971-0.374l0.779-1.636c0.229,0.109,0.468,0.202,0.714,0.276L70.979,54.35z M75.959,54.216   l-0.537-1.729c0.26-0.082,0.522-0.175,0.779-0.28l0.682,1.68C76.578,54.01,76.267,54.119,75.959,54.216z M77.771,53.485   l-0.81-1.621c0.245-0.122,0.493-0.256,0.742-0.402l0.916,1.563C78.342,53.188,78.057,53.342,77.771,53.485z M69.1,53.448   c-0.287-0.199-0.56-0.424-0.811-0.666l1.26-1.301c0.181,0.174,0.377,0.335,0.584,0.479L69.1,53.448z M79.433,52.512L78.42,51.01   c0.23-0.154,0.461-0.32,0.692-0.496l1.097,1.441C79.949,52.153,79.69,52.339,79.433,52.512z M67.599,51.999   c-0.206-0.274-0.395-0.567-0.56-0.874l1.594-0.86c0.124,0.227,0.263,0.445,0.414,0.646L67.599,51.999z M80.952,51.358l-1.175-1.379   c0.215-0.185,0.425-0.374,0.626-0.569l1.26,1.301C81.433,50.935,81.194,51.152,80.952,51.358z M66.615,50.188   c-0.115-0.31-0.216-0.636-0.295-0.97l1.762-0.422c0.063,0.262,0.141,0.517,0.229,0.757L66.615,50.188z M82.333,50.021l-1.339-1.22   c0.19-0.209,0.374-0.424,0.553-0.644l1.409,1.138C82.757,49.544,82.548,49.786,82.333,50.021z M83.536,48.532l-1.476-1.052   c0.166-0.231,0.324-0.467,0.476-0.708l1.532,0.969C83.897,48.01,83.721,48.273,83.536,48.532z M66.142,48.23   c-0.039-0.32-0.064-0.652-0.072-0.989l1.811-0.048c0.008,0.278,0.027,0.552,0.061,0.813L66.142,48.23z M84.557,46.92l-1.585-0.881   c0.139-0.249,0.271-0.503,0.396-0.759l1.628,0.796C84.856,46.361,84.71,46.643,84.557,46.92z M67.896,46.37l-1.808-0.112   c0.019-0.318,0.053-0.645,0.098-0.969l1.794,0.252C67.94,45.819,67.912,46.099,67.896,46.37z M85.393,45.212l-1.667-0.711   c0.113-0.264,0.219-0.53,0.319-0.8l1.698,0.631C85.633,44.629,85.516,44.922,85.393,45.212z M68.126,44.712l-1.772-0.376   c0.066-0.311,0.144-0.624,0.229-0.934l1.745,0.487C68.25,44.168,68.184,44.442,68.126,44.712z M86.051,43.436l-1.725-0.549   c0.086-0.274,0.168-0.551,0.244-0.83l1.748,0.475C86.235,42.836,86.146,43.138,86.051,43.436z M68.581,43.074l-1.716-0.583   c0.101-0.294,0.209-0.59,0.329-0.892l1.683,0.669C68.77,42.541,68.671,42.809,68.581,43.074z M86.546,41.616l-1.768-0.4   c0.064-0.281,0.122-0.564,0.174-0.849l1.782,0.326C86.677,41.003,86.615,41.31,86.546,41.616z M69.204,41.326l-1.744-0.49   c0.07-0.25,0.128-0.514,0.172-0.782l1.788,0.29C69.365,40.68,69.292,41.01,69.204,41.326z M86.887,39.765l-1.793-0.256   c0.04-0.286,0.076-0.574,0.106-0.864l1.802,0.188C86.969,39.145,86.931,39.456,86.887,39.765z M69.527,39.352l-1.809-0.105   c0.011-0.176,0.015-0.353,0.015-0.53c0-0.098-0.001-0.195-0.004-0.293l1.811-0.055c0.003,0.116,0.005,0.232,0.005,0.349   C69.545,38.929,69.54,39.142,69.527,39.352z M87.083,37.899l-1.809-0.122c0.021-0.29,0.036-0.581,0.045-0.873l1.812,0.062   C87.119,37.277,87.104,37.588,87.083,37.899z M67.674,37.586c-0.028-0.279-0.067-0.56-0.113-0.842l1.788-0.293   c0.052,0.318,0.095,0.634,0.127,0.95L67.674,37.586z M87.146,36.241h-1.812c0,0-0.006-0.687-0.015-0.979l1.81-0.009   C87.14,35.565,87.146,36.241,87.146,36.241z M67.401,35.898c-0.061-0.281-0.127-0.563-0.198-0.846l1.756-0.446   c0.077,0.305,0.148,0.61,0.213,0.915L67.401,35.898z M85.274,34.284c-0.02-0.292-0.044-0.583-0.072-0.873l1.803-0.178   c0.03,0.309,0.056,0.619,0.077,0.929L85.274,34.284z M66.974,34.205c-0.081-0.282-0.166-0.565-0.253-0.847l1.73-0.537   c0.091,0.295,0.181,0.591,0.264,0.886L66.974,34.205z M85.102,32.542c-0.038-0.29-0.079-0.578-0.127-0.865l1.788-0.293   c0.049,0.306,0.095,0.613,0.136,0.922L85.102,32.542z M66.45,32.508c-0.093-0.285-0.188-0.568-0.281-0.852l1.718-0.575   c0.096,0.288,0.192,0.577,0.286,0.865L66.45,32.508z M84.82,30.817c-0.056-0.288-0.116-0.573-0.182-0.857l1.765-0.405   c0.069,0.302,0.135,0.606,0.195,0.913L84.82,30.817z M65.881,30.799c-0.098-0.289-0.194-0.577-0.288-0.863l1.721-0.567   c0.093,0.283,0.188,0.567,0.284,0.853L65.881,30.799z M84.429,29.111c-0.074-0.284-0.153-0.565-0.236-0.843l1.735-0.518   c0.09,0.297,0.173,0.597,0.252,0.898L84.429,29.111z M65.312,29.063c-0.094-0.297-0.183-0.592-0.27-0.884l1.74-0.507   c0.082,0.28,0.168,0.563,0.257,0.847L65.312,29.063z M83.928,27.434c-0.093-0.277-0.19-0.551-0.292-0.822l1.696-0.637   c0.109,0.291,0.214,0.585,0.313,0.883L83.928,27.434z M64.797,27.278c-0.08-0.311-0.152-0.618-0.216-0.921l1.774-0.369   c0.058,0.277,0.124,0.558,0.195,0.841L64.797,27.278z M83.315,25.801c-0.112-0.271-0.229-0.537-0.349-0.798l1.645-0.757   c0.13,0.282,0.256,0.568,0.377,0.858L83.315,25.801z M64.415,25.412c-0.049-0.336-0.083-0.664-0.102-0.974l1.809-0.108   c0.016,0.261,0.045,0.538,0.086,0.824L64.415,25.412z M82.587,24.223c-0.132-0.26-0.27-0.514-0.41-0.764l1.578-0.89   c0.152,0.271,0.302,0.548,0.445,0.83L82.587,24.223z M66.116,23.526l-1.808-0.093c0.017-0.354,0.059-0.699,0.123-1.025l1.778,0.349   C66.162,23,66.131,23.258,66.116,23.526z M81.735,22.716c-0.153-0.246-0.311-0.485-0.473-0.718l1.487-1.035   c0.179,0.257,0.353,0.521,0.521,0.792L81.735,22.716z M66.413,22.04l-1.691-0.649c0.13-0.336,0.29-0.66,0.479-0.962l1.538,0.957   C66.611,21.59,66.501,21.81,66.413,22.04z M80.757,21.308c-0.176-0.227-0.356-0.447-0.542-0.658l1.364-1.192   c0.206,0.237,0.41,0.483,0.608,0.738L80.757,21.308z M67.184,20.798l-1.338-1.222c0.078-0.084,0.157-0.167,0.242-0.25l0,0   c0,0,0.002-0.001,0.002-0.002l0,0l0.022-0.022c0.003-0.002,0.004-0.004,0.007-0.006l0.409-0.396l0.006,0.006   c0.095-0.086,0.189-0.171,0.284-0.254l1.192,1.364c-0.21,0.184-0.421,0.377-0.632,0.582l0,0   C67.312,20.662,67.246,20.729,67.184,20.798z M79.639,20.031c-0.2-0.202-0.407-0.396-0.612-0.575l1.189-1.365   c0.238,0.207,0.477,0.43,0.707,0.662L79.639,20.031z M68.669,19.472l-1.113-1.429c0.257-0.2,0.519-0.392,0.775-0.567l1.021,1.498   C69.125,19.127,68.896,19.294,68.669,19.472z M78.379,18.935c-0.225-0.167-0.454-0.321-0.683-0.461l0.947-1.545   c0.272,0.167,0.546,0.353,0.813,0.551L78.379,18.935z M70.06,18.526l-0.908-1.567c0.287-0.166,0.578-0.319,0.866-0.456l0.776,1.637   C70.55,18.255,70.304,18.385,70.06,18.526z M76.982,18.083c-0.244-0.119-0.494-0.224-0.742-0.313l0.612-1.705   c0.309,0.11,0.618,0.241,0.92,0.388L76.982,18.083z M71.55,17.823l-0.62-1.702c0.315-0.115,0.635-0.214,0.952-0.293l0.442,1.756   C72.067,17.649,71.808,17.729,71.55,17.823z M75.477,17.543c-0.258-0.06-0.521-0.104-0.782-0.133l0.194-1.801   c0.333,0.036,0.669,0.093,0.998,0.17L75.477,17.543z M73.11,17.433l-0.24-1.796c0.335-0.045,0.674-0.07,1.008-0.075l0.025,1.812   C73.642,17.377,73.375,17.397,73.11,17.433z"/>
</g>
<ellipse cx="74.132" cy="25.964" rx="4.755" ry="4.529"/>
<g>
	<path d="M42.435,70.456c-8.687-6.337-9.63-18.212-6.71-27.169c2.763-8.476,8.613-13.953,14.906-13.953   c3.064,0,6.126,1.229,9.111,3.653c0.042,0.027,0.082,0.057,0.123,0.089l0.002-0.002l0.118,0.104   c0.012,0.011,0.023,0.021,0.036,0.032l0.381,0.332v0v0c0.004,0.004,0.008,0.008,0.012,0.011l0.139,0.121l-0.002,0.002   c3.677,3.389,1.809,8.415,0,13.278c-1.551,4.174-3.154,8.49-1.592,11.988c1.938,4.341,1.972,8.326,0.094,11.223   c-1.525,2.351-4.205,3.698-7.355,3.698C48.695,73.864,45.492,72.686,42.435,70.456z M59.17,34.872   c-2.842-2.473-5.715-3.726-8.539-3.726c-5.494,0-10.668,4.986-13.183,12.703c-2.716,8.336-1.898,19.342,6.055,25.144   c2.745,2.003,5.579,3.061,8.194,3.061c2.562,0,4.635-1.021,5.835-2.873c1.532-2.363,1.452-5.736-0.228-9.497   c-1.865-4.175-0.129-8.844,1.549-13.359c1.762-4.74,3.284-8.835,0.374-11.401l0,0L59.17,34.872z"/>
</g>
<g>
	<path d="M50.759,69.334c0.264-0.005,0.528-0.026,0.784-0.064l0.266,1.793c-0.332,0.048-0.674,0.077-1.015,0.083L50.759,69.334z    M48.795,70.95l0.371-1.773c0.266,0.056,0.536,0.099,0.798,0.125l-0.183,1.802C49.456,71.07,49.124,71.019,48.795,70.95z    M52.297,69.103c0.245-0.075,0.484-0.167,0.713-0.276l0.779,1.635c-0.311,0.149-0.637,0.275-0.971,0.375L52.297,69.103z    M46.914,70.371l0.682-1.679c0.257,0.104,0.52,0.198,0.779,0.279l-0.537,1.73C47.53,70.605,47.219,70.495,46.914,70.371z    M45.178,69.511l0.916-1.563c0.25,0.146,0.497,0.279,0.743,0.401l-0.81,1.621C45.741,69.827,45.455,69.673,45.178,69.511z    M53.664,68.446c0.207-0.144,0.403-0.305,0.584-0.479l1.26,1.302c-0.25,0.242-0.523,0.467-0.811,0.666L53.664,68.446z    M43.587,68.441l1.098-1.442c0.231,0.177,0.461,0.343,0.692,0.497l-1.012,1.502C44.107,68.824,43.848,68.639,43.587,68.441z    M54.75,67.396c0.151-0.201,0.29-0.419,0.414-0.646l1.594,0.861c-0.166,0.307-0.354,0.6-0.56,0.873L54.75,67.396z M42.133,67.196   l1.26-1.301c0.202,0.195,0.411,0.385,0.626,0.569l-1.175,1.379C42.603,67.638,42.364,67.42,42.133,67.196z M55.484,66.04   c0.09-0.241,0.168-0.496,0.23-0.758l1.762,0.422c-0.079,0.334-0.18,0.66-0.295,0.971L55.484,66.04z M40.84,65.781l1.41-1.138   c0.178,0.221,0.362,0.435,0.552,0.644l-1.338,1.221C41.249,66.272,41.041,66.029,40.84,65.781z M39.729,64.227l1.532-0.968   c0.152,0.241,0.31,0.477,0.476,0.708l-1.476,1.051C40.076,64.76,39.899,64.495,39.729,64.227z M55.857,64.493   c0.033-0.263,0.053-0.536,0.06-0.813l1.812,0.047c-0.01,0.337-0.033,0.67-0.073,0.99L55.857,64.493z M38.801,62.563l1.628-0.797   c0.125,0.256,0.258,0.511,0.396,0.76l-1.584,0.881C39.087,63.129,38.941,62.847,38.801,62.563z M55.817,62.027l1.794-0.253   c0.045,0.325,0.079,0.65,0.098,0.97L55.9,62.855C55.885,62.585,55.855,62.305,55.817,62.027z M38.054,60.818l1.699-0.632   c0.1,0.27,0.206,0.536,0.319,0.8l-1.667,0.711C38.282,61.407,38.165,61.114,38.054,60.818z M55.469,60.375l1.744-0.486   c0.087,0.309,0.164,0.623,0.23,0.934l-1.773,0.375C55.613,60.929,55.547,60.654,55.469,60.375z M37.479,59.018l1.749-0.475   c0.076,0.278,0.158,0.556,0.244,0.829l-1.725,0.549C37.65,59.623,37.562,59.321,37.479,59.018z M54.92,58.755l1.683-0.67   c0.12,0.302,0.229,0.599,0.329,0.892l-1.715,0.583C55.127,59.295,55.027,59.026,54.92,58.755z M37.063,57.179l1.782-0.325   c0.051,0.284,0.109,0.567,0.173,0.849l-1.768,0.4C37.182,57.795,37.12,57.488,37.063,57.179z M54.377,56.829l1.789-0.289   c0.043,0.269,0.102,0.531,0.17,0.781l-1.743,0.491C54.505,57.495,54.432,57.166,54.377,56.829z M36.795,55.319l1.801-0.188   c0.031,0.289,0.066,0.577,0.107,0.864l-1.793,0.256C36.867,55.941,36.828,55.631,36.795,55.319z M54.252,55.202   c0-0.116,0.002-0.231,0.006-0.349l1.81,0.056c-0.003,0.099-0.003,0.196-0.003,0.293c0,0.178,0.004,0.354,0.014,0.531l-1.809,0.104   C54.258,55.628,54.252,55.415,54.252,55.202z M36.667,53.452l1.811-0.063c0.01,0.292,0.025,0.582,0.045,0.873l-1.808,0.122   C36.694,54.074,36.678,53.764,36.667,53.452z M54.322,53.888c0.031-0.316,0.074-0.633,0.127-0.951l1.787,0.293   c-0.045,0.281-0.084,0.563-0.113,0.843L54.322,53.888z M36.668,51.739l1.81,0.009c-0.009,0.291-0.015,0.979-0.015,0.979h-1.812   C36.651,52.727,36.657,52.051,36.668,51.739z M54.625,52.006c0.064-0.304,0.136-0.608,0.213-0.915l1.756,0.448   c-0.07,0.281-0.138,0.563-0.197,0.845L54.625,52.006z M36.715,50.647c0.021-0.311,0.046-0.62,0.077-0.929l1.803,0.178   c-0.029,0.291-0.053,0.582-0.073,0.874L36.715,50.647z M55.082,50.193c0.084-0.296,0.172-0.592,0.264-0.887l1.73,0.537   c-0.087,0.281-0.172,0.564-0.252,0.847L55.082,50.193z M36.899,48.792c0.041-0.309,0.086-0.615,0.135-0.922l1.788,0.293   c-0.047,0.288-0.089,0.576-0.127,0.865L36.899,48.792z M55.624,48.433c0.095-0.289,0.19-0.578,0.286-0.866l1.718,0.575   c-0.095,0.284-0.188,0.567-0.281,0.852L55.624,48.433z M37.199,46.953c0.06-0.307,0.125-0.61,0.195-0.912l1.765,0.404   c-0.065,0.284-0.126,0.569-0.182,0.857L37.199,46.953z M56.199,46.707c0.097-0.285,0.191-0.569,0.285-0.853l1.72,0.567   c-0.095,0.285-0.19,0.574-0.288,0.862L56.199,46.707z M37.617,45.134c0.08-0.302,0.163-0.602,0.252-0.898l1.736,0.518   c-0.083,0.279-0.163,0.56-0.237,0.844L37.617,45.134z M56.758,45.005c0.089-0.284,0.176-0.567,0.257-0.847l1.74,0.507   c-0.087,0.292-0.175,0.587-0.27,0.884L56.758,45.005z M38.151,43.344c0.1-0.298,0.205-0.592,0.313-0.883l1.697,0.637   c-0.102,0.271-0.199,0.545-0.292,0.822L38.151,43.344z M57.246,43.314c0.072-0.283,0.138-0.563,0.195-0.841l1.774,0.369   c-0.063,0.303-0.136,0.61-0.216,0.921L57.246,43.314z M38.809,41.59c0.121-0.29,0.248-0.577,0.377-0.858l1.645,0.758   c-0.121,0.262-0.237,0.527-0.349,0.798L38.809,41.59z M57.589,41.64c0.042-0.286,0.07-0.563,0.085-0.824l1.81,0.107   c-0.019,0.311-0.052,0.639-0.102,0.975L57.589,41.64z M39.597,39.884c0.144-0.282,0.293-0.559,0.446-0.83l1.578,0.891   c-0.141,0.25-0.278,0.504-0.41,0.764L39.597,39.884z M57.588,39.243l1.777-0.349c0.064,0.326,0.106,0.671,0.123,1.025l-1.808,0.093   C57.666,39.744,57.635,39.485,57.588,39.243z M40.525,38.241c0.169-0.271,0.343-0.535,0.522-0.792l1.487,1.035   c-0.162,0.232-0.319,0.472-0.473,0.718L40.525,38.241z M57.059,37.871l1.539-0.957c0.188,0.302,0.348,0.625,0.478,0.962   l-1.691,0.649C57.296,38.296,57.186,38.076,57.059,37.871z M41.61,36.682c0.198-0.255,0.402-0.501,0.608-0.738l1.364,1.192   c-0.186,0.211-0.366,0.431-0.542,0.658L41.61,36.682z M56.418,37.083L56.418,37.083c-0.211-0.204-0.422-0.398-0.633-0.582   l1.193-1.364c0.096,0.083,0.189,0.167,0.284,0.254l0.006-0.006l0.409,0.396c0.003,0.002,0.004,0.004,0.007,0.006l0.022,0.022l0,0   c0,0.001,0.002,0.001,0.002,0.002l0,0c0.085,0.083,0.164,0.166,0.242,0.25l-1.338,1.222C56.551,37.215,56.486,37.148,56.418,37.083   z M42.874,35.239c0.23-0.232,0.469-0.455,0.707-0.662l1.19,1.365c-0.205,0.179-0.412,0.373-0.612,0.575L42.874,35.239z    M54.445,35.459l1.02-1.498c0.258,0.176,0.52,0.367,0.777,0.567l-1.113,1.429C54.9,35.78,54.672,35.613,54.445,35.459z    M44.34,33.965c0.268-0.198,0.541-0.383,0.813-0.551l0.947,1.544c-0.229,0.14-0.458,0.295-0.683,0.461L44.34,33.965z    M53.003,34.625l0.776-1.637c0.288,0.137,0.58,0.29,0.866,0.456l-0.909,1.567C53.494,34.871,53.247,34.741,53.003,34.625z    M46.024,32.938c0.302-0.146,0.612-0.277,0.92-0.388l0.612,1.705c-0.248,0.089-0.499,0.194-0.742,0.313L46.024,32.938z    M51.473,34.07l0.442-1.756c0.317,0.079,0.638,0.178,0.952,0.293l-0.619,1.702C51.99,34.215,51.729,34.135,51.473,34.07z    M47.911,32.265c0.329-0.077,0.665-0.134,0.998-0.17l0.195,1.801c-0.261,0.029-0.524,0.074-0.782,0.133L47.911,32.265z    M49.894,33.86l0.025-1.812c0.334,0.004,0.673,0.03,1.008,0.075l-0.241,1.795C50.422,33.883,50.155,33.863,49.894,33.86z"/>
</g>
<ellipse cx="49.665" cy="42.45" rx="4.755" ry="4.529"/>
<g>
	<path d="M17.582,30.644c-1.34-10.669,6.659-19.495,15.183-23.508c8.066-3.798,16.063-3.293,20.376,1.289   c2.102,2.231,3.307,5.446,3.586,9.282c0.01,0.049,0.016,0.293,0.02,0.293h0.003l0.005,0.014c0,0.016,0.002-0.04,0.002-0.023   l0.02,0.468l0.111-0.017L57,18.424c0,0.006,0,0.011,0,0.017L56.782,19h-0.003c0.053,4-4.888,6.897-9.667,8.914   c-4.103,1.73-8.345,3.427-9.822,6.964c-1.832,4.387-4.71,7.095-8.106,7.713c-2.757,0.502-5.575-0.551-7.734-2.844   C19.391,37.561,18.054,34.398,17.582,30.644z M54.963,18.438c-0.148-3.765-1.204-6.715-3.141-8.772   c-3.765-4-10.943-4.35-18.285-0.892C25.605,12.51,18.153,20.65,19.38,30.418c0.423,3.372,1.596,6.16,3.389,8.064   c1.756,1.866,3.919,2.675,6.091,2.28c2.771-0.505,5.172-2.875,6.759-6.676c1.763-4.219,6.351-6.156,10.789-8.029   c4.66-1.966,8.685-3.665,8.559-7.542l0,0L54.963,18.438z"/>
</g>
<g>
	<path d="M24.105,35.937c0.185,0.189,0.381,0.365,0.583,0.525l-1.122,1.423c-0.264-0.209-0.519-0.438-0.758-0.682L24.105,35.937z    M21.582,35.614l1.546-0.946c0.142,0.232,0.295,0.458,0.456,0.667l-1.438,1.102C21.947,36.177,21.757,35.9,21.582,35.614z    M25.328,36.896c0.222,0.127,0.453,0.238,0.689,0.33l-0.657,1.689c-0.321-0.125-0.636-0.276-0.938-0.451L25.328,36.896z    M20.714,33.847l1.689-0.655c0.1,0.259,0.213,0.515,0.332,0.759l-1.629,0.795C20.965,34.457,20.833,34.154,20.714,33.847z    M20.15,31.993l1.766-0.404c0.064,0.281,0.137,0.553,0.216,0.816l-1.735,0.521C20.305,32.62,20.222,32.307,20.15,31.993z    M26.743,37.442c0.247,0.052,0.498,0.084,0.749,0.097l-0.084,1.809c-0.348-0.016-0.699-0.061-1.041-0.133L26.743,37.442z    M19.839,30.102l1.801-0.19c0.031,0.29,0.068,0.571,0.114,0.845l-1.788,0.292C19.917,30.742,19.873,30.426,19.839,30.102z    M28.251,37.514c0.25-0.027,0.504-0.077,0.754-0.142l0.466,1.75c-0.336,0.09-0.679,0.153-1.019,0.191L28.251,37.514z M19.749,28.19   l1.811,0.025c-0.003,0.28,0.001,0.563,0.014,0.846l-1.809,0.089C19.749,28.834,19.744,28.511,19.749,28.19z M29.742,37.119   c0.237-0.099,0.475-0.218,0.709-0.352l0.901,1.573c-0.297,0.17-0.604,0.321-0.908,0.45L29.742,37.119z M19.893,26.279l1.795,0.247   c-0.038,0.28-0.068,0.562-0.09,0.844l-1.807-0.139C19.815,26.913,19.849,26.595,19.893,26.279z M20.263,24.403l1.754,0.453   c-0.072,0.275-0.135,0.552-0.189,0.831l-1.777-0.354C20.113,25.022,20.184,24.712,20.263,24.403z M31.124,36.329   c0.213-0.155,0.426-0.329,0.634-0.514l1.207,1.351c-0.251,0.226-0.51,0.435-0.771,0.625L31.124,36.329z M20.838,22.587l1.695,0.639   c-0.1,0.267-0.195,0.537-0.28,0.809l-1.728-0.55C20.623,23.184,20.727,22.884,20.838,22.587z M32.892,34.61l1.414,1.133   C34.1,36,33.886,36.247,33.667,36.479l-1.321-1.24C32.532,35.042,32.716,34.829,32.892,34.61z M21.596,20.848l1.625,0.804   c-0.128,0.258-0.25,0.518-0.365,0.78l-1.66-0.726C21.323,21.417,21.457,21.131,21.596,20.848z M33.856,33.224l1.551,0.937   c-0.167,0.275-0.342,0.546-0.523,0.808l-1.488-1.034C33.553,33.709,33.706,33.473,33.856,33.224z M22.514,19.194l1.543,0.948   c-0.151,0.246-0.296,0.496-0.436,0.746l-1.583-0.879C22.19,19.735,22.349,19.463,22.514,19.194z M34.66,31.713l1.64,0.767   c-0.137,0.294-0.279,0.576-0.423,0.85l-1.6-0.849C34.408,32.234,34.536,31.979,34.66,31.713z M23.567,17.631l1.458,1.075   c-0.172,0.232-0.338,0.469-0.499,0.708l-1.503-1.013C23.2,18.141,23.38,17.885,23.567,17.631z M35.689,29.999l1.437,1.104   c-0.166,0.215-0.317,0.439-0.452,0.661l-1.552-0.934C35.292,30.548,35.482,30.27,35.689,29.999z M24.738,16.162l1.372,1.183   c-0.189,0.22-0.375,0.444-0.556,0.67l-1.415-1.13C24.333,16.64,24.534,16.4,24.738,16.162z M36.789,28.792   c0.084-0.08,0.17-0.157,0.257-0.235l1.2,1.356c-0.074,0.066-0.145,0.132-0.216,0.199c-0.129,0.122-0.255,0.246-0.376,0.374   l-1.316-1.245C36.482,29.087,36.633,28.938,36.789,28.792z M26.009,14.789l1.286,1.276c-0.206,0.207-0.407,0.417-0.604,0.631   l-1.329-1.233C25.575,15.234,25.789,15.01,26.009,14.789z M37.793,27.942c0.252-0.193,0.512-0.379,0.78-0.559l1.012,1.503   c-0.237,0.16-0.468,0.324-0.691,0.494L37.793,27.942z M27.257,13.616l1.234,1.323c-0.218,0.193-0.723,0.66-0.723,0.66l-1.242-1.319   C26.526,14.28,27.022,13.822,27.257,13.616z M39.371,26.874c0.265-0.162,0.537-0.319,0.813-0.472l0.878,1.584   c-0.254,0.142-0.506,0.288-0.751,0.436L39.371,26.874z M28.084,12.901c0.241-0.197,0.484-0.392,0.729-0.581l1.105,1.436   c-0.23,0.178-0.459,0.36-0.685,0.545L28.084,12.901z M41.005,25.962c0.273-0.141,0.548-0.279,0.826-0.414l0.795,1.627   c-0.265,0.13-0.529,0.262-0.79,0.397L41.005,25.962z M29.561,11.763c0.253-0.182,0.509-0.359,0.765-0.533l1.012,1.503   c-0.241,0.162-0.48,0.33-0.717,0.5L29.561,11.763z M42.658,25.151c0.275-0.13,0.551-0.257,0.827-0.385l0.759,1.645   c-0.271,0.126-0.542,0.252-0.813,0.38L42.658,25.151z M31.106,10.721c0.263-0.166,0.529-0.327,0.797-0.483l0.915,1.563   c-0.252,0.147-0.501,0.299-0.749,0.455L31.106,10.721z M44.309,24.387c0.274-0.125,0.546-0.25,0.816-0.377l0.766,1.642   c-0.273,0.127-0.548,0.254-0.825,0.381L44.309,24.387z M32.717,9.779c0.274-0.148,0.55-0.294,0.827-0.433l0.813,1.619   c-0.259,0.131-0.519,0.265-0.776,0.405L32.717,9.779z M45.931,23.627c0.269-0.13,0.534-0.261,0.793-0.393l0.824,1.614   c-0.272,0.138-0.547,0.275-0.829,0.41L45.931,23.627z M34.386,8.941c0.286-0.131,0.571-0.258,0.857-0.377l0.7,1.672   c-0.267,0.111-0.533,0.228-0.799,0.351L34.386,8.941z M47.496,22.824c0.256-0.142,0.505-0.286,0.747-0.434l0.947,1.545   c-0.264,0.162-0.537,0.319-0.817,0.475L47.496,22.824z M36.115,8.217c0.294-0.11,0.589-0.215,0.883-0.313l0.576,1.717   c-0.274,0.092-0.547,0.19-0.821,0.292L36.115,8.217z M48.951,21.925c0.237-0.166,0.458-0.334,0.658-0.502l1.162,1.391   c-0.239,0.199-0.501,0.399-0.779,0.593L48.951,21.925z M37.897,7.622c0.303-0.088,0.607-0.169,0.91-0.245l0.433,1.76   c-0.279,0.068-0.558,0.143-0.838,0.225L37.897,7.622z M50.695,20.282l1.473,1.055c-0.193,0.271-0.416,0.538-0.662,0.793   l-1.307-1.253C50.384,20.683,50.551,20.482,50.695,20.282z M39.729,7.172c0.313-0.062,0.625-0.117,0.935-0.163l0.266,1.792   c-0.28,0.042-0.563,0.091-0.847,0.147L39.729,7.172z M51.332,18.956l1.751,0.465c-0.091,0.344-0.218,0.683-0.373,1.007   l-1.632-0.786C51.185,19.42,51.27,19.189,51.332,18.956z M41.608,6.893c0.322-0.031,0.641-0.051,0.954-0.063L42.63,8.64   c-0.281,0.01-0.565,0.029-0.852,0.056L41.608,6.893z M51.467,17.949L51.467,17.949c0.004-0.293,0-0.58-0.01-0.859l1.811-0.268   C53.271,16.948,53.275,17,53.277,17h0.008L53,17.975c0,0.003,0,0.006,0,0.009v0.032l0,0c0,0,0,0.003,0,0.003l0,0   c0,0.119,0.13,0.234,0.123,0.348l-1.738-0.137C51.393,18.138,51.465,18.044,51.467,17.949z M43.525,6.824   c0.327,0.009,0.652,0.03,0.967,0.061l-0.179,1.802c-0.271-0.026-0.553-0.044-0.838-0.052L43.525,6.824z M51.297,15.4l1.789-0.284   c0.049,0.308,0.09,0.629,0.119,0.954l-1.803,0.168C51.375,15.952,51.34,15.671,51.297,15.4z M45.458,7.019   c0.328,0.059,0.65,0.131,0.958,0.214L45.94,8.982c-0.258-0.071-0.528-0.131-0.804-0.181L45.458,7.019z M50.916,13.779l1.723-0.557   c0.098,0.304,0.186,0.621,0.262,0.942l-1.764,0.413C51.072,14.305,50.999,14.036,50.916,13.779z M47.36,7.541   c0.313,0.12,0.621,0.256,0.914,0.405L47.451,9.56c-0.234-0.119-0.482-0.23-0.736-0.326L47.36,7.541z M50.271,12.284l1.582-0.882   c0.159,0.285,0.307,0.586,0.438,0.895l-1.664,0.715C50.519,12.76,50.399,12.515,50.271,12.284z M49.143,8.453   c0.281,0.187,0.553,0.392,0.808,0.61l-1.178,1.376c-0.199-0.17-0.413-0.331-0.633-0.478L49.143,8.453z M49.341,10.99l1.336-1.223   c0.226,0.246,0.44,0.511,0.636,0.786l-1.472,1.055C49.687,11.391,49.518,11.183,49.341,10.99z"/>
</g>
<ellipse transform="matrix(-0.6855 -0.7281 0.7281 -0.6855 60.1889 59.4232)" cx="42.929" cy="16.711" rx="4.755" ry="4.529"/>
<g>
	<path d="M49.825,89.851c-1.746-2.621-2.111-5.6-1-8.172c1.369-3.169,4.705-5.351,9.393-6.143c3.777-0.639,6.8-4.316,9.413-7.923   C70.677,63.413,73,59.069,79,60.303v-0.004l-0.374-0.203c0.005,0.002,0.29-0.096,0.29-0.096H79v0.296l0.174,0.079   c0.015,0.005,0.177,0.009,0.191,0.014L80,60.527v0.002c0,0.003-0.283-0.011-0.236,0.009c3.672,1.141,6.204,2.986,7.902,5.536   c3.488,5.237,2.079,13.131-3.444,20.13c-5.836,7.396-16.289,13.188-26.379,9.472C54.293,94.366,51.488,92.349,49.825,89.851z    M78.08,61.918L78.08,61.918c-3.755-0.975-6.322,2.575-9.292,6.671c-2.827,3.899-5.755,7.95-10.264,8.714   c-4.062,0.688-6.916,2.499-8.034,5.085c-0.875,2.026-0.577,4.321,0.842,6.454c1.45,2.177,3.901,3.95,7.09,5.125   c9.237,3.402,18.852-2.016,24.282-8.897c5.028-6.371,6.319-13.48,3.274-18.053c-1.566-2.351-4.179-4.134-7.825-5.08L78.08,61.918z"/>
</g>
<g>
	<path d="M52.588,89.096c-0.184-0.288-0.35-0.588-0.493-0.892l1.64-0.771c0.11,0.233,0.238,0.464,0.38,0.688L52.588,89.096z    M53.184,89.914l1.398-1.151c0.168,0.204,0.354,0.405,0.547,0.595l-1.271,1.293C53.619,90.415,53.393,90.167,53.184,89.914z    M51.724,87.238c-0.103-0.333-0.179-0.674-0.226-1.016l1.793-0.258c0.035,0.251,0.091,0.501,0.164,0.747L51.724,87.238z    M54.596,91.31l1.143-1.406c0.211,0.171,0.434,0.337,0.665,0.494l-1.021,1.498C55.111,91.71,54.846,91.512,54.596,91.31z    M56.209,92.411l0.899-1.572c0.238,0.138,0.486,0.27,0.747,0.395l-0.793,1.63C56.771,92.723,56.486,92.57,56.209,92.411z    M51.432,85.175c0.006-0.349,0.043-0.701,0.105-1.043l1.782,0.326c-0.046,0.247-0.07,0.5-0.075,0.753L51.432,85.175z    M57.939,93.256l0.689-1.676c0.256,0.106,0.521,0.205,0.797,0.301l-0.592,1.713C58.525,93.487,58.227,93.374,57.939,93.256z    M51.807,83.122c0.113-0.323,0.254-0.643,0.417-0.95l1.601,0.85c-0.121,0.229-0.227,0.465-0.309,0.702L51.807,83.122z    M59.742,93.881l0.496-1.742c0.273,0.076,0.547,0.146,0.821,0.205l-0.384,1.771C60.361,94.046,60.048,93.968,59.742,93.881z    M52.768,81.301c0.193-0.269,0.41-0.532,0.645-0.784l1.327,1.233c-0.183,0.197-0.353,0.403-0.503,0.61L52.768,81.301z    M61.619,94.289l0.274-1.791c0.28,0.043,0.56,0.077,0.842,0.104l-0.165,1.804C62.253,94.377,61.936,94.339,61.619,94.289z    M63.527,94.465l0.058-1.811c0.283,0.009,0.567,0.01,0.853,0.003l0.043,1.812C64.162,94.476,63.844,94.476,63.527,94.465z    M54.135,79.821c0.245-0.21,0.508-0.415,0.783-0.609l1.044,1.481c-0.228,0.159-0.444,0.327-0.644,0.5L54.135,79.821z    M65.434,94.421l-0.145-1.809c0.283-0.021,0.568-0.053,0.852-0.091l0.239,1.797C66.065,94.36,65.751,94.395,65.434,94.421z    M56.656,80.25l-0.909-1.567c0.275-0.161,0.565-0.313,0.86-0.455l0.785,1.632C57.139,79.981,56.891,80.112,56.656,80.25z    M67.319,94.169l-0.332-1.782c0.281-0.052,0.563-0.11,0.843-0.178l0.416,1.765C67.938,94.045,67.629,94.11,67.319,94.169z    M58.164,79.521l-0.67-1.683c0.295-0.117,0.6-0.228,0.904-0.328l0.562,1.723C58.685,79.323,58.42,79.42,58.164,79.521z    M69.163,93.732l-0.499-1.74c0.275-0.08,0.551-0.165,0.825-0.257l0.574,1.72C69.766,93.554,69.465,93.646,69.163,93.732z    M59.778,78.992l-0.465-1.751c0.3-0.08,0.606-0.153,0.925-0.221l0.375,1.771C60.328,78.854,60.049,78.92,59.778,78.992z    M70.95,93.136l-0.646-1.692c0.27-0.103,0.538-0.212,0.804-0.326l0.717,1.663C71.534,92.904,71.245,93.024,70.95,93.136z    M61.579,78.542l-0.559-1.723c0.247-0.081,0.499-0.179,0.745-0.291l0.751,1.648C62.206,78.317,61.892,78.439,61.579,78.542z    M72.681,92.392l-0.78-1.633c0.261-0.125,0.52-0.255,0.778-0.391l0.841,1.604C73.242,92.117,72.963,92.258,72.681,92.392z    M63.401,77.716l-0.915-1.563c0.152-0.089,0.302-0.185,0.449-0.282c0.081-0.054,0.161-0.108,0.241-0.166l1.051,1.476   c-0.096,0.067-0.191,0.134-0.288,0.198C63.763,77.497,63.583,77.61,63.401,77.716z M74.343,91.521l-0.901-1.572   c0.255-0.145,0.505-0.292,0.752-0.446l0.952,1.542C74.881,91.207,74.613,91.366,74.343,91.521z M63.844,75.195   c0.217-0.18,0.429-0.367,0.638-0.561l1.235,1.325c-0.235,0.22-0.476,0.43-0.722,0.632L63.844,75.195z M75.759,90.655l-1.005-1.508   c0,0,0.569-0.386,0.807-0.556l1.01,1.501C76.316,90.275,75.759,90.655,75.759,90.655z M65.098,74.033   c0.2-0.207,0.397-0.419,0.594-0.634l1.346,1.212c-0.212,0.235-0.427,0.464-0.645,0.685L65.098,74.033z M76.349,88.013   c0.231-0.178,0.461-0.359,0.687-0.544l1.147,1.401c-0.24,0.196-0.483,0.39-0.729,0.58L76.349,88.013z M66.27,72.737   c0.19-0.224,0.378-0.451,0.564-0.68l1.406,1.144c-0.195,0.238-0.392,0.477-0.591,0.711L66.27,72.737z M77.702,86.904   c0.221-0.192,0.438-0.387,0.65-0.586l1.235,1.325c-0.229,0.21-0.458,0.42-0.692,0.625L77.702,86.904z M67.393,71.361   c0.184-0.235,0.369-0.472,0.553-0.706l1.431,1.11c-0.187,0.239-0.374,0.479-0.562,0.719L67.393,71.361z M78.983,85.713   c0.208-0.205,0.412-0.415,0.612-0.627l1.315,1.245c-0.213,0.225-0.431,0.447-0.651,0.668L78.983,85.713z M68.498,69.94   c0.187-0.242,0.374-0.482,0.559-0.719l1.426,1.117c-0.184,0.234-0.367,0.472-0.552,0.71L68.498,69.94z M80.186,84.441   c0.196-0.22,0.384-0.441,0.571-0.665l1.393,1.158c-0.197,0.239-0.4,0.474-0.607,0.708L80.186,84.441z M69.627,68.504   c0.196-0.243,0.391-0.48,0.587-0.714l1.387,1.166c-0.188,0.224-0.375,0.453-0.563,0.685L69.627,68.504z M81.304,83.095   c0.18-0.23,0.353-0.463,0.522-0.698l1.47,1.059c-0.181,0.252-0.369,0.503-0.561,0.75L81.304,83.095z M70.828,67.086   c0.214-0.238,0.43-0.47,0.647-0.69l1.29,1.272c-0.199,0.202-0.395,0.411-0.592,0.628L70.828,67.086z M82.323,81.68   c0.162-0.244,0.319-0.487,0.471-0.733l1.542,0.95c-0.163,0.264-0.33,0.526-0.506,0.789L82.323,81.68z M72.17,65.733   c0.252-0.228,0.506-0.437,0.754-0.625l1.093,1.446c-0.209,0.158-0.423,0.335-0.639,0.527L72.17,65.733z M83.232,80.199   c0.144-0.255,0.279-0.511,0.409-0.766l1.616,0.819c-0.142,0.277-0.29,0.556-0.444,0.831L83.232,80.199z M74.683,66.104   l-0.927-1.556c0.306-0.184,0.616-0.339,0.923-0.466l0.694,1.673C75.146,65.851,74.914,65.968,74.683,66.104z M84.015,78.654   c0.12-0.264,0.232-0.528,0.336-0.791l1.686,0.665c-0.115,0.289-0.239,0.582-0.37,0.872L84.015,78.654z M76.084,65.527l-0.397-1.768   c0.352-0.079,0.71-0.125,1.065-0.136l0.058,1.811C76.567,65.443,76.323,65.474,76.084,65.527z M84.644,77.06   c0.092-0.272,0.175-0.544,0.247-0.816l1.749,0.475c-0.083,0.304-0.175,0.609-0.276,0.916L84.644,77.06z M77.544,65.479l0.277-1.663   c0.113,0.017,0.23,0.189,0.346,0.189l0,0h0.002l0,0l0.03-0.128c0.004,0,0.006-0.066,0.01-0.066l0.508,0.092l-0.002-0.008   c0-0.001,0.27,0.06,0.391,0.093l-0.463,1.747c-0.269-0.073-0.541-0.141-0.828-0.202l0,0C77.723,65.513,77.635,65.494,77.544,65.479   z M85.087,75.421c0.057-0.279,0.104-0.559,0.139-0.827l1.796,0.233c-0.04,0.313-0.094,0.634-0.159,0.955L85.087,75.421z    M79.471,65.981l0.572-1.72c0.31,0.103,0.613,0.215,0.902,0.332l-0.681,1.679C80.011,66.17,79.746,66.072,79.471,65.981z    M85.302,73.765c0.013-0.279,0.016-0.557,0.005-0.824l1.812-0.067c0.011,0.32,0.009,0.649-0.009,0.981L85.302,73.765z    M81.029,66.615l0.802-1.625c0.296,0.146,0.586,0.304,0.858,0.468l-0.931,1.553C81.526,66.872,81.281,66.738,81.029,66.615z    M85.236,72.131c-0.036-0.27-0.088-0.537-0.15-0.792l1.758-0.437c0.079,0.318,0.143,0.648,0.188,0.981L85.236,72.131z    M82.44,67.464l1.072-1.459c0.271,0.199,0.531,0.41,0.772,0.631l-1.217,1.342C82.872,67.799,82.661,67.627,82.44,67.464z    M84.85,70.577c-0.094-0.247-0.201-0.491-0.322-0.725l1.606-0.836c0.154,0.298,0.293,0.608,0.411,0.925L84.85,70.577z    M83.63,68.547l1.361-1.195c0.224,0.255,0.432,0.522,0.622,0.798l-1.494,1.024C83.971,68.958,83.807,68.748,83.63,68.547z"/>
</g>
<ellipse transform="matrix(0.5544 0.8323 -0.8323 0.5544 96.0477 -31.132)" cx="77.096" cy="74.127" rx="4.755" ry="4.529"/>
<g>
	<path d="M30.363,90.577c-10.746,0.392-18.831-8.356-22.075-17.201c-3.07-8.37-1.86-16.292,3.085-20.183   c2.408-1.896,5.602-2.812,9.447-2.751c0.051-0.005,0.18,0.01,0.18,0.006v-0.003l0.129-0.003c0.017,0.001,0.019-0.006,0.035-0.004   l0.664,0.022L22,50.348v-0.114c0,0-0.267,0.001-0.261,0.001L22,50.501v0.003c4,0.301,6.553,5.479,8.14,10.418   c1.36,4.24,2.733,8.614,6.126,10.398c4.207,2.213,6.679,5.318,6.994,8.757c0.257,2.791-1.027,5.504-3.502,7.452   C37.397,89.387,34.145,90.439,30.363,90.577z M21.509,52.264c-3.763-0.186-6.795,0.605-9.016,2.354   c-4.316,3.396-5.3,10.516-2.504,18.135c3.02,8.23,10.47,16.373,20.308,16.015c3.395-0.124,6.276-1.045,8.332-2.663   c2.014-1.584,3.011-3.667,2.809-5.865c-0.258-2.806-2.406-5.406-6.052-7.322c-4.047-2.129-5.571-6.87-7.045-11.456   c-1.546-4.815-2.883-8.976-6.756-9.192l0,0L21.509,52.264z"/>
</g>
<g>
	<path d="M36.211,84.547c0.204-0.166,0.397-0.347,0.575-0.533l1.318,1.242c-0.231,0.244-0.482,0.479-0.746,0.694L36.211,84.547z    M35.666,87.032l-0.805-1.624c0.244-0.12,0.481-0.253,0.705-0.396l0.97,1.53C36.261,86.718,35.968,86.883,35.666,87.032z    M37.275,83.414c0.146-0.209,0.277-0.431,0.39-0.658l1.624,0.805c-0.152,0.309-0.332,0.608-0.531,0.895L37.275,83.414z    M33.831,87.74L33.326,86c0.268-0.077,0.532-0.167,0.786-0.263l0.648,1.692C34.46,87.545,34.146,87.65,33.831,87.74z    M31.934,88.138l-0.246-1.794c0.285-0.04,0.563-0.088,0.831-0.145l0.366,1.776C32.572,88.04,32.252,88.094,31.934,88.138z    M37.944,82.054c0.073-0.241,0.129-0.488,0.162-0.738l1.795,0.243c-0.047,0.346-0.123,0.691-0.225,1.025L37.944,82.054z    M30.022,88.28l-0.03-1.811c0.291-0.006,0.574-0.018,0.852-0.038l0.133,1.806C30.667,88.261,30.348,88.275,30.022,88.28z    M38.148,80.557c-0.005-0.251-0.031-0.509-0.074-0.763l1.785-0.31c0.06,0.343,0.092,0.689,0.101,1.032L38.148,80.557z    M28.11,88.202l0.186-1.802c0.278,0.027,0.562,0.049,0.845,0.061l-0.071,1.811C28.751,88.26,28.43,88.235,28.11,88.202z    M37.888,79.037c-0.078-0.245-0.176-0.492-0.288-0.737l1.646-0.758c0.144,0.311,0.267,0.629,0.367,0.944L37.888,79.037z    M26.22,87.89l0.403-1.766c0.276,0.063,0.554,0.117,0.833,0.164l-0.298,1.787C26.843,88.022,26.529,87.961,26.22,87.89z    M24.384,87.354l0.605-1.707c0.268,0.096,0.538,0.183,0.811,0.262l-0.509,1.739C24.986,87.559,24.684,87.461,24.384,87.354z    M37.223,77.591c-0.136-0.228-0.29-0.454-0.456-0.677l1.452-1.083c0.202,0.271,0.388,0.546,0.555,0.823L37.223,77.591z    M22.626,86.622l0.786-1.633c0.257,0.123,0.518,0.241,0.781,0.35l-0.7,1.674C23.2,86.889,22.911,86.759,22.626,86.622z    M35.666,75.678l1.254-1.309c0.238,0.229,0.464,0.462,0.676,0.701l-1.351,1.207C36.065,76.074,35.869,75.871,35.666,75.678z    M20.96,85.713l0.943-1.547c0.246,0.148,0.494,0.294,0.745,0.432l-0.869,1.588C21.503,86.036,21.229,85.876,20.96,85.713z    M34.372,74.596l1.068-1.463c0.26,0.19,0.515,0.389,0.76,0.592l-1.162,1.391C34.827,74.939,34.605,74.766,34.372,74.596z    M19.394,84.652l1.081-1.453c0.231,0.172,0.468,0.339,0.704,0.5l-1.016,1.499C19.903,85.023,19.646,84.84,19.394,84.652z    M32.937,73.66l0.91-1.566c0.28,0.163,0.549,0.329,0.809,0.498l-0.987,1.518C33.435,73.957,33.19,73.809,32.937,73.66z    M17.93,83.465l1.2-1.357c0.216,0.192,0.437,0.378,0.661,0.559l-1.142,1.409C18.405,83.877,18.167,83.673,17.93,83.465z    M31.319,72.483l1.228-1.335c0.2,0.186,0.409,0.356,0.619,0.51l-1.067,1.464C31.833,72.928,31.572,72.713,31.319,72.483z    M16.57,82.169l1.299-1.262c0.203,0.209,0.409,0.413,0.618,0.613l-1.251,1.31C17.011,82.613,16.789,82.395,16.57,82.169z    M30.217,71.281c-0.072-0.09-0.143-0.184-0.213-0.276l1.457-1.075c0.059,0.079,0.119,0.155,0.179,0.232   c0.11,0.14,0.223,0.275,0.34,0.407l-1.357,1.201C30.483,71.613,30.348,71.45,30.217,71.281z M15.314,80.782l1.385-1.169   c0.188,0.224,0.379,0.441,0.574,0.657l-1.345,1.215C15.72,81.254,15.516,81.021,15.314,80.782z M29.457,70.207   c-0.169-0.27-0.332-0.544-0.487-0.827l1.587-0.875c0.137,0.251,0.28,0.495,0.431,0.731L29.457,70.207z M14.256,79.435l1.428-1.112   c0.173,0.234,0.593,0.778,0.593,0.778l-1.423,1.121C14.854,80.222,14.44,79.688,14.256,79.435z M28.532,68.54   c-0.138-0.278-0.27-0.563-0.397-0.851l1.656-0.734c0.117,0.265,0.241,0.529,0.367,0.786L28.532,68.54z M13.618,78.548   c-0.176-0.257-0.348-0.517-0.515-0.778l1.527-0.974c0.157,0.245,0.318,0.489,0.483,0.729L13.618,78.548z M27.771,66.832   c-0.117-0.283-0.23-0.57-0.34-0.859l1.691-0.648c0.105,0.275,0.214,0.55,0.325,0.822L27.771,66.832z M12.614,76.977   c-0.159-0.268-0.313-0.538-0.463-0.809l1.586-0.876c0.141,0.256,0.286,0.508,0.435,0.758L12.614,76.977z M27.107,65.113   c-0.104-0.285-0.207-0.571-0.311-0.857l1.705-0.611c0.103,0.282,0.203,0.563,0.308,0.846L27.107,65.113z M11.713,75.345   c-0.142-0.276-0.278-0.556-0.41-0.837l1.637-0.773c0.125,0.265,0.254,0.525,0.388,0.785L11.713,75.345z M26.493,63.402   c-0.101-0.285-0.201-0.567-0.304-0.847l1.703-0.618c0.103,0.284,0.204,0.57,0.307,0.855L26.493,63.402z M10.917,73.657   c-0.124-0.287-0.244-0.575-0.357-0.862l1.685-0.666c0.107,0.27,0.218,0.54,0.335,0.809L10.917,73.657z M25.879,61.719   c-0.105-0.279-0.213-0.555-0.321-0.824l1.681-0.678c0.113,0.283,0.226,0.569,0.335,0.861L25.879,61.719z M10.229,71.92   c-0.105-0.296-0.206-0.591-0.299-0.887l1.727-0.549c0.088,0.275,0.18,0.551,0.279,0.826L10.229,71.92z M25.218,60.089   c-0.119-0.268-0.24-0.529-0.366-0.782l1.622-0.807c0.138,0.277,0.271,0.563,0.4,0.855L25.218,60.089z M9.661,70.135   c-0.084-0.303-0.162-0.605-0.234-0.908l1.762-0.422c0.067,0.281,0.141,0.562,0.219,0.844L9.661,70.135z M24.451,58.561   c-0.145-0.252-0.293-0.487-0.442-0.701l1.488-1.034c0.178,0.257,0.354,0.534,0.522,0.829L24.451,58.561z M9.226,68.307   c-0.061-0.31-0.114-0.619-0.163-0.928l1.791-0.276c0.044,0.284,0.094,0.569,0.15,0.854L9.226,68.307z M22.969,56.678l1.181-1.374   c0.252,0.217,0.498,0.462,0.73,0.729l-1.363,1.191C23.34,57.022,23.155,56.84,22.969,56.678z M8.94,66.441   c-0.034-0.317-0.062-0.632-0.08-0.945l1.809-0.105c0.017,0.281,0.041,0.568,0.072,0.855L8.94,66.441z M21.703,55.926l0.618-1.703   c0.334,0.121,0.661,0.277,0.971,0.461l-0.928,1.557C22.153,56.113,21.93,56.009,21.703,55.926z M8.828,64.545   c-0.002-0.322,0.006-0.643,0.021-0.955l1.81,0.093c-0.016,0.28-0.021,0.565-0.02,0.853L8.828,64.545z M20.713,55.703L20.713,55.703   c-0.292-0.03-0.578-0.052-0.856-0.066l-0.071-1.827C19.912,53.816,20,53.817,20,53.815v-0.008L20.873,54c0.004,0,0.006,0,0.01,0   h0.031l0,0c0.001,0,0.003,0,0.003,0l0,0c0.118,0,0.245-0.018,0.357-0.001l-0.289,1.765C20.894,55.748,20.807,55.713,20.713,55.703z    M8.93,62.63c0.037-0.324,0.087-0.647,0.146-0.958l1.779,0.339c-0.051,0.269-0.094,0.546-0.126,0.829L8.93,62.63z M18.159,55.646   l-0.125-1.807c0.312-0.021,0.635-0.034,0.961-0.035l0.009,1.811C18.715,55.617,18.433,55.628,18.159,55.646z M9.294,60.723   c0.088-0.321,0.188-0.636,0.298-0.936l1.7,0.628c-0.094,0.251-0.178,0.515-0.252,0.784L9.294,60.723z M16.51,55.883l-0.402-1.766   c0.312-0.07,0.636-0.129,0.962-0.177l0.256,1.793C17.048,55.773,16.773,55.824,16.51,55.883z M9.981,58.874   c0.147-0.302,0.31-0.596,0.484-0.874l1.535,0.961c-0.14,0.223-0.271,0.461-0.39,0.705L9.981,58.874z M14.964,56.394l-0.738-1.653   c0.298-0.134,0.61-0.254,0.93-0.357l0.564,1.721C15.46,56.188,15.205,56.285,14.964,56.394z M11.048,57.179   c0.211-0.264,0.439-0.517,0.68-0.751l1.266,1.295c-0.187,0.184-0.366,0.383-0.531,0.588L11.048,57.179z M13.593,57.205   l-1.101-1.439c0.265-0.202,0.548-0.393,0.839-0.564l0.921,1.56C14.022,56.896,13.801,57.047,13.593,57.205z"/>
</g>
<ellipse transform="matrix(-0.7858 0.6185 -0.6185 -0.7858 73.0807 102.8856)" cx="18.725" cy="64.097" rx="4.755" ry="4.529"/>
</svg>