<svg xmlns="http://www.w3.org/2000/svg" xmlns:xlink="http://www.w3.org/1999/xlink" version="1.1" id="Capa_1" x="0px" y="0px" width="100px" height="100px" viewBox="0 0 100 100" enable-background="new 0 0 100 100" xml:space="preserve">
<g id="Capa_33" display="none">
</g>
<g id="Capa_23">
	<g>
		<g>
			<path d="M97.759,25.645c-1.214,0-2.198-0.989-2.198-2.201c0-1.215,0.984-2.2,2.198-2.2c1.216,0,2.201,0.984,2.201,2.2     C99.96,24.655,98.975,25.645,97.759,25.645z"/>
			<circle cx="97.759" cy="28.754" r="2.198"/>
			<circle cx="97.759" cy="34.065" r="2.198"/>
			<circle cx="97.759" cy="39.377" r="2.199"/>
		</g>
		<g>
			<path d="M92.452,25.645c-1.216,0-2.196-0.989-2.196-2.201c0-1.215,0.98-2.2,2.196-2.2c1.215,0,2.198,0.984,2.198,2.2     C94.65,24.655,93.667,25.645,92.452,25.645z"/>
			<circle cx="92.452" cy="28.754" r="2.198"/>
			<circle cx="92.452" cy="34.065" r="2.198"/>
			<circle cx="92.452" cy="39.377" r="2.199"/>
			<path d="M92.452,57.511c-1.216,0-2.196-0.985-2.196-2.202c0-1.214,0.98-2.195,2.196-2.195c1.215,0,2.198,0.981,2.198,2.195     C94.65,56.523,93.667,57.511,92.452,57.511z"/>
			<circle cx="92.452" cy="60.623" r="2.2"/>
			<circle cx="92.452" cy="65.934" r="2.199"/>
			<circle cx="92.452" cy="71.245" r="2.2"/>
		</g>
		<g>
			<circle cx="87.146" cy="18.132" r="2.2"/>
			<path d="M87.146,25.645c-1.215,0-2.201-0.989-2.201-2.201c0-1.215,0.986-2.2,2.201-2.2s2.199,0.984,2.199,2.2     C89.346,24.655,88.361,25.645,87.146,25.645z"/>
			<circle cx="87.146" cy="28.754" r="2.198"/>
			<circle cx="87.146" cy="34.065" r="2.198"/>
			<circle cx="87.146" cy="39.377" r="2.199"/>
			<path d="M87.146,46.886c-1.215,0-2.201-0.982-2.201-2.196c0-1.217,0.986-2.2,2.201-2.2s2.199,0.983,2.199,2.2     C89.346,45.903,88.361,46.886,87.146,46.886z"/>
			<path d="M87.146,57.511c-1.215,0-2.201-0.985-2.201-2.202c0-1.214,0.986-2.195,2.201-2.195s2.199,0.981,2.199,2.195     C89.346,56.523,88.361,57.511,87.146,57.511z"/>
			<circle cx="87.146" cy="60.623" r="2.2"/>
			<circle cx="87.146" cy="65.934" r="2.199"/>
			<circle cx="87.146" cy="71.245" r="2.2"/>
		</g>
		<g>
			<circle cx="81.84" cy="18.132" r="2.2"/>
			<path d="M81.84,25.645c-1.214,0-2.199-0.989-2.199-2.201c0-1.215,0.985-2.2,2.199-2.2c1.213,0,2.199,0.984,2.199,2.2     C84.039,24.655,83.053,25.645,81.84,25.645z"/>
			<circle cx="81.84" cy="28.754" r="2.198"/>
			<circle cx="81.84" cy="34.065" r="2.198"/>
			<circle cx="81.84" cy="39.377" r="2.199"/>
			<path d="M81.84,46.886c-1.214,0-2.199-0.982-2.199-2.196c0-1.217,0.985-2.2,2.199-2.2c1.213,0,2.199,0.983,2.199,2.2     C84.039,45.903,83.053,46.886,81.84,46.886z"/>
			<circle cx="81.84" cy="50" r="2.2"/>
			<path d="M81.84,57.511c-1.214,0-2.199-0.985-2.199-2.202c0-1.214,0.985-2.195,2.199-2.195c1.213,0,2.199,0.981,2.199,2.195     C84.039,56.523,83.053,57.511,81.84,57.511z"/>
			<circle cx="81.84" cy="60.623" r="2.2"/>
			<circle cx="81.84" cy="65.934" r="2.199"/>
			<circle cx="81.84" cy="71.245" r="2.2"/>
		</g>
		<g>
			<path d="M76.531,15.019c-1.213,0-2.195-0.986-2.195-2.199c0-1.215,0.982-2.199,2.195-2.199c1.217,0,2.199,0.984,2.199,2.199     C78.73,14.033,77.748,15.019,76.531,15.019z"/>
			<path d="M76.531,20.332c-1.213,0-2.195-0.986-2.195-2.2c0-1.216,0.982-2.201,2.195-2.201c1.217,0,2.199,0.984,2.199,2.201     C78.73,19.346,77.748,20.332,76.531,20.332z"/>
			<path d="M76.531,25.645c-1.213,0-2.195-0.989-2.195-2.201c0-1.215,0.982-2.2,2.195-2.2c1.217,0,2.199,0.984,2.199,2.2     C78.73,24.655,77.748,25.645,76.531,25.645z"/>
			<path d="M76.531,30.953c-1.213,0-2.195-0.984-2.195-2.198c0-1.217,0.982-2.199,2.195-2.199c1.217,0,2.199,0.982,2.199,2.199     C78.73,29.968,77.748,30.953,76.531,30.953z"/>
			<path d="M76.531,36.264c-1.213,0-2.195-0.986-2.195-2.199s0.982-2.198,2.195-2.198c1.217,0,2.199,0.984,2.199,2.198     S77.748,36.264,76.531,36.264z"/>
			<path d="M76.531,41.577c-1.213,0-2.195-0.986-2.195-2.2c0-1.216,0.982-2.199,2.195-2.199c1.217,0,2.199,0.983,2.199,2.199     C78.73,40.59,77.748,41.577,76.531,41.577z"/>
			<path d="M76.531,46.886c-1.213,0-2.195-0.982-2.195-2.196c0-1.217,0.982-2.2,2.195-2.2c1.217,0,2.199,0.983,2.199,2.2     C78.73,45.903,77.748,46.886,76.531,46.886z"/>
			<path d="M76.531,52.199c-1.213,0-2.195-0.986-2.195-2.2c0-1.215,0.982-2.2,2.195-2.2c1.217,0,2.199,0.984,2.199,2.2     C78.73,51.213,77.748,52.199,76.531,52.199z"/>
			<path d="M76.531,57.511c-1.213,0-2.195-0.985-2.195-2.202c0-1.214,0.982-2.195,2.195-2.195c1.217,0,2.199,0.981,2.199,2.195     C78.73,56.523,77.748,57.511,76.531,57.511z"/>
			<path d="M76.531,62.822c-1.213,0-2.195-0.983-2.195-2.2c0-1.216,0.982-2.199,2.195-2.199c1.217,0,2.199,0.983,2.199,2.199     C78.73,61.839,77.748,62.822,76.531,62.822z"/>
			<path d="M76.531,68.133c-1.213,0-2.195-0.986-2.195-2.199c0-1.217,0.982-2.199,2.195-2.199c1.217,0,2.199,0.982,2.199,2.199     C78.73,67.146,77.748,68.133,76.531,68.133z"/>
			<path d="M76.531,73.443c-1.213,0-2.195-0.985-2.195-2.198c0-1.214,0.982-2.2,2.195-2.2c1.217,0,2.199,0.986,2.199,2.2     C78.73,72.458,77.748,73.443,76.531,73.443z"/>
		</g>
		<g>
			<path d="M71.227,9.707c-1.213,0-2.197-0.983-2.197-2.198c0-1.213,0.984-2.2,2.197-2.2c1.217,0,2.2,0.986,2.2,2.2     C73.427,8.724,72.443,9.707,71.227,9.707z"/>
			<path d="M71.227,15.019c-1.213,0-2.197-0.986-2.197-2.199c0-1.215,0.984-2.199,2.197-2.199c1.217,0,2.2,0.984,2.2,2.199     C73.427,14.033,72.443,15.019,71.227,15.019z"/>
			<path d="M71.227,20.332c-1.213,0-2.197-0.986-2.197-2.2c0-1.216,0.984-2.201,2.197-2.201c1.217,0,2.2,0.984,2.2,2.201     C73.427,19.346,72.443,20.332,71.227,20.332z"/>
			<path d="M71.227,25.645c-1.213,0-2.197-0.989-2.197-2.201c0-1.215,0.984-2.2,2.197-2.2c1.217,0,2.2,0.984,2.2,2.2     C73.427,24.655,72.443,25.645,71.227,25.645z"/>
			<path d="M71.227,30.953c-1.213,0-2.197-0.984-2.197-2.198c0-1.217,0.984-2.199,2.197-2.199c1.217,0,2.2,0.982,2.2,2.199     C73.427,29.968,72.443,30.953,71.227,30.953z"/>
			<path d="M71.227,36.264c-1.213,0-2.197-0.986-2.197-2.199s0.984-2.198,2.197-2.198c1.217,0,2.2,0.984,2.2,2.198     S72.443,36.264,71.227,36.264z"/>
			<path d="M71.227,41.577c-1.213,0-2.197-0.986-2.197-2.2c0-1.216,0.984-2.199,2.197-2.199c1.217,0,2.2,0.983,2.2,2.199     C73.427,40.59,72.443,41.577,71.227,41.577z"/>
			<path d="M71.227,46.886c-1.213,0-2.197-0.982-2.197-2.196c0-1.217,0.984-2.2,2.197-2.2c1.217,0,2.2,0.983,2.2,2.2     C73.427,45.903,72.443,46.886,71.227,46.886z"/>
			<path d="M71.227,52.199c-1.213,0-2.197-0.986-2.197-2.2c0-1.215,0.984-2.2,2.197-2.2c1.217,0,2.2,0.984,2.2,2.2     C73.427,51.213,72.443,52.199,71.227,52.199z"/>
			<path d="M71.227,57.511c-1.213,0-2.197-0.985-2.197-2.202c0-1.214,0.984-2.195,2.197-2.195c1.217,0,2.2,0.981,2.2,2.195     C73.427,56.523,72.443,57.511,71.227,57.511z"/>
			<path d="M71.227,62.822c-1.213,0-2.197-0.983-2.197-2.2c0-1.216,0.984-2.199,2.197-2.199c1.217,0,2.2,0.983,2.2,2.199     C73.427,61.839,72.443,62.822,71.227,62.822z"/>
			<path d="M71.227,68.133c-1.213,0-2.197-0.986-2.197-2.199c0-1.217,0.984-2.199,2.197-2.199c1.217,0,2.2,0.982,2.2,2.199     C73.427,67.146,72.443,68.133,71.227,68.133z"/>
			<path d="M71.227,73.443c-1.213,0-2.197-0.985-2.197-2.198c0-1.214,0.984-2.2,2.197-2.2c1.217,0,2.2,0.986,2.2,2.2     C73.427,72.458,72.443,73.443,71.227,73.443z"/>
		</g>
		<g>
			<circle cx="65.921" cy="7.508" r="2.199"/>
			<circle cx="65.921" cy="12.82" r="2.199"/>
			<circle cx="65.921" cy="18.132" r="2.2"/>
			<path d="M65.921,25.645c-1.215,0-2.198-0.989-2.198-2.201c0-1.215,0.983-2.2,2.198-2.2c1.216,0,2.197,0.984,2.197,2.2     C68.118,24.655,67.137,25.645,65.921,25.645z"/>
			<circle cx="65.921" cy="28.754" r="2.198"/>
			<circle cx="65.921" cy="34.065" r="2.198"/>
			<circle cx="65.921" cy="39.377" r="2.199"/>
			<path d="M65.921,46.886c-1.215,0-2.198-0.982-2.198-2.196c0-1.217,0.983-2.2,2.198-2.2c1.216,0,2.197,0.983,2.197,2.2     C68.118,45.903,67.137,46.886,65.921,46.886z"/>
			<circle cx="65.921" cy="50" r="2.2"/>
			<path d="M65.921,57.511c-1.215,0-2.198-0.985-2.198-2.202c0-1.214,0.983-2.195,2.198-2.195c1.216,0,2.197,0.981,2.197,2.195     C68.118,56.523,67.137,57.511,65.921,57.511z"/>
			<circle cx="65.921" cy="60.623" r="2.2"/>
			<circle cx="65.921" cy="65.934" r="2.199"/>
			<circle cx="65.921" cy="71.245" r="2.2"/>
		</g>
		<g>
			<circle cx="60.611" cy="2.198" r="2.198"/>
			<circle cx="60.611" cy="7.508" r="2.199"/>
			<circle cx="60.611" cy="12.82" r="2.199"/>
			<circle cx="60.611" cy="18.132" r="2.2"/>
			<path d="M60.611,25.645c-1.213,0-2.198-0.989-2.198-2.201c0-1.215,0.985-2.2,2.198-2.2c1.216,0,2.201,0.984,2.201,2.2     C62.813,24.655,61.827,25.645,60.611,25.645z"/>
			<circle cx="60.611" cy="28.754" r="2.198"/>
			<circle cx="60.611" cy="34.065" r="2.198"/>
			<circle cx="60.611" cy="39.377" r="2.199"/>
			<path d="M60.611,46.886c-1.213,0-2.198-0.982-2.198-2.196c0-1.217,0.985-2.2,2.198-2.2c1.216,0,2.201,0.983,2.201,2.2     C62.813,45.903,61.827,46.886,60.611,46.886z"/>
			<circle cx="60.611" cy="50" r="2.2"/>
			<path d="M60.611,57.511c-1.213,0-2.198-0.985-2.198-2.202c0-1.214,0.985-2.195,2.198-2.195c1.216,0,2.201,0.981,2.201,2.195     C62.813,56.523,61.827,57.511,60.611,57.511z"/>
			<circle cx="60.611" cy="60.623" r="2.2"/>
			<circle cx="60.611" cy="65.934" r="2.199"/>
			<circle cx="60.611" cy="71.245" r="2.2"/>
		</g>
		<g>
			<circle cx="55.307" cy="2.198" r="2.198"/>
			<circle cx="55.307" cy="7.508" r="2.199"/>
			<circle cx="55.307" cy="12.82" r="2.199"/>
			<circle cx="55.307" cy="18.132" r="2.2"/>
			<path d="M55.307,25.645c-1.214,0-2.199-0.989-2.199-2.201c0-1.215,0.985-2.2,2.199-2.2c1.215,0,2.2,0.984,2.2,2.2     C57.507,24.655,56.521,25.645,55.307,25.645z"/>
			<circle cx="55.307" cy="28.754" r="2.198"/>
			<circle cx="55.307" cy="34.065" r="2.198"/>
			<circle cx="55.307" cy="39.377" r="2.199"/>
			<path d="M55.307,46.886c-1.214,0-2.199-0.982-2.199-2.196c0-1.217,0.985-2.2,2.199-2.2c1.215,0,2.2,0.983,2.2,2.2     C57.507,45.903,56.521,46.886,55.307,46.886z"/>
			<circle cx="55.307" cy="50" r="2.2"/>
			<path d="M55.307,57.511c-1.214,0-2.199-0.985-2.199-2.202c0-1.214,0.985-2.195,2.199-2.195c1.215,0,2.2,0.981,2.2,2.195     C57.507,56.523,56.521,57.511,55.307,57.511z"/>
			<circle cx="55.307" cy="60.623" r="2.2"/>
			<circle cx="55.307" cy="65.934" r="2.199"/>
			<circle cx="55.307" cy="71.245" r="2.2"/>
		</g>
		<g>
			<circle cx="97.759" cy="81.867" r="2.199"/>
		</g>
		<g>
			<circle cx="92.452" cy="76.556" r="2.199"/>
			<circle cx="92.452" cy="81.867" r="2.199"/>
			<circle cx="92.452" cy="87.178" r="2.2"/>
		</g>
		<g>
			<circle cx="87.146" cy="76.556" r="2.199"/>
			<circle cx="87.146" cy="81.867" r="2.199"/>
			<circle cx="87.146" cy="87.178" r="2.2"/>
		</g>
		<g>
			<circle cx="81.84" cy="76.556" r="2.199"/>
			<circle cx="81.84" cy="81.867" r="2.199"/>
			<circle cx="81.84" cy="87.178" r="2.2"/>
		</g>
		<g>
			<path d="M76.531,78.755c-1.213,0-2.195-0.981-2.195-2.198c0-1.214,0.982-2.199,2.195-2.199c1.217,0,2.199,0.985,2.199,2.199     C78.73,77.771,77.748,78.755,76.531,78.755z"/>
			<path d="M76.531,84.066c-1.213,0-2.195-0.982-2.195-2.199c0-1.215,0.982-2.199,2.195-2.199c1.217,0,2.199,0.984,2.199,2.199     C78.73,83.084,77.748,84.066,76.531,84.066z"/>
			<path d="M76.531,89.378c-1.213,0-2.195-0.983-2.195-2.2c0-1.213,0.982-2.199,2.195-2.199c1.217,0,2.199,0.986,2.199,2.199     C78.73,88.395,77.748,89.378,76.531,89.378z"/>
		</g>
		<g>
			<path d="M71.227,78.755c-1.213,0-2.197-0.981-2.197-2.198c0-1.214,0.984-2.199,2.197-2.199c1.217,0,2.2,0.985,2.2,2.199     C73.427,77.771,72.443,78.755,71.227,78.755z"/>
			<path d="M71.227,84.066c-1.213,0-2.197-0.982-2.197-2.199c0-1.215,0.984-2.199,2.197-2.199c1.217,0,2.2,0.984,2.2,2.199     C73.427,83.084,72.443,84.066,71.227,84.066z"/>
			<path d="M71.227,89.378c-1.213,0-2.197-0.983-2.197-2.2c0-1.213,0.984-2.199,2.197-2.199c1.217,0,2.2,0.986,2.2,2.199     C73.427,88.395,72.443,89.378,71.227,89.378z"/>
		</g>
		<g>
			<circle cx="65.921" cy="76.556" r="2.199"/>
			<circle cx="65.921" cy="81.867" r="2.199"/>
			<circle cx="65.921" cy="87.178" r="2.2"/>
		</g>
		<g>
			<circle cx="60.611" cy="76.556" r="2.199"/>
			<circle cx="60.611" cy="81.867" r="2.199"/>
			<circle cx="60.611" cy="87.178" r="2.2"/>
			<circle cx="60.611" cy="92.489" r="2.199"/>
			<path d="M60.611,100c-1.213,0-2.198-0.982-2.198-2.195c0-1.218,0.985-2.199,2.198-2.199c1.216,0,2.201,0.981,2.201,2.199     C62.813,99.018,61.827,100,60.611,100z"/>
		</g>
		<g>
			<circle cx="55.307" cy="76.556" r="2.199"/>
			<circle cx="55.307" cy="81.867" r="2.199"/>
			<circle cx="55.307" cy="87.178" r="2.2"/>
			<circle cx="55.307" cy="92.489" r="2.199"/>
			<path d="M55.307,100c-1.214,0-2.199-0.982-2.199-2.195c0-1.218,0.985-2.199,2.199-2.199c1.215,0,2.2,0.981,2.2,2.199     C57.507,99.018,56.521,100,55.307,100z"/>
		</g>
		<g>
			<circle cx="49.999" cy="2.198" r="2.198"/>
			<circle cx="49.999" cy="7.508" r="2.199"/>
			<circle cx="49.999" cy="12.82" r="2.199"/>
			<circle cx="49.999" cy="18.132" r="2.2"/>
			<path d="M49.999,25.645c-1.213,0-2.196-0.989-2.196-2.201c0-1.215,0.983-2.2,2.196-2.2c1.214,0,2.201,0.984,2.201,2.2     C52.199,24.655,51.213,25.645,49.999,25.645z"/>
			<circle cx="49.999" cy="28.754" r="2.198"/>
			<circle cx="49.999" cy="34.065" r="2.198"/>
			<circle cx="49.999" cy="39.377" r="2.199"/>
			<path d="M49.999,46.886c-1.213,0-2.196-0.982-2.196-2.196c0-1.217,0.983-2.2,2.196-2.2c1.214,0,2.201,0.983,2.201,2.2     C52.199,45.903,51.213,46.886,49.999,46.886z"/>
			<circle cx="49.999" cy="50" r="2.2"/>
			<path d="M49.999,57.511c-1.213,0-2.196-0.985-2.196-2.202c0-1.214,0.983-2.195,2.196-2.195c1.214,0,2.201,0.981,2.201,2.195     C52.199,56.523,51.213,57.511,49.999,57.511z"/>
			<circle cx="49.999" cy="60.623" r="2.2"/>
			<circle cx="49.999" cy="65.934" r="2.199"/>
			<circle cx="49.999" cy="71.245" r="2.2"/>
		</g>
		<g>
			<circle cx="44.694" cy="12.82" r="2.199"/>
			<circle cx="44.694" cy="18.132" r="2.2"/>
			<path d="M44.694,25.645c-1.213,0-2.2-0.989-2.2-2.201c0-1.215,0.986-2.2,2.2-2.2c1.214,0,2.198,0.984,2.198,2.2     C46.892,24.655,45.907,25.645,44.694,25.645z"/>
			<circle cx="44.694" cy="28.754" r="2.198"/>
			<circle cx="44.694" cy="34.065" r="2.198"/>
			<circle cx="44.694" cy="39.377" r="2.199"/>
			<path d="M44.694,46.886c-1.213,0-2.2-0.982-2.2-2.196c0-1.217,0.986-2.2,2.2-2.2c1.214,0,2.198,0.983,2.198,2.2     C46.892,45.903,45.907,46.886,44.694,46.886z"/>
			<circle cx="44.694" cy="50" r="2.2"/>
			<path d="M44.694,57.511c-1.213,0-2.2-0.985-2.2-2.202c0-1.214,0.986-2.195,2.2-2.195c1.214,0,2.198,0.981,2.198,2.195     C46.892,56.523,45.907,57.511,44.694,57.511z"/>
			<circle cx="44.694" cy="60.623" r="2.2"/>
			<circle cx="44.694" cy="65.934" r="2.199"/>
			<circle cx="44.694" cy="71.245" r="2.2"/>
		</g>
		<g>
			<path d="M39.386,25.645c-1.21,0-2.196-0.989-2.196-2.201c0-1.215,0.986-2.2,2.196-2.2c1.213,0,2.199,0.984,2.199,2.2     C41.585,24.655,40.599,25.645,39.386,25.645z"/>
			<path d="M39.386,30.953c-1.21,0-2.196-0.984-2.196-2.198c0-1.217,0.986-2.199,2.196-2.199c1.213,0,2.199,0.982,2.199,2.199     C41.585,29.968,40.599,30.953,39.386,30.953z"/>
			<path d="M39.386,36.264c-1.21,0-2.196-0.986-2.196-2.199s0.986-2.198,2.196-2.198c1.213,0,2.199,0.984,2.199,2.198     S40.599,36.264,39.386,36.264z"/>
			<path d="M39.386,41.577c-1.21,0-2.196-0.986-2.196-2.2c0-1.216,0.986-2.199,2.196-2.199c1.213,0,2.199,0.983,2.199,2.199     C41.585,40.59,40.599,41.577,39.386,41.577z"/>
			<path d="M39.386,46.886c-1.21,0-2.196-0.982-2.196-2.196c0-1.217,0.986-2.2,2.196-2.2c1.213,0,2.199,0.983,2.199,2.2     C41.585,45.903,40.599,46.886,39.386,46.886z"/>
			<path d="M39.386,52.199c-1.21,0-2.196-0.986-2.196-2.2c0-1.215,0.986-2.2,2.196-2.2c1.213,0,2.199,0.984,2.199,2.2     C41.585,51.213,40.599,52.199,39.386,52.199z"/>
			<path d="M39.386,57.511c-1.21,0-2.196-0.985-2.196-2.202c0-1.214,0.986-2.195,2.196-2.195c1.213,0,2.199,0.981,2.199,2.195     C41.585,56.523,40.599,57.511,39.386,57.511z"/>
			<path d="M39.386,62.822c-1.21,0-2.196-0.983-2.196-2.2c0-1.216,0.986-2.199,2.196-2.199c1.213,0,2.199,0.983,2.199,2.199     C41.585,61.839,40.599,62.822,39.386,62.822z"/>
			<path d="M39.386,68.133c-1.21,0-2.196-0.986-2.196-2.199c0-1.217,0.986-2.199,2.196-2.199c1.213,0,2.199,0.982,2.199,2.199     C41.585,67.146,40.599,68.133,39.386,68.133z"/>
			<path d="M39.386,73.443c-1.21,0-2.196-0.985-2.196-2.198c0-1.214,0.986-2.2,2.196-2.2c1.213,0,2.199,0.986,2.199,2.2     C41.585,72.458,40.599,73.443,39.386,73.443z"/>
		</g>
		<g>
			<path d="M34.081,25.645c-1.217,0-2.199-0.989-2.199-2.201c0-1.215,0.982-2.2,2.199-2.2c1.213,0,2.196,0.984,2.196,2.2     C36.277,24.655,35.294,25.645,34.081,25.645z"/>
			<circle cx="34.081" cy="28.754" r="2.198"/>
			<circle cx="34.081" cy="34.065" r="2.198"/>
			<circle cx="34.081" cy="39.377" r="2.199"/>
			<path d="M34.081,46.886c-1.217,0-2.199-0.982-2.199-2.196c0-1.217,0.982-2.2,2.199-2.2c1.213,0,2.196,0.983,2.196,2.2     C36.277,45.903,35.294,46.886,34.081,46.886z"/>
			<circle cx="34.081" cy="50" r="2.2"/>
			<path d="M34.081,57.511c-1.217,0-2.199-0.985-2.199-2.202c0-1.214,0.982-2.195,2.199-2.195c1.213,0,2.196,0.981,2.196,2.195     C36.277,56.523,35.294,57.511,34.081,57.511z"/>
			<circle cx="34.081" cy="60.623" r="2.2"/>
			<circle cx="34.081" cy="65.934" r="2.199"/>
			<circle cx="34.081" cy="71.245" r="2.2"/>
		</g>
		<g>
			<path d="M28.773,25.645c-1.213,0-2.198-0.989-2.198-2.201c0-1.215,0.984-2.2,2.198-2.2c1.217,0,2.2,0.984,2.2,2.2     C30.973,24.655,29.99,25.645,28.773,25.645z"/>
			<path d="M28.773,30.953c-1.213,0-2.198-0.984-2.198-2.198c0-1.217,0.984-2.199,2.198-2.199c1.217,0,2.2,0.982,2.2,2.199     C30.973,29.968,29.99,30.953,28.773,30.953z"/>
			<path d="M28.773,36.264c-1.213,0-2.198-0.986-2.198-2.199s0.984-2.198,2.198-2.198c1.217,0,2.2,0.984,2.2,2.198     S29.99,36.264,28.773,36.264z"/>
			<path d="M28.773,41.577c-1.213,0-2.198-0.986-2.198-2.2c0-1.216,0.984-2.199,2.198-2.199c1.217,0,2.2,0.983,2.2,2.199     C30.973,40.59,29.99,41.577,28.773,41.577z"/>
			<path d="M28.773,46.886c-1.213,0-2.198-0.982-2.198-2.196c0-1.217,0.984-2.2,2.198-2.2c1.217,0,2.2,0.983,2.2,2.2     C30.973,45.903,29.99,46.886,28.773,46.886z"/>
			<path d="M28.773,52.199c-1.213,0-2.198-0.986-2.198-2.2c0-1.215,0.984-2.2,2.198-2.2c1.217,0,2.2,0.984,2.2,2.2     C30.973,51.213,29.99,52.199,28.773,52.199z"/>
			<path d="M28.773,57.511c-1.213,0-2.198-0.985-2.198-2.202c0-1.214,0.984-2.195,2.198-2.195c1.217,0,2.2,0.981,2.2,2.195     C30.973,56.523,29.99,57.511,28.773,57.511z"/>
			<path d="M28.773,62.822c-1.213,0-2.198-0.983-2.198-2.2c0-1.216,0.984-2.199,2.198-2.199c1.217,0,2.2,0.983,2.2,2.199     C30.973,61.839,29.99,62.822,28.773,62.822z"/>
			<path d="M28.773,68.133c-1.213,0-2.198-0.986-2.198-2.199c0-1.217,0.984-2.199,2.198-2.199c1.217,0,2.2,0.982,2.2,2.199     C30.973,67.146,29.99,68.133,28.773,68.133z"/>
			<path d="M28.773,73.443c-1.213,0-2.198-0.985-2.198-2.198c0-1.214,0.984-2.2,2.198-2.2c1.217,0,2.2,0.986,2.2,2.2     C30.973,72.458,29.99,73.443,28.773,73.443z"/>
		</g>
		<g>
			<circle cx="23.467" cy="18.132" r="2.2"/>
			<path d="M23.467,25.645c-1.213,0-2.199-0.989-2.199-2.201c0-1.215,0.986-2.2,2.199-2.2c1.215,0,2.201,0.984,2.201,2.2     C25.667,24.655,24.682,25.645,23.467,25.645z"/>
			<circle cx="23.467" cy="34.065" r="2.198"/>
			<circle cx="23.467" cy="39.377" r="2.199"/>
			<path d="M23.467,46.886c-1.213,0-2.199-0.982-2.199-2.196c0-1.217,0.986-2.2,2.199-2.2c1.215,0,2.201,0.983,2.201,2.2     C25.667,45.903,24.682,46.886,23.467,46.886z"/>
			<circle cx="23.467" cy="50" r="2.2"/>
			<path d="M23.467,57.511c-1.213,0-2.199-0.985-2.199-2.202c0-1.214,0.986-2.195,2.199-2.195c1.215,0,2.201,0.981,2.201,2.195     C25.667,56.523,24.682,57.511,23.467,57.511z"/>
		</g>
		<g>
			<circle cx="18.161" cy="34.065" r="2.198"/>
			<circle cx="18.161" cy="39.377" r="2.199"/>
			<path d="M18.161,46.886c-1.216,0-2.199-0.982-2.199-2.196c0-1.217,0.983-2.2,2.199-2.2c1.212,0,2.199,0.983,2.199,2.2     C20.36,45.903,19.374,46.886,18.161,46.886z"/>
		</g>
		<g>
			<circle cx="12.853" cy="28.754" r="2.198"/>
			<circle cx="12.853" cy="34.065" r="2.198"/>
			<circle cx="12.853" cy="39.377" r="2.199"/>
		</g>
		<g>
			<circle cx="7.548" cy="28.754" r="2.198"/>
			<circle cx="7.548" cy="34.065" r="2.198"/>
			<circle cx="7.548" cy="39.377" r="2.199"/>
		</g>
		<g>
			<path d="M2.242,36.264c-1.216,0-2.202-0.986-2.202-2.199s0.986-2.198,2.202-2.198c1.212,0,2.195,0.984,2.195,2.198     S3.454,36.264,2.242,36.264z"/>
			<path d="M2.242,41.577c-1.216,0-2.202-0.986-2.202-2.2c0-1.216,0.986-2.199,2.202-2.199c1.212,0,2.195,0.983,2.195,2.199     C4.438,40.59,3.454,41.577,2.242,41.577z"/>
		</g>
		<g>
			<circle cx="49.999" cy="76.556" r="2.199"/>
			<circle cx="49.999" cy="81.867" r="2.199"/>
			<circle cx="49.999" cy="87.178" r="2.2"/>
			<circle cx="49.999" cy="92.489" r="2.199"/>
			<path d="M49.999,100c-1.213,0-2.196-0.982-2.196-2.195c0-1.218,0.983-2.199,2.196-2.199c1.214,0,2.201,0.981,2.201,2.199     C52.199,99.018,51.213,100,49.999,100z"/>
		</g>
		<g>
			<circle cx="44.694" cy="76.556" r="2.199"/>
			<circle cx="44.694" cy="81.867" r="2.199"/>
			<circle cx="44.694" cy="87.178" r="2.2"/>
			<circle cx="44.694" cy="92.489" r="2.199"/>
			<path d="M44.694,100c-1.213,0-2.2-0.982-2.2-2.195c0-1.218,0.986-2.199,2.2-2.199c1.214,0,2.198,0.981,2.198,2.199     C46.892,99.018,45.907,100,44.694,100z"/>
		</g>
		<g>
			<path d="M39.386,78.755c-1.21,0-2.196-0.981-2.196-2.198c0-1.214,0.986-2.199,2.196-2.199c1.213,0,2.199,0.985,2.199,2.199     C41.585,77.771,40.599,78.755,39.386,78.755z"/>
			<path d="M39.386,84.066c-1.21,0-2.196-0.982-2.196-2.199c0-1.215,0.986-2.199,2.196-2.199c1.213,0,2.199,0.984,2.199,2.199     C41.585,83.084,40.599,84.066,39.386,84.066z"/>
			<path d="M39.386,89.378c-1.21,0-2.196-0.983-2.196-2.2c0-1.213,0.986-2.199,2.196-2.199c1.213,0,2.199,0.986,2.199,2.199     C41.585,88.395,40.599,89.378,39.386,89.378z"/>
			<path d="M39.386,94.688c-1.21,0-2.196-0.985-2.196-2.198c0-1.214,0.986-2.199,2.196-2.199c1.213,0,2.199,0.985,2.199,2.199     C41.585,93.702,40.599,94.688,39.386,94.688z"/>
		</g>
		<g>
			<circle cx="34.081" cy="76.556" r="2.199"/>
			<circle cx="34.081" cy="81.867" r="2.199"/>
			<circle cx="34.081" cy="87.178" r="2.2"/>
			<circle cx="34.081" cy="92.489" r="2.199"/>
		</g>
		<g>
			<path d="M28.773,78.755c-1.213,0-2.198-0.981-2.198-2.198c0-1.214,0.984-2.199,2.198-2.199c1.217,0,2.2,0.985,2.2,2.199     C30.973,77.771,29.99,78.755,28.773,78.755z"/>
			<path d="M28.773,84.066c-1.213,0-2.198-0.982-2.198-2.199c0-1.215,0.984-2.199,2.198-2.199c1.217,0,2.2,0.984,2.2,2.199     C30.973,83.084,29.99,84.066,28.773,84.066z"/>
			<path d="M28.773,89.378c-1.213,0-2.198-0.983-2.198-2.2c0-1.213,0.984-2.199,2.198-2.199c1.217,0,2.2,0.986,2.2,2.199     C30.973,88.395,29.99,89.378,28.773,89.378z"/>
			<path d="M28.773,94.688c-1.213,0-2.198-0.985-2.198-2.198c0-1.214,0.984-2.199,2.198-2.199c1.217,0,2.2,0.985,2.2,2.199     C30.973,93.702,29.99,94.688,28.773,94.688z"/>
		</g>
		<g>
			<circle cx="23.467" cy="87.178" r="2.2"/>
		</g>
	</g>
</g>
</svg>