<svg xmlns="http://www.w3.org/2000/svg" xmlns:xlink="http://www.w3.org/1999/xlink" version="1.1" x="0px" y="0px" width="100px" height="100px" viewBox="0 0 100 100" enable-background="new 0 0 100 100" xml:space="preserve">
<g id="Captions">
</g>
<g id="Your_Icon">
	
		<rect x="77.248" y="11.902" transform="matrix(-0.7071 -0.7071 0.7071 -0.7071 129.7339 89.4896)" width="12.302" height="11.952"/>
	<rect x="88.033" y="0.132" transform="matrix(0.707 -0.7072 0.7072 0.707 18.396 66.9509)" width="3.945" height="22.28"/>
	<path d="M20,63.151v13.178l0.798,0.844L-0.052,98l10.413-3.718l13.752-13.439L24.949,82h13.178l49.17-49.486L69.126,14.138   L20,63.151z M71.878,42.694l-6.646-6.647l-0.247-0.246l-0.246,0.246l-0.929,0.929l-0.245,0.246l0.245,0.246l6.647,6.647   l-2.518,2.518l-3.328-3.328l-0.248-0.246l-0.245,0.246l-0.929,0.929l-0.247,0.246l0.247,0.247l3.328,3.328l-2.519,2.518   l-6.646-6.646l-0.246-0.247l-0.246,0.247l-0.929,0.929L55.687,45.1l0.246,0.246l6.646,6.647l-2.518,2.518l-3.326-3.328   l-0.248-0.247l-0.246,0.247l-0.929,0.929l-0.246,0.246l0.247,0.246l3.327,3.328l-2.518,2.518l-6.646-6.646l-0.247-0.246   l-0.245,0.246l-0.93,0.93l-0.247,0.246l0.247,0.245l6.647,6.646l-2.519,2.518l-3.327-3.327l-0.246-0.246l-0.247,0.245l-0.93,0.929   l-0.245,0.247l0.246,0.247l3.327,3.326l-2.518,2.518l-6.646-6.646l-0.245-0.246l-0.247,0.246l-0.929,0.929l-0.246,0.246   l0.245,0.246l6.647,6.703L36.685,78H26.391L24,74.887V64.594l45.384-45.69l13.143,13.294L71.878,42.694z"/>
</g>
</svg>