<svg xmlns="http://www.w3.org/2000/svg" xmlns:xlink="http://www.w3.org/1999/xlink" version="1.1" id="Layer_1" x="0px" y="0px" width="100px" height="72.318px" viewBox="0 0 100 72.318" enable-background="new 0 0 100 72.318" xml:space="preserve">
<polygon points="100,0 100,72.318 89.72,72.318 89.72,17.174 79.141,27.747 70.228,27.747 89.72,8.255 89.72,0 "/>
<polygon points="62.363,5.977 54.036,5.977 32.259,27.747 41.172,27.747 62.656,6.263 "/>
<polygon points="43.379,5.977 35.059,5.977 13.281,27.747 22.194,27.747 43.678,6.263 "/>
<polygon points="24.688,6.263 24.395,5.977 16.068,5.977 10.28,11.758 10.28,0 0,0 0,72.318 10.28,72.318 10.28,20.677 "/>
<polygon points="81.341,5.977 73.015,5.977 51.237,27.747 60.149,27.747 81.634,6.263 "/>
</svg>