<svg xmlns="http://www.w3.org/2000/svg" xmlns:xlink="http://www.w3.org/1999/xlink" version="1.1" x="0px" y="0px" width="100px" height="100px" viewBox="0 0 100 100" enable-background="new 0 0 100 100" xml:space="preserve">
<g id="Captions" display="none">
</g>
<g id="Your_Icon">
	<path d="M85.408,25.218L67.811,5.843c0,0-3.059-3.843-9.844-3.843c-5.76,0-41.422,0-41.422,0C12.863,2,9,5.089,9,8.769v81.619   C9,94.067,12.863,98,16.545,98H58l-5-5H16.228c0,0-2.228,0-2.228-2.23s0-79.309,0-81.541C14,7,16.228,7,16.228,7h45.312   C64.002,7,66,8.997,66,11.46V29h13.307C83.77,29,86,32.539,86,37v19l5,5c0-13.869,0-19.092,0-22.958   C91,29.122,85.408,25.218,85.408,25.218z"/>
	<circle cx="49.177" cy="59.884" r="6.92"/>
	<path d="M28.299,70.638c0.58,1.126,1.24,2.182,1.965,3.17l5.586-0.505c0.88,0.877,1.844,1.666,2.879,2.358l0.415,5.451   c2.06,0.973,4.252,1.642,6.506,1.985l3.524-4.224c0.059,0,0.114,0.009,0.173,0.009c1.122,0,2.214-0.116,3.282-0.302l4.117,3.535   c1.077-0.369,2.142-0.817,3.184-1.354c1.043-0.537,2.026-1.144,2.953-1.808l-0.476-5.256c0.91-0.854,1.736-1.793,2.466-2.81   l5.253-0.398c1.026-2.034,1.756-4.208,2.161-6.45l-3.875-3.232c0.019-0.348,0.052-0.691,0.052-1.043   c0-1.131-0.117-2.233-0.305-3.311l3.334-3.884c-0.384-1.164-0.859-2.314-1.439-3.44c-0.438-0.853-0.928-1.661-1.451-2.435   l-4.926,0.444c-1.103-1.249-2.353-2.363-3.744-3.29l-0.383-5.034c-1.891-0.929-3.898-1.596-5.968-1.992l-3.231,3.875   c-0.335-0.018-0.665-0.051-1.004-0.051c-1.439,0-2.836,0.172-4.185,0.474l-3.895-3.344c-0.96,0.345-1.912,0.75-2.845,1.229   c-0.933,0.481-1.814,1.021-2.654,1.603l0.476,5.259c-1.197,1.129-2.243,2.409-3.118,3.812l-5.284,0.402   c-0.878,1.914-1.501,3.938-1.842,6.017l4.235,3.532c0,0.045-0.007,0.089-0.007,0.134c0,1.43,0.17,2.819,0.468,4.159l-3.536,4.118   C27.485,68.918,27.86,69.785,28.299,70.638z M43.578,49.016c6.002-3.092,13.375-0.733,16.467,5.27   c3.093,6.002,0.731,13.375-5.271,16.467c-6.001,3.092-13.375,0.732-16.467-5.271C35.215,59.48,37.576,52.107,43.578,49.016z"/>
	<circle cx="77.139" cy="84.138" r="4.085"/>
	<path d="M84.504,72.398l-2.607,1.438c-0.181-0.08-0.354-0.17-0.541-0.243c-0.793-0.309-1.597-0.514-2.403-0.635l-1.426-2.674   c-0.603-0.017-1.211,0.001-1.828,0.066c-0.616,0.064-1.216,0.172-1.803,0.313l-0.867,2.993c-0.899,0.364-1.748,0.846-2.529,1.43   l-2.993-0.911c-0.892,0.863-1.67,1.844-2.303,2.913l1.573,2.852c-0.011,0.024-0.024,0.047-0.033,0.07   c-0.307,0.788-0.511,1.588-0.634,2.39l-2.828,1.506c-0.008,0.553,0.012,1.11,0.07,1.672c0.078,0.744,0.216,1.466,0.401,2.164   l3.181,0.92c0.296,0.672,0.656,1.31,1.078,1.914l-0.94,3.087c0.924,0.977,1.986,1.813,3.153,2.486l2.844-1.567   c0.032,0.012,0.061,0.029,0.093,0.042c0.616,0.24,1.24,0.41,1.871,0.535l1.506,2.829c0.672,0.027,1.353,0.01,2.04-0.063   c0.689-0.071,1.36-0.194,2.012-0.361l0.864-2.992c0.685-0.274,1.34-0.614,1.96-1.017l2.974,0.905   c1.001-0.897,1.868-1.938,2.571-3.083l-1.439-2.609c0.085-0.188,0.178-0.367,0.254-0.562c0.24-0.622,0.413-1.255,0.541-1.888   l2.665-1.42c0.039-0.723,0.024-1.457-0.055-2.2c-0.059-0.563-0.152-1.113-0.275-1.651l-2.805-0.81   c-0.338-0.926-0.787-1.804-1.354-2.611l0.867-2.852C86.519,73.858,85.556,73.061,84.504,72.398z M77.888,91.315   c-3.963,0.414-7.514-2.464-7.927-6.428c-0.415-3.965,2.465-7.514,6.429-7.927c3.962-0.415,7.513,2.463,7.926,6.428   C84.73,87.352,81.852,90.901,77.888,91.315z"/>
</g>
</svg>