<svg xmlns="http://www.w3.org/2000/svg" xmlns:xlink="http://www.w3.org/1999/xlink" version="1.1" x="0px" y="0px" width="100px" height="100px" viewBox="0 0 100 100" enable-background="new 0 0 100 100" xml:space="preserve">
<g id="Captions">
</g>
<g id="Your_Icon">
	<path d="M93.212,0H6.787C3.038,0,0,3.038,0,6.787v86.425C0,96.961,3.038,100,6.787,100h86.425c3.749,0,6.788-3.039,6.788-6.788   V6.787C100,3.038,96.961,0,93.212,0z M76.664,36.789l7.025-7.023c0.331-0.332,0.781-0.519,1.251-0.519h3.212   c0.629-1.16,1.857-1.949,3.271-1.949c2.053,0,3.717,1.665,3.717,3.718c0,2.053-1.664,3.718-3.717,3.718   c-1.413,0-2.643-0.788-3.271-1.949h-2.479l-7.023,7.024c-0.332,0.332-0.782,0.519-1.251,0.519h-2.973v7.934h2.238l7.025-7.023   c0.331-0.332,0.781-0.519,1.251-0.519h3.211c0.629-1.16,1.858-1.949,3.271-1.949c2.053,0,3.717,1.665,3.717,3.719   c0,2.053-1.664,3.717-3.717,3.717c-1.413,0-2.642-0.788-3.271-1.949h-2.479l-7.023,7.024c-0.332,0.332-0.782,0.518-1.251,0.518   h-2.973v7.935h2.238l7.025-7.023c0.331-0.332,0.781-0.52,1.251-0.52h3.211c0.629-1.159,1.858-1.948,3.271-1.948   c2.053,0,3.717,1.664,3.717,3.719c0,2.053-1.664,3.717-3.717,3.717c-1.413,0-2.642-0.787-3.271-1.947h-2.479l-7.023,7.023   c-0.332,0.332-0.782,0.518-1.251,0.518h-2.973v7.935h2.238l7.025-7.024c0.331-0.332,0.781-0.518,1.251-0.518h3.211   c0.629-1.161,1.858-1.948,3.271-1.948c2.053,0,3.717,1.664,3.717,3.717c0,2.055-1.664,3.719-3.717,3.719   c-1.413,0-2.642-0.789-3.271-1.948h-2.479l-7.023,7.023c-0.332,0.332-0.782,0.518-1.251,0.518h-4.334v2.629l7.023,7.024   c0.332,0.331,0.519,0.781,0.519,1.25v3.192c1.183,0.622,1.991,1.862,1.991,3.291c0,2.054-1.664,3.718-3.719,3.718   c-2.053,0-3.717-1.664-3.717-3.718c0-1.396,0.769-2.609,1.906-3.245v-2.504l-7.023-7.025c-0.332-0.331-0.52-0.781-0.52-1.25v-3.682   h-7.892v2.948l7.024,7.024c0.332,0.331,0.519,0.781,0.519,1.25v3.213c1.159,0.629,1.948,1.858,1.948,3.271   c0,2.054-1.664,3.718-3.719,3.718c-2.053,0-3.717-1.664-3.717-3.718c0-1.412,0.787-2.642,1.948-3.271v-2.478l-7.024-7.025   c-0.332-0.331-0.518-0.781-0.518-1.25v-3.682h-7.934v2.948l7.023,7.024c0.332,0.331,0.519,0.781,0.519,1.25v3.213   c1.16,0.629,1.947,1.858,1.947,3.271c0,2.054-1.664,3.718-3.717,3.718c-2.054,0-3.718-1.664-3.718-3.718   c0-1.412,0.788-2.642,1.949-3.271v-2.479l-7.025-7.025c-0.332-0.331-0.519-0.781-0.519-1.25v-3.682h-7.933v2.948l7.023,7.024   c0.332,0.331,0.518,0.781,0.518,1.25v3.212c1.161,0.63,1.949,1.859,1.949,3.271c0,2.054-1.665,3.718-3.718,3.718   s-3.719-1.664-3.719-3.718c0-1.412,0.789-2.642,1.949-3.271v-2.478l-7.024-7.025c-0.33-0.331-0.518-0.781-0.518-1.25v-3.682h-7.934   v2.948l7.023,7.024c0.331,0.331,0.518,0.781,0.518,1.25v3.212c1.161,0.63,1.95,1.859,1.95,3.271c0,2.054-1.666,3.718-3.719,3.718   s-3.719-1.664-3.719-3.718c0-1.412,0.789-2.642,1.949-3.271v-2.478l-7.023-7.025c-0.331-0.331-0.518-0.781-0.518-1.25v-3.524   h-1.938l-7.023,7.024c-0.332,0.332-0.782,0.519-1.251,0.519h-3.191c-0.623,1.183-1.861,1.991-3.292,1.991   c-2.053,0-3.718-1.665-3.718-3.718c0-2.054,1.665-3.719,3.718-3.719c1.396,0,2.609,0.77,3.245,1.906h2.505l7.024-7.023   c0.332-0.332,0.781-0.519,1.251-0.519h4.564v-7.892h-3.832l-7.023,7.023c-0.332,0.332-0.782,0.519-1.251,0.519h-3.212   c-0.629,1.16-1.858,1.949-3.271,1.949c-2.053,0-3.718-1.665-3.718-3.719c0-2.053,1.665-3.718,3.718-3.718   c1.414,0,2.643,0.788,3.271,1.949h2.479l7.024-7.024c0.332-0.331,0.781-0.518,1.251-0.518h4.564v-7.935h-3.832l-7.023,7.023   c-0.332,0.332-0.782,0.519-1.251,0.519h-3.212c-0.629,1.16-1.857,1.949-3.271,1.949c-2.053,0-3.718-1.666-3.718-3.719   s1.665-3.719,3.718-3.719c1.413,0,2.643,0.789,3.271,1.95h2.479l7.024-7.024c0.332-0.331,0.781-0.518,1.251-0.518h4.564v-7.934   h-3.832l-7.023,7.023c-0.332,0.332-0.782,0.519-1.251,0.519h-3.212c-0.629,1.16-1.857,1.949-3.271,1.949   c-2.053,0-3.718-1.666-3.718-3.718c0-2.053,1.665-3.719,3.718-3.719c1.413,0,2.643,0.789,3.271,1.95h2.479l7.024-7.025   c0.332-0.332,0.781-0.518,1.251-0.518h4.564v-7.934h-3.832l-7.023,7.024c-0.332,0.331-0.782,0.518-1.251,0.518h-3.212   c-0.629,1.161-1.857,1.95-3.271,1.95c-2.053,0-3.718-1.666-3.718-3.719c0-2.053,1.665-3.718,3.718-3.718   c1.413,0,2.643,0.789,3.271,1.949h2.479l7.024-7.022c0.332-0.332,0.781-0.519,1.251-0.519h4.333v-2.629l-7.023-7.023   c-0.332-0.332-0.518-0.783-0.518-1.252v-3.191c-1.184-0.622-1.991-1.861-1.991-3.291c0-2.053,1.664-3.718,3.718-3.718   s3.717,1.665,3.717,3.718c0,1.395-0.77,2.609-1.905,3.245v2.504l7.023,7.024c0.331,0.332,0.518,0.782,0.518,1.251v3.738h7.892   v-3.004l-7.023-7.023c-0.331-0.332-0.518-0.783-0.518-1.252v-3.21c-1.161-0.629-1.948-1.859-1.948-3.271   c0-2.053,1.664-3.718,3.717-3.718c2.054,0,3.719,1.665,3.719,3.718c0,1.413-0.789,2.641-1.948,3.271v2.478l7.023,7.024   c0.332,0.332,0.518,0.782,0.518,1.251v3.738h7.934v-3.004l-7.023-7.023c-0.331-0.332-0.518-0.783-0.518-1.252v-3.21   c-1.161-0.629-1.95-1.859-1.95-3.271c0-2.053,1.666-3.718,3.719-3.718s3.719,1.665,3.719,3.718c0,1.413-0.789,2.641-1.949,3.271   v2.478l7.024,7.024c0.332,0.332,0.518,0.782,0.518,1.251v3.738h7.935v-3.004l-7.023-7.023c-0.332-0.332-0.519-0.783-0.519-1.252   v-3.21c-1.161-0.629-1.949-1.859-1.949-3.271c0-2.053,1.665-3.718,3.718-3.718c2.054,0,3.719,1.665,3.719,3.718   c0,1.413-0.789,2.641-1.949,3.271v2.478l7.023,7.024c0.332,0.332,0.519,0.782,0.519,1.251v3.738h7.935v-3.004l-7.023-7.023   c-0.332-0.332-0.519-0.783-0.519-1.252v-3.21c-1.161-0.629-1.949-1.859-1.949-3.271c0-2.053,1.664-3.718,3.719-3.718   c2.053,0,3.717,1.665,3.717,3.718c0,1.413-0.787,2.641-1.948,3.271v2.478l7.023,7.024c0.332,0.332,0.519,0.782,0.519,1.251v3.524   h1.936l7.025-7.024c0.331-0.332,0.781-0.519,1.251-0.519h3.191c0.621-1.183,1.86-1.991,3.291-1.991   c2.053,0,3.717,1.665,3.717,3.719c0,2.053-1.664,3.717-3.717,3.717c-1.396,0-2.61-0.77-3.246-1.906h-2.504l-7.023,7.023   c-0.332,0.332-0.782,0.519-1.251,0.519h-2.973v7.892H76.664z"/>
	<rect x="33.52" y="33.52" width="32.959" height="32.958"/>
</g>
</svg>