<?xml version="1.0" encoding="utf-8"?>
<!-- Generator: Adobe Illustrator 15.1.0, SVG Export Plug-In . SVG Version: 6.00 Build 0)  -->
<!DOCTYPE svg PUBLIC "-//W3C//DTD SVG 1.1//EN" "http://www.w3.org/Graphics/SVG/1.1/DTD/svg11.dtd">
<svg version="1.1" id="Layer_1" xmlns="http://www.w3.org/2000/svg" xmlns:xlink="http://www.w3.org/1999/xlink" x="0px" y="0px"
	 width="100px" height="63.852px" viewBox="0 0 100 63.852" enable-background="new 0 0 100 63.852" xml:space="preserve">
<path fill="#010101" d="M99.382,18.518c-0.004-0.002-1.982-1.74-3.854-3.853c-1.533-1.729-3.237-3.745-4.752-5.363
	c-0.758-0.814-1.464-1.527-2.13-2.088c-0.178-0.13-0.337-0.262-0.499-0.387c0.271-0.245,0.533-0.489,0.781-0.728
	c1.643-1.647,2.692-3.228,2.736-3.29c0.556-0.83,0.329-1.95-0.502-2.504c-0.828-0.556-1.948-0.332-2.508,0.501
	c0,0-0.205,0.312-0.612,0.833c-0.604,0.78-1.62,1.962-2.753,2.886c-0.442,0.372-0.893,0.663-1.336,0.908
	c-0.525-0.145-1.13-0.267-1.824-0.302c-1.077-0.026-2.357,0.45-3.292,1.422c-0.066,0.112-0.896,0.62-2.268,1.026
	c-4.163,1.318-13.132,2.467-26.567,2.458c-8.983,0-12.847-0.493-15.493-0.972c-2.621-0.477-4.437-1.041-8.605-1.033
	c-4.12,0.015-6.53,0.335-8.375,1.252c-1.885,0.941-2.684,2.546-3.279,3.762c-0.018,0.033-0.025,0.069-0.042,0.101
	c-0.021,0.046-0.042,0.094-0.057,0.141c-0.476,1.083-0.635,2.24-0.648,3.44c-0.271,1.294-0.646,2.898-1.138,4.673
	c-1.207,4.377-3.18,9.701-5.934,13.39c-0.674,0.698-4.22,4.374-6.241,8.373c-0.35,0.698-0.211,1.534,0.34,2.087
	c0.346,0.345,0.808,0.531,1.277,0.531c0.274,0,0.55-0.062,0.808-0.193c4.366-2.316,6.3-7.427,6.801-8.756
	c2.425-3.336,4.195-7.439,5.455-11.242c0.633,2.679,1.209,5.183,1.19,6.334c-0.001,1.699-0.405,2.933-0.909,4.445
	c-0.5,1.498-1.101,3.279-1.098,5.594c0.028,4.48,2.058,12.406,2.064,12.488l2.005,8.03c0.201,0.805,0.923,1.367,1.754,1.367h2.009
	c0.58,0,1.125-0.278,1.465-0.747c0.336-0.473,0.432-1.078,0.251-1.63c-0.006-0.004-0.496-1.474-0.984-3.188
	c-0.492-1.67-0.962-3.758-0.935-4.271c-0.002-1.37,0.209-2.723,0.562-3.977c0.768,0.256,1.496,0.435,2.193,0.55l0.715,2.861
	c0.204,0.822,0.94,1.367,1.75,1.367c0.145,0,0.292-0.019,0.438-0.056c0.969-0.24,1.556-1.22,1.318-2.189l-0.525-2.099
	c1.371-0.374,2.473-1.107,3.281-1.99l1.516,1.01c0.308,0.206,0.656,0.304,1.001,0.304c0.585,0,1.159-0.284,1.507-0.809
	c0.551-0.827,0.33-1.949-0.504-2.505l-1.766-1.175c0.21-0.651,0.335-1.255,0.418-1.771c3.5,0.683,7.072,2.199,12.395,2.243
	c3.822-0.01,7.761-1.187,11.203-2.306c3.383-1.131,6.46-2.173,7.551-2.122c0.022,0,0.047,0,0.065,0
	c0.192,0.548,0.529,2.038,0.701,3.733c0.756,6.38,0.756,16.941,0.756,16.96c0,0.473,0.196,0.939,0.531,1.277
	c0.34,0.336,0.805,0.525,1.275,0.525h2.011c0.487,0,0.938-0.186,1.28-0.525c0.342-0.343,0.527-0.797,0.527-1.281v-5.891
	l1.796-12.585c1.457-0.374,2.724-1.222,3.791-2.239c4.258-4.11,6.822-11.807,8.277-14.618c0.183-0.381,0.668-0.788,1.647-1.089
	c0.949-0.297,2.247-0.428,3.516-0.425c1.267,0,2.521,0.117,3.437,0.235c0.921,0.119,1.475,0.234,1.477,0.234
	c0.796,0.158,1.606-0.238,1.973-0.965l2.01-4.016C100.176,19.949,100.004,19.065,99.382,18.518z M29.446,44.948
	c-0.006,0.014-0.017,0.023-0.025,0.029c-0.071,0.111-0.127,0.223-0.175,0.34c-0.072,0.13-0.137,0.267-0.219,0.383
	c-0.635,0.841-1.292,1.394-2.909,1.431c-0.654,0-1.484-0.121-2.498-0.44c1.007-1.861,2.417-2.982,2.724-2.971
	c1.339-0.336,2.52-0.476,3.633-0.498C29.876,43.758,29.709,44.374,29.446,44.948z M56.484,38.726
	c-0.067,0.024-5.305,3.174-10.408,3.198c-0.401,0-0.801-0.02-1.193-0.061c-8.504-0.996-12.015-5.282-15.657-5.151
	c-0.369,0-0.744,0.039-1.132,0.116c-0.486,0.101-0.968-0.215-1.065-0.705c-0.102-0.488,0.211-0.967,0.705-1.066
	c0.509-0.106,1.009-0.152,1.492-0.152c4.954,0.137,7.913,4.327,15.851,5.159c0.327,0.035,0.658,0.053,0.999,0.053
	c2.174,0.002,4.578-0.724,6.413-1.467c1.833-0.741,3.073-1.475,3.078-1.479c0.427-0.249,0.982-0.107,1.236,0.323
	C57.059,37.921,56.91,38.475,56.484,38.726z M89.156,15.864c-0.555,0-1.007-0.45-1.007-1.004c0-0.556,0.452-1.003,1.007-1.003
	s1.004,0.447,1.004,1.003C90.16,15.414,89.71,15.864,89.156,15.864z"/>
</svg>
