<svg xmlns="http://www.w3.org/2000/svg" xmlns:xlink="http://www.w3.org/1999/xlink" version="1.1" x="0px" y="0px" width="100px" height="100px" viewBox="0 0 100 100" enable-background="new 0 0 100 100" xml:space="preserve">
<g id="Captions">
	<rect x="-192" width="185" height="99"/>
	<rect y="-36" width="100" height="30"/>
	<text transform="matrix(1 0 0 1 66 -19.5)" fill="#000000" font-family="'Helvetica'" font-size="2.4">http://thenounproject.com</text>
	<text transform="matrix(1 0 0 1 7.166 -24.5)"><tspan x="0" y="0" fill="#000000" font-family="'Helvetica-Bold'" font-size="6.1578">The Noun Project</tspan><tspan x="1.12" y="4.8" fill="#000000" font-family="'Helvetica-Bold'" font-size="4">Icon Template</tspan></text>
	<text transform="matrix(1 0 0 1 -178.5 10.5)" fill="#000000" font-family="'Helvetica-Bold'" font-size="6.1578">Reminders</text>
	<line fill="#000000" stroke="#FFFFFF" stroke-miterlimit="10" x1="8" y1="-14.5" x2="18" y2="-14.5"/>
	<line fill="#000000" stroke="#FFFFFF" stroke-miterlimit="10" x1="-179" y1="16.5" x2="-162" y2="16.5"/>
	<g>
		<g>
			<g>
				<rect x="-170.802" y="31.318" fill="#000000" width="8.721" height="8.642"/>
				<path fill="#000000" d="M-164.455,42.312h4.747v-4.703h-4.747V42.312z M-159.266,42.749h-5.63V37.17h5.63V42.749      L-159.266,42.749z M-166.221,44.062h8.279v-8.203h-8.279V44.062L-166.221,44.062z M-157.5,44.5h-9.163v-9.079h9.163V44.5      L-157.5,44.5z"/>
				<polygon fill="#000000" points="-166.149,44.133 -166.292,43.991 -158.013,35.787 -157.871,35.929     "/>
			</g>
		</g>
	</g>
	<rect x="-179" y="58" fill="none" width="35" height="32.5"/>
	<text transform="matrix(1 0 0 1 -179 60.1299)"><tspan x="0" y="0" fill="#000000" font-family="'Helvetica-Bold'" font-size="3">Strokes</tspan><tspan x="0" y="5" fill="#000000" font-family="'Helvetica'" font-size="2.4">Try to keep strokes at 4px</tspan><tspan x="0" y="10" fill="#000000" font-family="'Helvetica'" font-size="2.4">Minimum stroke weight is 2px</tspan><tspan x="0" y="14.5" fill="#000000" font-family="'Helvetica'" font-size="2.4">For thicker strokes use even </tspan><tspan x="0" y="17.5" fill="#000000" font-family="'Helvetica'" font-size="2.4">numbers: 6px, 8px etc.</tspan><tspan x="0" y="22" fill="#000000" font-family="'Helvetica-Bold'" font-size="2.4">Remember to expand strokes </tspan><tspan x="0" y="25" fill="#000000" font-family="'Helvetica-Bold'" font-size="2.4">before saving as an SVG </tspan></text>
	<rect x="-136.5" y="58" fill="none" width="35" height="32.5"/>
	<text transform="matrix(1 0 0 1 -136.5 60.1299)"><tspan x="0" y="0" fill="#000000" font-family="'Helvetica-Bold'" font-size="3">Size</tspan><tspan x="0" y="5" fill="#000000" font-family="'Helvetica'" font-size="2.4">Cannot be wider or taller than </tspan><tspan x="0" y="8.5" fill="#000000" font-family="'Helvetica'" font-size="2.4">100px (artboard size)</tspan><tspan x="0" y="13.5" fill="#000000" font-family="'Helvetica'" font-size="2.4">Scale your icon to fill as much of </tspan><tspan x="0" y="16.5" fill="#000000" font-family="'Helvetica'" font-size="2.4">the artboard as possible</tspan></text>
	<rect x="-94" y="58" fill="none" width="35" height="32.5"/>
	<text transform="matrix(1 0 0 1 -94 60.1299)"><tspan x="0" y="0" fill="#000000" font-family="'Helvetica-Bold'" font-size="3">Ungroup</tspan><tspan x="0" y="5" fill="#000000" font-family="'Helvetica'" font-size="2.4">If your design has more than one </tspan><tspan x="0" y="8" fill="#000000" font-family="'Helvetica'" font-size="2.4">shape, make sure to ungroup</tspan></text>
	<rect x="-50" y="58" fill="none" width="35" height="32.5"/>
	<text transform="matrix(1 0 0 1 -50 60.1299)"><tspan x="0" y="0" fill="#000000" font-family="'Helvetica-Bold'" font-size="3">Save as</tspan><tspan x="0" y="5" fill="#000000" font-family="'Helvetica'" font-size="2.4">Save as .SVG and make sure &#8220;Use </tspan><tspan x="0" y="8" fill="#000000" font-family="'Helvetica'" font-size="2.4">Artboards&#8221; is checked</tspan></text>
	<text transform="matrix(1.0074 0 0 1 -125.542 30.5933)" fill="#000000" font-family="'Helvetica'" font-size="2.5731">100px</text>
	<text transform="matrix(1.0074 0 0 1 -41 39)" fill="#000000" font-family="'Helvetica-Bold'" font-size="5.1462">.SVG</text>
	<rect x="-126.514" y="34.815" fill="#000000" width="10.261" height="10.185"/>
	<rect x="-126.477" y="31.766" fill="#000000" width="0.522" height="2.337"/>
	<rect x="-116.813" y="31.766" fill="#000000" width="0.523" height="2.337"/>
	<rect x="-127" y="32.337" fill="#000000" width="11.233" height="0.572"/>
	<g>
		<rect x="-83.805" y="33.844" fill="#000000" width="10.305" height="10.156"/>
		<rect x="-76.809" y="28.707" fill="#000000" width="3.308" height="3.261"/>
	</g>
	<rect x="-178.5" y="22.5" fill="#000000" stroke="#FFFFFF" stroke-miterlimit="10" width="30" height="30"/>
	<rect x="-136.5" y="22.5" fill="#000000" stroke="#FFFFFF" stroke-miterlimit="10" width="30" height="30"/>
	<rect x="-93.5" y="22.5" fill="#000000" stroke="#FFFFFF" stroke-miterlimit="10" width="30" height="30"/>
	<rect x="-49.5" y="22.5" fill="#000000" stroke="#FFFFFF" stroke-miterlimit="10" width="30" height="30"/>
</g>
<g id="Your_Icon">
	<path d="M90.07,75.132L71.928,61.875c-0.482-0.356-1.106-0.438-1.667-0.231c-0.558,0.21-0.977,0.688-1.107,1.27l-1.25,5.518   L29.345,58.128c0.033-0.347,0.105-0.685,0.105-1.04c0-0.055-0.014-0.103-0.014-0.154l38.813-8.075l1.403,4.519   c0.166,0.537,0.578,0.962,1.108,1.148c0.191,0.067,0.387,0.099,0.584,0.099c0.351,0,0.701-0.107,0.999-0.312l17.813-12.193   c0.614-0.42,0.898-1.178,0.718-1.897c-0.179-0.719-0.79-1.249-1.526-1.329l-22.347-2.409c-0.611-0.07-1.182,0.172-1.561,0.635   c-0.38,0.459-0.501,1.081-0.323,1.65l1.725,5.556l-38.485,8.01c-0.159-0.34-0.337-0.667-0.53-0.987l30.883-24.534l2.553,3.712   c0.316,0.464,0.839,0.75,1.4,0.768c0.019,0,0.041,0,0.06,0c0.54,0,1.054-0.247,1.39-0.672l13.39-16.937   c0.46-0.58,0.509-1.388,0.124-2.021c-0.388-0.632-1.113-0.958-1.855-0.814l-22.054,4.326c-0.586,0.112-1.074,0.515-1.3,1.07   c-0.225,0.552-0.158,1.181,0.181,1.673l3.429,4.988L24.603,47.87c-1.859-1.297-4.059-2.007-6.375-2.007   C12.037,45.863,7,50.896,7,57.088c0,6.188,5.037,11.226,11.228,11.226c4.157,0,7.753-2.303,9.691-5.672l38.94,10.401l-1.086,4.792   c-0.124,0.549,0.021,1.124,0.387,1.553C66.499,79.776,66.988,80,67.501,80c0.046,0,0.094-0.003,0.139-0.005l21.521-1.662   c0.739-0.06,1.364-0.571,1.567-1.283C90.931,76.338,90.669,75.571,90.07,75.132z M18.228,64.769c-4.236,0-7.684-3.447-7.684-7.681   c0-4.238,3.447-7.681,7.684-7.681c2.049,0,3.978,0.797,5.426,2.251c1.453,1.449,2.252,3.375,2.252,5.43   C25.905,61.321,22.46,64.769,18.228,64.769z"/>
</g>
</svg>