<svg xmlns="http://www.w3.org/2000/svg" xmlns:xlink="http://www.w3.org/1999/xlink" version="1.1" x="0px" y="0px" width="100px" height="100px" viewBox="-346 256 100 100" enable-background="new -346 256 100 100" xml:space="preserve">
<g id="Layer_1">
	<g id="Layer_2">
	</g>
</g>
<g id="Layer_3">
</g>
<g id="Layer_2_1_">
	<circle cx="-304.201" cy="324.226" r="2.406"/>
	<circle cx="-307.366" cy="315.756" r="2.406"/>
	<g>
		<path d="M-267.958,296.541c2.959,0.531,5.268,2.005,6.676,4.265c1.764,2.837,2.045,6.813,0.787,11.199    c-0.178,0.623-0.393,1.216-0.633,1.788c-2.141,5.054-6.736,8.245-11.396,8.245c-0.926,0-1.852-0.127-2.762-0.388    c-1.135-0.326-1.791-1.511-1.465-2.645c0.326-1.137,1.518-1.792,2.645-1.466c3.441,0.996,7.316-1.346,9.041-5.418    c0.178-0.413,0.332-0.848,0.461-1.3c0.904-3.157,0.793-5.985-0.311-7.754c-0.771-1.239-2.014-1.998-3.797-2.317    c-2.615-0.47-5.691,0.518-6.633,3.793c-0.322,1.134-1.504,1.79-2.645,1.466c-1.133-0.323-1.791-1.509-1.465-2.645    c0.338-1.187,0.877-2.238,1.555-3.158l-23.106,12.359l4.102,16.063h34.953c8.107-7.169,14.777-20.782,14.777-32.082    c0-4.022-0.631-8.007-1.779-11.826l-21.875,11.701C-269.897,296.355-268.944,296.363-267.958,296.541z"/>
		<path d="M-296.2,332.908l-9.728,9.549h-2.636c-8.558,0-12.544-3.992-12.544-12.561v-10.891h-9.476    c-0.473,0-0.858-0.386-0.858-0.86c0-0.104,0.013-0.188,0.028-0.246l8.154-14.324l18.269,6.271l54.572-29.19    c-5.719-13.785-18.539-24.437-34.363-24.569c-16.903-0.142-34.039,10.876-37.466,28.41c-0.718,3.108-1.533,11.228-1.533,11.228    l-0.195,0.46l-1.248,2.193l-5.028-1.725l-0.908,0.685c-0.187,0.142-18.616,14.378-10.994,36.621    c7.012,20.468,28.803,20.693,29.039,20.693c0.001,0,0.001,0,0.001,0h0.873l8.064-7.918h0.06V356h40.603l0.264-23.092H-296.2z     M-309.374,292.626c2.07,0,3.743,1.677,3.743,3.744c0,2.067-1.673,3.744-3.743,3.744c-2.067,0-3.744-1.677-3.744-3.744    C-313.118,294.304-311.441,292.626-309.374,292.626z M-313.958,350.342c-3.774-0.233-18.798-2.151-24.15-17.768    c-5.786-16.887,5.382-28.232,8.677-31.117l2.054,0.705l-7.832,13.762l-0.097,0.189c-0.27,0.61-0.413,1.314-0.413,2.032    c0,2.833,2.304,5.138,5.136,5.138h5.199v6.613c0,10.288,5.371,16.187,15.16,16.78L-313.958,350.342z"/>
	</g>
</g>
</svg>