<?xml version="1.0" encoding="utf-8"?>
<!-- Generator: Adobe Illustrator 16.0.0, SVG Export Plug-In . SVG Version: 6.00 Build 0)  -->
<!DOCTYPE svg PUBLIC "-//W3C//DTD SVG 1.1//EN" "http://www.w3.org/Graphics/SVG/1.1/DTD/svg11.dtd">
<svg version="1.1" id="Layer_1" xmlns="http://www.w3.org/2000/svg" xmlns:xlink="http://www.w3.org/1999/xlink" x="0px" y="0px"
	 width="100px" height="88.662px" viewBox="0 0 100 88.662" enable-background="new 0 0 100 88.662" xml:space="preserve">
<g>
	<path fill="#010101" d="M37.11,28.816c-1.937,0-3.511,1.571-3.511,3.506c0,1.93,1.575,3.5,3.511,3.5c1.928,0,3.499-1.571,3.499-3.5
		C40.609,30.388,39.037,28.816,37.11,28.816z"/>
	<path fill="#010101" d="M98.984,35.825L100,33.139l-15.517-5.842c-0.108-0.065-0.193-0.154-0.315-0.2L12.66,0.152
		c-1.221-0.459-2.579,0.158-3.045,1.375L0.153,26.638c-0.462,1.222,0.159,2.584,1.373,3.046l28.076,10.578v16.519H14.97v-6.818
		H6.962v38.699h8.008V60.737h14.633v5.048c0,4.146,3.361,7.508,7.507,7.508s7.507-3.361,7.507-7.508V45.917L73.047,56.63
		c1.216,0.461,2.577-0.163,3.032-1.379l2.351-6.229c0.069,0.031,0.114,0.09,0.187,0.115l1.593,0.602
		c1.696,0.647,3.602-0.221,4.245-1.915l2.006-5.343c0.646-1.702-0.212-3.602-1.911-4.242l-1.6-0.605
		c-0.071-0.026-0.144-0.013-0.216-0.034l1.042-2.764L98.984,35.825z M37.11,38.523c-3.425,0-6.212-2.782-6.212-6.202
		c0-3.422,2.787-6.208,6.212-6.208c3.42,0,6.199,2.785,6.199,6.208C43.309,35.742,40.53,38.523,37.11,38.523z"/>
</g>
</svg>
